<?xml version="1.0" encoding="UTF-8" standalone="no"?>
<!-- Created with Inkscape (http://www.inkscape.org/) -->

<svg
   width="600mm"
   height="217mm"
   viewBox="0 0 600 217"
   version="1.1"
   id="svg14573"
   inkscape:version="1.1.2 (b8e25be833, 2022-02-05)"
   sodipodi:docname="ibantai.svg"
   xmlns:inkscape="http://www.inkscape.org/namespaces/inkscape"
   xmlns:sodipodi="http://sodipodi.sourceforge.net/DTD/sodipodi-0.dtd"
   xmlns="http://www.w3.org/2000/svg"
   xmlns:svg="http://www.w3.org/2000/svg">
  <sodipodi:namedview
     id="namedview14575"
     pagecolor="#ffffff"
     bordercolor="#666666"
     borderopacity="1.0"
     inkscape:pageshadow="2"
     inkscape:pageopacity="0.0"
     inkscape:pagecheckerboard="true"
     inkscape:document-units="mm"
     showgrid="false"
     width="600mm"
     inkscape:zoom="0.1799523"
     inkscape:cx="978.03695"
     inkscape:cy="280.62992"
     inkscape:window-width="1920"
     inkscape:window-height="1001"
     inkscape:window-x="-7"
     inkscape:window-y="-7"
     inkscape:window-maximized="1"
     inkscape:current-layer="layer1" />
  <defs
     id="defs14570">
    <filter
       inkscape:collect="always"
       style="color-interpolation-filters:sRGB"
       id="filter14153"
       x="-0.058828716"
       y="-0.082321432"
       width="1.1176574"
       height="1.1646429">
      <feGaussianBlur
         inkscape:collect="always"
         stdDeviation="4.4053884"
         id="feGaussianBlur14155" />
    </filter>
  </defs>
  <g
     inkscape:label="Calque 1"
     inkscape:groupmode="layer"
     id="layer1">
    <path
       style="fill:#ffffff;fill-opacity:1;stroke:none;stroke-width:1.0249px;stroke-linecap:butt;stroke-linejoin:miter;stroke-opacity:1"
       d="m 195.17408,175.02808 c -0.86642,-31.22181 1.85133,-87.406354 -1.31729,-99.844017 -4.08088,-9.026657 -13.85912,-24.414632 -32.93371,-23.804268 -26.9269,0.861662 -39.63567,24.060521 -40.49805,38.12848 -1.516,24.730075 14.92324,44.788675 28.65022,57.085035 23.56251,21.10685 46.09883,28.43477 46.09883,28.43477 z"
       id="path887"
       sodipodi:nodetypes="ccsssc" />
    <path
       style="display:inline;opacity:0.830435;mix-blend-mode:normal;fill:#cccccc;stroke:none;stroke-width:1px;stroke-linecap:butt;stroke-linejoin:miter;stroke-opacity:1;filter:url(#filter14153)"
       d="m 192.15405,173.82974 c 0,0 -101.959668,-114.339498 -110.555018,-121.694588 -9.52494,-8.15055 -46.05668,-6.23488 -62.00328,20.5977 -17.6715259,34.738948 -0.8499,71.039758 30.68637,88.275878 15.76813,8.61805 47.817171,14.81141 80.707538,15.25439 32.89037,0.44299 51.27888,-1.71169 61.16439,-2.43338 z"
       id="path62-0"
       sodipodi:nodetypes="cscssc"
       transform="matrix(1.0249048,0,0,1.0249048,-1.7655288,-3.1307188)" />
    <path
       style="fill:#ffffff;fill-opacity:1;stroke:none;stroke-width:1.0249px;stroke-linecap:butt;stroke-linejoin:miter;stroke-opacity:1"
       d="m 218.43893,107.60316 c 0,0 -3.87747,0.43083 -3.66206,3.0158 0.21541,2.58502 0.86166,57.51586 0.86166,59.88541 0,2.36958 4.95456,5.60079 8.4012,5.81621 3.44664,0.21539 9.69367,-4.95456 10.1245,-13.57115 0.43084,-8.6166 2.41639,-55.14627 -6.03162,-55.14627 z"
       id="path84"
       sodipodi:nodetypes="csssssc" />
    <path
       style="fill:#ffffff;fill-opacity:1;stroke:none;stroke-width:1.0249px;stroke-linecap:butt;stroke-linejoin:miter;stroke-opacity:1"
       d="m 209.39148,73.782986 c 0,0 -3.50514,23.045605 17.87948,11.847824 4.79325,-2.509916 -7.39168,-19.797275 -13.35574,-18.741125 -2.70625,0.479253 -4.52374,6.893301 -4.52374,6.893301 z"
       id="path1181"
       sodipodi:nodetypes="cssc" />
    <path
       style="fill:#ffffff;fill-opacity:1;stroke:none;stroke-width:1.0249px;stroke-linecap:butt;stroke-linejoin:miter;stroke-opacity:1"
       d="m 255.27493,88.215768 c 0,0 -7.39482,3.369548 -8.18579,-4.577557 -0.58326,-5.860185 6.07957,-8.658705 9.47828,-10.286067 27.72958,-13.277297 62.37269,-15.089485 62.25498,10.555354 -0.0415,9.049911 -18.31029,26.711462 -18.31029,26.711462 0,0 32.96,13.26325 9.04742,45.02179 -23.78128,31.58413 -43.22859,20.89946 -43.29844,15.94073 -0.21538,-15.29449 12.76398,-8.60896 18.31029,-12.06326 11.0981,-6.91201 31.18339,-25.46108 10.33993,-36.62058 -5.67768,-3.03982 -18.44197,8.7955 -22.18776,2.36955 -4.4706,-7.66933 1.96974,-11.43638 16.923,-20.50795 5.66417,-3.43621 16.76227,-18.817611 14.09678,-22.790474 -6.71979,-10.015813 -32.31227,0 -33.38934,1.938732 -1.0771,1.938742 -9.04746,78.841932 -9.26287,81.857752 -0.21537,3.0158 -9.26285,13.14034 -13.78655,-0.43084 -2.26188,-6.78559 1.45404,-18.52571 4.01208,-36.10898 2.55806,-17.58323 3.95828,-41.009662 3.95828,-41.009662 z"
       id="path2294"
       sodipodi:nodetypes="cssscsssssssssssc" />
    <path
       id="path9041"
       style="fill:#ffffff;fill-opacity:1;stroke:none;stroke-width:1.0249px;stroke-linecap:butt;stroke-linejoin:miter;stroke-opacity:1"
       d="m 508.60312,120.7435 c 0,0 5.3854,12.7095 -6.24705,25.84981 -11.63238,13.14031 -15.07907,16.37152 -18.09484,14.64823 -3.01581,-1.72332 0.86164,-14.86366 7.97036,-25.6344 7.1087,-10.77079 13.78657,-16.80241 16.37153,-14.86364 z m -5.6008,-10.33994 c 0,0 -27.18729,10.73521 -32.74308,47.82216 -1.44935,9.67489 8.617,18.43535 19.34729,12.65516 10.73024,-5.78015 20.50449,-18.47138 20.50449,-18.47138 0,0 0.21538,12.49412 9.69372,17.44863 9.47824,4.95456 20.67985,-4.52372 20.67985,-4.52372 0,0 6.39808,6.41664 11.20156,5.81619 17.23325,-2.15413 37.05071,-30.35221 28.86562,-27.35769 -8.83199,3.2312 -12.70949,12.92491 -25.419,11.41702 -7.4625,-0.88539 -10.12447,-9.90913 1.72336,-20.67986 10.48739,-9.534 18.31029,-21.75693 12.70946,-25.63442 -5.60075,-3.87749 -19.38733,8.18576 -26.49603,18.95655 -7.1087,10.77075 -4.73915,29.51186 -4.73915,29.51186 0,0 -4.52368,5.81619 -12.49405,2.58497 -3.59898,-1.45905 -7.33825,-21.39666 -3.01584,-32.74309 3.44664,-9.04745 -8.40118,-18.52572 -9.69367,-17.01782 -1.29247,1.50791 -6.03163,1.72331 -10.12453,0.21539 z" />
    <path
       id="path9041-9"
       style="fill:#ffffff;fill-opacity:1;stroke:none;stroke-width:1.0249px;stroke-linecap:butt;stroke-linejoin:miter;stroke-opacity:1"
       d="m 356.3059,122.0032 c 0,0 5.38538,12.70952 -6.24704,25.84984 -11.63242,13.1403 -15.07905,16.37157 -18.09485,14.64823 -3.01583,-1.72336 0.86163,-14.86363 7.97033,-25.63442 7.10872,-10.77073 13.78658,-16.80236 16.37156,-14.86365 z m -14.64952,-4.70636 c 0,0 -39.21095,36.10778 -17.23319,54.71547 12.57341,10.64538 32.74309,-17.44867 32.74309,-17.44867 0,0 5.16996,23.69568 21.11066,18.31031 15.94077,-5.38538 9.47831,-3.01582 13.14034,-1.07708 3.66206,1.93874 -3.44663,-21.7569 29.08105,-47.17592 12.07152,-9.43335 -10.77076,32.52771 -6.03165,43.29844 4.73916,10.77075 25.20362,-4.09287 27.78857,-10.77073 1.49582,-3.86421 -8.18575,6.24705 -9.69367,6.46246 -1.5079,0.21537 -3.01583,-1.29253 0.43085,-12.06325 3.4466,-10.77079 18.14438,-40.88319 -0.64627,-38.34389 -15.9407,2.15414 -30.15811,24.77273 -30.15811,24.77273 0,0 8.40119,-25.20357 6.67789,-24.98816 -1.72333,0.21538 -21.54153,-3.01583 -21.32612,7.32412 0.21538,10.33991 -8.81682,40.10221 -10.77076,40.92887 -5.6008,2.36958 -11.11505,-18.2791 -6.67786,-29.72729 4.30127,-11.09762 -5.60874,-18.26881 -7.97036,-18.74111 -12.92492,-2.58502 -20.46446,4.5237 -20.46446,4.5237 z" />
    <path
       style="fill:#ffffff;fill-opacity:1;stroke:none;stroke-width:1.0249px;stroke-linecap:butt;stroke-linejoin:miter;stroke-opacity:1"
       d="m 481.89166,49.441058 c 0,0 -7.70672,29.668688 -5.6008,31.450622 5.6008,4.73913 18.52568,-4.739111 19.38739,-0.861665 0.86164,3.877483 2.69998,7.715394 2.15414,13.355743 -1.2925,13.355762 -24.98817,0.430841 -25.84984,6.462478 -0.86168,6.031584 -18.09486,62.901194 -15.07906,69.794464 3.01582,6.89328 13.35575,-10.85123 13.35575,-0.43081 0,0 2.58498,6.46246 -12.06326,9.90913 -2.65237,0.62407 -16.80239,4.30826 -13.35572,-12.4941 3.44663,-16.80239 12.49406,-62.03958 6.89329,-62.47041 -5.60079,-0.43085 -10.33996,5.60079 -13.78657,0.86165 -3.44667,-4.7391 -5.60082,-14.648202 0.43085,-15.079053 6.03161,-0.430832 18.95649,0.861693 19.38732,-7.75492 0.43083,-8.616631 -9.04744,-22.403197 6.03163,-24.557332 20.43032,-3.964476 17.81301,-16.313484 18.09488,-8.185797 z"
       id="path10486"
       sodipodi:nodetypes="csssssssssssscc" />
    <path
       style="fill:#ffffff;fill-opacity:1;stroke:none;stroke-width:1.0249px;stroke-linecap:butt;stroke-linejoin:miter;stroke-opacity:1"
       d="m 568.91936,62.796817 c 3.87748,2.584968 0,10.339906 -3.01581,13.786575 -3.01583,3.446623 -7.3241,8.185771 -10.33995,5.169926 -3.01578,-3.015772 0.43088,-10.770739 3.87749,-14.648222 3.44663,-3.877446 6.46246,-5.169944 9.47827,-4.308279 z"
       id="path12618" />
    <path
       style="fill:#ffffff;fill-opacity:1;stroke:none;stroke-width:1.07531px;stroke-linecap:butt;stroke-linejoin:miter;stroke-opacity:1"
       d="m 595.3093,63.129842 c 4.02061,2.744176 0,10.976694 -3.12714,14.635592 -3.12711,3.658888 -7.59448,8.689906 -10.7216,5.48836 -3.12714,-3.201555 0.44676,-11.434064 4.02062,-15.550332 3.57387,-4.116278 6.70098,-5.488361 9.82812,-4.57362 z"
       id="path12618-5" />
    <path
       style="fill:#ffffff;stroke:none;stroke-width:1.0249px;stroke-linecap:butt;stroke-linejoin:miter;stroke-opacity:1"
       d="m 195.17408,175.02808 c 0,0 -104.49894,-117.18711 -113.308362,-124.725346 C 72.103573,41.949198 34.662016,43.912583 18.318272,71.413412 0.20663105,107.0175 17.447188,144.22238 49.768878,161.88777 c 16.16083,8.83272 49.008042,15.18032 82.717542,15.63429 33.7095,0.45406 52.55597,-1.75429 62.68766,-2.49398 z"
       id="path62"
       sodipodi:nodetypes="cscssc" />
  </g>
</svg>
