<?xml version="1.0" encoding="UTF-8" standalone="no"?>
<!-- Created with Inkscape (http://www.inkscape.org/) -->

<svg
   width="375mm"
   height="163mm"
   viewBox="0 0 375 163"
   version="1.1"
   id="svg14573"
   sodipodi:docname="ibantai2.svg"
   inkscape:version="1.1.2 (b8e25be833, 2022-02-05)"
   xmlns:inkscape="http://www.inkscape.org/namespaces/inkscape"
   xmlns:sodipodi="http://sodipodi.sourceforge.net/DTD/sodipodi-0.dtd"
   xmlns="http://www.w3.org/2000/svg"
   xmlns:svg="http://www.w3.org/2000/svg">
  <sodipodi:namedview
     id="namedview14575"
     pagecolor="#ffffff"
     bordercolor="#666666"
     borderopacity="1.0"
     inkscape:pageshadow="2"
     inkscape:pageopacity="0.0"
     inkscape:pagecheckerboard="true"
     inkscape:document-units="mm"
     showgrid="false"
     width="600mm"
     inkscape:zoom="0.1799523"
     inkscape:cx="978.03695"
     inkscape:cy="280.62992"
     inkscape:window-width="1920"
     inkscape:window-height="1001"
     inkscape:window-x="-7"
     inkscape:window-y="-7"
     inkscape:window-maximized="1"
     inkscape:current-layer="layer1" />
  <defs
     id="defs14570">
    <filter
       inkscape:collect="always"
       style="color-interpolation-filters:sRGB"
       id="filter14153"
       x="-0.058828716"
       y="-0.082321432"
       width="1.1176574"
       height="1.1646429">
      <feGaussianBlur
         inkscape:collect="always"
         stdDeviation="4.4053884"
         id="feGaussianBlur14155" />
    </filter>
  </defs>
  <g
     inkscape:label="Calque 1"
     inkscape:groupmode="layer"
     id="layer1">
    <path
       style="fill:#ffffff;fill-opacity:1;stroke:none;stroke-width:0.631723px;stroke-linecap:butt;stroke-linejoin:miter;stroke-opacity:1"
       d="m 120.35311,121.3538 c -0.53404,-19.24446 1.1411,-53.875396 -0.81195,-61.541704 -2.51535,-5.563837 -8.5424,-15.048653 -20.299479,-14.672438 -16.597035,0.53111 -24.430392,14.830387 -24.961942,23.501574 -0.934419,15.243087 9.198297,27.606775 17.659247,35.185988 14.523324,13.00981 28.414124,17.52658 28.414124,17.52658 z"
       id="path887"
       sodipodi:nodetypes="ccsssc" />
    <path
       style="display:inline;opacity:0.830435;mix-blend-mode:normal;fill:#cccccc;stroke:none;stroke-width:1px;stroke-linecap:butt;stroke-linejoin:miter;stroke-opacity:1;filter:url(#filter14153)"
       d="m 192.15405,173.82974 c 0,0 -101.959668,-114.339498 -110.555018,-121.694588 -9.52494,-8.15055 -46.05668,-6.23488 -62.00328,20.5977 -17.6715259,34.738948 -0.8499,71.039758 30.68637,88.275878 15.76813,8.61805 47.817171,14.81141 80.707538,15.25439 32.89037,0.44299 51.27888,-1.71169 61.16439,-2.43338 z"
       id="path62-0"
       sodipodi:nodetypes="cscssc"
       transform="matrix(0.63172631,0,0,0.63172631,-1.0353487,11.540692)" />
    <path
       style="fill:#ffffff;fill-opacity:1;stroke:none;stroke-width:0.631723px;stroke-linecap:butt;stroke-linejoin:miter;stroke-opacity:1"
       d="m 134.69295,79.794532 c 0,0 -2.38997,0.265553 -2.2572,1.858871 0.13277,1.59335 0.53111,35.451537 0.53111,36.912077 0,1.46056 3.05385,3.4522 5.17827,3.58499 2.12443,0.13276 5.97493,-3.05389 6.24049,-8.36497 0.26556,-5.31109 1.48939,-33.990968 -3.71774,-33.990968 z"
       id="path84"
       sodipodi:nodetypes="csssssc" />
    <path
       style="fill:#ffffff;fill-opacity:1;stroke:none;stroke-width:0.631723px;stroke-linecap:butt;stroke-linejoin:miter;stroke-opacity:1"
       d="m 129.11634,58.948502 c 0,0 -2.16048,14.204815 11.02044,7.302744 2.95443,-1.547058 -4.55603,-12.202614 -8.23213,-11.551626 -1.66806,0.295402 -2.78831,4.248882 -2.78831,4.248882 z"
       id="path1181"
       sodipodi:nodetypes="cssc" />
    <path
       style="fill:#ffffff;fill-opacity:1;stroke:none;stroke-width:0.631723px;stroke-linecap:butt;stroke-linejoin:miter;stroke-opacity:1"
       d="m 157.3977,67.844558 c 0,0 -4.55798,2.076917 -5.04551,-2.821507 -0.35951,-3.612092 3.74729,-5.337039 5.84216,-6.34011 17.0918,-8.18384 38.4449,-9.300834 38.37235,6.506093 -0.0256,5.57817 -11.28599,16.464369 -11.28599,16.464369 0,0 20.31569,8.175181 5.5766,27.750467 -14.65816,19.46778 -26.64497,12.88197 -26.68803,9.82552 -0.13275,-9.4272 7.86738,-5.30638 11.28599,-7.43553 6.84057,-4.26042 19.22062,-15.693666 6.37326,-22.572141 -3.49958,-1.873683 -11.36715,5.421356 -13.67596,1.460539 -2.75556,-4.727212 1.2141,-7.049136 10.4309,-12.640661 3.49125,-2.118003 10.33182,-11.598769 8.68888,-14.047556 -4.1419,-6.173531 -19.91644,0 -20.58031,1.194993 -0.6639,1.194998 -5.57662,48.596466 -5.7094,50.455356 -0.13274,1.85887 -5.70937,8.09942 -8.49766,-0.26556 -1.39417,-4.18249 0.89623,-11.41885 2.47294,-22.256797 1.57672,-10.837923 2.43978,-25.277475 2.43978,-25.277475 z"
       id="path2294"
       sodipodi:nodetypes="cssscsssssssssssc" />
    <path
       id="path9041"
       style="fill:#ffffff;fill-opacity:1;stroke:none;stroke-width:0.631723px;stroke-linecap:butt;stroke-linejoin:miter;stroke-opacity:1"
       d="m 313.54258,87.893954 c 0,0 3.31941,7.833862 -3.85052,15.933266 -7.1699,8.0994 -9.29435,10.09105 -11.15319,9.02885 -1.85886,-1.06221 0.5311,-9.16164 4.91273,-15.800488 4.38161,-6.638883 8.49768,-10.356645 10.09098,-9.161628 z m -3.45219,-6.373318 c 0,0 -16.75754,6.616952 -20.18198,29.476544 -0.89334,5.9634 5.31129,11.36316 11.92516,7.80037 6.61384,-3.56276 12.63844,-11.38536 12.63844,-11.38536 0,0 0.13275,7.70111 5.97495,10.75496 5.84214,3.05389 12.74652,-2.78832 12.74652,-2.78832 0,0 3.94361,3.95507 6.90435,3.58497 10.62213,-1.32776 22.83709,-18.70845 17.79202,-16.86269 -5.44382,1.99164 -7.83381,7.96664 -15.66761,7.03721 -4.59969,-0.54574 -6.24046,-6.10778 1.06223,-12.746624 6.46416,-5.87655 11.28598,-13.410502 7.83378,-15.800505 -3.45215,-2.390002 -11.94985,5.045527 -16.33146,11.68441 -4.38162,6.638859 -2.92109,18.190479 -2.92109,18.190479 0,0 -2.78828,3.58497 -7.70101,1.59332 -2.21831,-0.89933 -4.5231,-13.188444 -1.85888,-20.182137 2.12442,-5.576653 -5.17827,-11.418858 -5.97492,-10.489419 -0.79665,0.929445 -3.71775,1.062213 -6.2405,0.132761 z" />
    <path
       id="path9041-9"
       style="fill:#ffffff;fill-opacity:1;stroke:none;stroke-width:0.631723px;stroke-linecap:butt;stroke-linejoin:miter;stroke-opacity:1"
       d="m 219.67055,88.670402 c 0,0 3.31941,7.833875 -3.85052,15.933288 -7.16991,8.09939 -9.29433,10.09108 -11.15319,9.02885 -1.85888,-1.06224 0.53109,-9.16162 4.91271,-15.800504 4.38163,-6.638846 8.49768,-10.356614 10.091,-9.161634 z m -9.02958,-2.900898 c 0,0 -24.16861,22.256056 -10.62209,33.725446 7.74992,6.56158 20.18198,-10.75499 20.18198,-10.75499 0,0 3.18663,14.6055 13.01206,11.28608 9.82548,-3.31944 5.84219,-1.85889 8.09937,-0.66389 2.2572,1.195 -2.12441,-13.41049 17.9248,-29.078218 7.44056,-5.814518 -6.63882,20.049378 -3.71776,26.688228 2.9211,6.63886 15.53486,-2.52276 17.12816,-6.63885 0.92198,-2.38182 -5.04549,3.85055 -5.97493,3.98332 -0.92943,0.13275 -1.85888,-0.79669 0.26556,-7.43553 2.1244,-6.63888 11.18372,-25.199516 -0.39834,-23.634347 -9.82543,1.327765 -18.58867,15.26938 -18.58867,15.26938 0,0 5.17827,-15.534939 4.11608,-15.402166 -1.06222,0.132755 -13.27764,-1.85889 -13.14487,4.514434 0.13276,6.373292 -5.43446,24.718139 -6.63881,25.227669 -3.45219,1.46056 -6.85103,-11.26684 -4.11606,-18.323258 2.65118,-6.840333 -3.45709,-11.260504 -4.91272,-11.551618 -7.96658,-1.59335 -12.61376,2.78831 -12.61376,2.78831 z" />
    <path
       style="fill:#ffffff;fill-opacity:1;stroke:none;stroke-width:0.631723px;stroke-linecap:butt;stroke-linejoin:miter;stroke-opacity:1"
       d="m 297.07833,43.944662 c 0,0 -4.75022,18.287141 -3.45219,19.385486 3.45219,2.921098 11.41875,-2.921086 11.94989,-0.531111 0.53108,2.389997 1.66419,4.755602 1.32775,8.232192 -0.79667,8.232203 -15.40206,0.265561 -15.93317,3.983332 -0.53112,3.71774 -11.1532,38.770939 -9.29434,43.019799 1.85888,4.24888 8.23214,-6.68846 8.23214,-0.26554 0,0 1.59331,3.98332 -7.43548,6.10778 -1.63485,0.38466 -10.35655,2.65552 -8.23211,-7.7011 2.12441,-10.35663 7.70101,-38.239858 4.24884,-38.505412 -3.45218,-0.265565 -6.37328,3.452209 -8.49768,0.531101 -2.12444,-2.921078 -3.4522,-9.028834 0.26556,-9.294402 3.71773,-0.265555 11.68429,0.531129 11.94984,-4.779965 0.26555,-5.311106 -5.5766,-13.808848 3.71774,-15.136611 12.59272,-2.443617 10.97948,-10.05528 11.15321,-5.045549 z"
       id="path10486"
       sodipodi:nodetypes="csssssssssssscc" />
    <path
       style="fill:#ffffff;fill-opacity:1;stroke:none;stroke-width:0.631723px;stroke-linecap:butt;stroke-linejoin:miter;stroke-opacity:1"
       d="m 350.71993,52.176865 c 2.38998,1.593318 0,6.373295 -1.85887,8.497747 -1.85887,2.124425 -4.51438,5.045533 -6.37327,3.186631 -1.85885,-1.858856 0.26558,-6.638851 2.38998,-9.028848 2.12442,-2.389974 3.98329,-3.186642 5.84216,-2.65553 z"
       id="path12618" />
    <path
       style="fill:#ffffff;fill-opacity:1;stroke:none;stroke-width:0.662795px;stroke-linecap:butt;stroke-linejoin:miter;stroke-opacity:1"
       d="m 366.986,52.382134 c 2.4782,1.691451 0,6.765798 -1.92748,9.021064 -1.92747,2.25526 -4.68104,5.356271 -6.60852,3.382907 -1.92748,-1.97337 0.27537,-7.047711 2.47821,-9.58489 2.20284,-2.537185 4.13031,-3.382907 6.05779,-2.819081 z"
       id="path12618-5" />
    <path
       style="fill:#ffffff;stroke:none;stroke-width:0.631723px;stroke-linecap:butt;stroke-linejoin:miter;stroke-opacity:1"
       d="m 120.35311,121.3538 c 0,0 -64.410423,-72.231613 -69.840321,-76.878019 C 44.495658,39.326841 21.41766,40.53703 11.343803,57.487948 0.18026102,79.433539 10.80689,102.36583 30.729136,113.25439 c 9.961113,5.4443 30.207276,9.35683 50.984931,9.63664 20.777663,0.27987 32.394123,-1.0813 38.639043,-1.53723 z"
       id="path62"
       sodipodi:nodetypes="cscssc" />
  </g>
</svg>
