<?xml version="1.0" encoding="UTF-8" standalone="no"?>
<svg
   version="1.1"
   id="Layer_1"
   x="0px"
   y="0px"
   viewBox="0 0 210 118"
   xml:space="preserve"
   sodipodi:docname="sosGreen6.svg"
   inkscape:version="1.1.2 (b8e25be833, 2022-02-05)"
   width="210"
   height="118"
   inkscape:export-filename="E:\PROJECT\langorbais\logos\sos2.png"
   inkscape:export-xdpi="96"
   inkscape:export-ydpi="96"
   xmlns:inkscape="http://www.inkscape.org/namespaces/inkscape"
   xmlns:sodipodi="http://sodipodi.sourceforge.net/DTD/sodipodi-0.dtd"
   xmlns:xlink="http://www.w3.org/1999/xlink"
   xmlns="http://www.w3.org/2000/svg"
   xmlns:svg="http://www.w3.org/2000/svg"
   xmlns:rdf="http://www.w3.org/1999/02/22-rdf-syntax-ns#"
   xmlns:cc="http://creativecommons.org/ns#"
   xmlns:dc="http://purl.org/dc/elements/1.1/"><metadata
     id="metadata228"><rdf:RDF><cc:Work
         rdf:about=""><dc:format>image/svg+xml</dc:format><dc:type
           rdf:resource="http://purl.org/dc/dcmitype/StillImage" /></cc:Work></rdf:RDF></metadata><defs
     id="defs226"><linearGradient
       id="linearGradient6081"
       inkscape:swatch="solid"><stop
         style="stop-color:#000100;stop-opacity:1;"
         offset="0"
         id="stop6079" /></linearGradient><linearGradient
       id="linearGradient4055"
       inkscape:swatch="solid"><stop
         style="stop-color:#000000;stop-opacity:0.20481928;"
         offset="0"
         id="stop4053" /></linearGradient><inkscape:perspective
       sodipodi:type="inkscape:persp3d"
       inkscape:vp_x="0 : 108.5 : 1"
       inkscape:vp_y="0 : 1000 : 0"
       inkscape:vp_z="212 : 108.5 : 1"
       inkscape:persp3d-origin="106 : 72.333331 : 1"
       id="perspective3181" /><clipPath
       clipPathUnits="userSpaceOnUse"
       id="clipPath1026"><g
         id="use1028"
         inkscape:label="Clip"><path
           d="m 47,482.92117 h 212.70279 v 88.27587 H 47 Z"
           style="fill:#000000;fill-opacity:1"
           id="path133"
           inkscape:connector-curvature="0" /></g></clipPath><linearGradient
       inkscape:collect="always"
       xlink:href="#linearGradient3859-5"
       id="linearGradient3861"
       x1="218.76476"
       y1="316.505"
       x2="443.99329"
       y2="316.505"
       gradientUnits="userSpaceOnUse"
       gradientTransform="translate(-21.403841,297.3688)" /><linearGradient
       inkscape:collect="always"
       id="linearGradient3859-5"><stop
         style="stop-color:#000000;stop-opacity:1;"
         offset="0"
         id="stop3855" /><stop
         style="stop-color:#000000;stop-opacity:0;"
         offset="1"
         id="stop3857" /></linearGradient><filter
       inkscape:collect="always"
       style="color-interpolation-filters:sRGB"
       id="filter3819"
       x="-0.012854602"
       width="1.0257092"
       y="-0.034633821"
       height="1.0692676"><feGaussianBlur
         inkscape:collect="always"
         stdDeviation="1.1761063"
         id="feGaussianBlur3821" /></filter></defs><sodipodi:namedview
     pagecolor="#ffffff"
     bordercolor="#666666"
     borderopacity="1"
     objecttolerance="10"
     gridtolerance="10"
     guidetolerance="10"
     inkscape:pageopacity="0"
     inkscape:pageshadow="2"
     inkscape:window-width="1920"
     inkscape:window-height="1001"
     id="namedview224"
     showgrid="true"
     inkscape:zoom="4.1"
     inkscape:cx="103.65854"
     inkscape:cy="67.560976"
     inkscape:window-x="-7"
     inkscape:window-y="-7"
     inkscape:window-maximized="1"
     inkscape:current-layer="Layer_1"
     inkscape:lockguides="false"
     fit-margin-top="0"
     fit-margin-left="0"
     fit-margin-right="0"
     fit-margin-bottom="0"
     inkscape:document-rotation="0"
     showguides="false"
     scale-x="1"
     inkscape:pagecheckerboard="true"><inkscape:grid
       type="xygrid"
       id="grid38" /></sodipodi:namedview><style
     type="text/css"
     id="style139">
	.st0{fill:#37474F;}
	.st1{font-family:'ProductSans-Regular';}
	.st2{font-size:177.8187px;}
	.st3{fill:#1565C0;}
	.st4{opacity:0.2;}
	.st5{fill:#231F20;}
	.st6{fill:#2196F3;}
</style><path
     id="path3727"
     style="font-style:normal;font-variant:normal;font-weight:bold;font-stretch:normal;font-size:200.477px;line-height:1.25;font-family:'Trebuchet MS';-inkscape-font-specification:'Trebuchet MS Bold';letter-spacing:0px;word-spacing:0px;display:inline;fill:#ff0000;fill-opacity:1;stroke:none;stroke-width:1.21416;stroke-opacity:1"
     d="m 103.709,33.507545 c 10.22839,0 15.34262,6.395335 15.34262,19.185387 0,6.230094 -1.38894,11.030779 -4.16752,14.402379 -2.7383,3.371578 -6.4636,5.057797 -11.1751,5.057797 -10.268654,0 -15.402818,-6.486903 -15.402818,-19.460176 0,-6.046873 1.38895,-10.75599 4.167535,-14.127579 2.778574,-3.37159 6.523788,-5.057808 11.235283,-5.057808 z m -43.011822,3.194343 c 6.020819,0 10.839963,0.914816 14.467111,2.737853 -1.518718,3.491177 -2.36563,7.377436 -2.531175,11.663385 -1.633112,-0.608008 -3.41595,-1.184357 -5.389397,-1.720376 -6.411198,-1.773049 -10.593955,-3.181741 -12.549128,-4.226574 -1.955206,-1.044823 -2.933178,-2.216447 -2.933178,-3.514579 0,-3.292788 2.979277,-4.939709 8.935767,-4.939709 z m 74.057052,16.126168 c 2.41515,1.136694 5.24302,2.177605 8.50084,3.119398 5.77463,1.678059 9.66275,3.134859 11.66341,4.369662 2.00064,1.234791 3.00129,2.817567 3.00129,4.748936 0,3.292798 -3.32038,4.939708 -9.95892,4.939708 -5.80005,0 -11.05783,-1.157217 -15.77867,-3.463482 1.69938,-3.988573 2.55716,-8.559208 2.57205,-13.714222 z"
     sodipodi:nodetypes="sscssssscccsssccssscc" /><path
     id="path3731"
     style="display:inline;fill:#ffffff;fill-opacity:1;stroke-width:0.820429"
     d="M 26.7876,14.01371 V 96.621571 H 179.78348 V 14.01371 Z m 76.34067,8.811985 c 9.8257,0 17.45666,2.711344 22.893,8.135204 0.63983,0.638354 1.23876,1.307172 1.80328,2.000859 0.90919,-0.739992 1.97157,-1.417589 3.18753,-2.03266 4.81976,-2.469594 10.98001,-3.704211 18.48246,-3.704211 7.59341,0 14.73275,1.186509 21.41678,3.561123 L 166,40 c -3.72851,-2.216306 -8.91191,-3.324937 -15.55044,-3.324937 -5.9565,0 -8.93464,1.646899 -8.93464,4.939698 0,1.298122 0.978,2.469767 2.93317,3.51459 1.95519,1.044834 6.13795,2.453525 12.54914,4.226574 6.41117,1.741378 11.02682,3.862444 13.84594,6.363697 2.8191,2.501264 4.22886,5.524826 4.22886,9.070902 0,4.717558 -2.03543,9.41517 -7.08253,12.138062 -5.00164,2.691233 -12.31086,3.54864 -20.95005,3.54864 -4.86523,0 -8.77487,-0.773466 -11.73038,-1.343373 -2.65043,-0.490213 -6.03558,-1.49161 -10.08156,-2.953593 -5.46045,5.140184 -12.82348,7.718435 -22.09924,7.718435 -9.825688,0 -17.476577,-2.78506 -22.953196,-8.355495 -0.187383,-0.193272 -0.36414,-0.393997 -0.54507,-0.591625 -0.741328,0.550904 -1.560209,1.07092 -2.463042,1.557983 -5.001637,2.691233 -11.822552,4.036941 -20.461746,4.036941 -4.865243,0 -8.774883,-0.284035 -11.730399,-0.853952 -2.910036,-0.538235 -6.661042,-1.662903 -11.253461,-3.372621 l 6.069602,-9.451306 c 5.092585,2.81786 10.844873,4.227703 17.256049,4.227703 6.638541,0 9.957796,-1.64691 9.957796,-4.939719 0,-1.931347 -1.000658,-3.514123 -3.001311,-4.748936 -2.000664,-1.234781 -5.88877,-2.691581 -11.663396,-4.36964 -12.595031,-3.641077 -18.892399,-8.738736 -18.892399,-15.292674 0,-4.400951 1.439047,-9.762492 6.252421,-12.213007 4.826173,-2.457034 8.537414,-3.21592 16.039859,-3.21592 7.568872,0 18.080526,2.636866 24.767828,5.005581 0.0098,-0.0098 0.01945,-0.02053 0.02955,-0.03064 5.718239,-5.643729 13.248498,-8.465631 22.590955,-8.465631 z m 52.59713,42.549641 c 0.008,-0.218956 -0.0399,0.437281 -0.0363,0.656367 2.8e-4,0.04205 0.003,0.08398 0.004,0.126052 0.10321,-0.238544 0.0234,-0.52171 0.0329,-0.782419 z"
     inkscape:export-xdpi="96"
     inkscape:export-ydpi="96" /><text
     xml:space="preserve"
     style="font-style:normal;font-weight:normal;font-size:85.3333px;line-height:1.25;font-family:sans-serif;letter-spacing:0px;word-spacing:0px;display:inline;opacity:0.400641;fill:url(#linearGradient3861);fill-opacity:1;stroke:none;filter:url(#filter3819)"
     x="197.80858"
     y="620.58209"
     id="text3759"
     inkscape:export-xdpi="96"
     inkscape:export-ydpi="96"
     transform="matrix(0.58140958,0,0,0.58140958,-42.946616,-262.42957)"><tspan
       sodipodi:role="line"
       id="tspan3757"
       x="197.80858"
       y="620.58209"
       style="font-style:normal;font-variant:normal;font-weight:normal;font-stretch:normal;font-size:85.3333px;font-family:'Rage Italic';-inkscape-font-specification:'Rage Italic, ';fill:url(#linearGradient3861);fill-opacity:1"><tspan
         style="fill:url(#linearGradient3861);fill-opacity:1"
         id="tspan3753">Mo</tspan><tspan
         style="fill:url(#linearGradient3861);fill-opacity:1"
         id="tspan3755">ney</tspan></tspan></text><text
     xml:space="preserve"
     style="font-style:normal;font-weight:normal;font-size:49.6135px;line-height:1.25;font-family:sans-serif;letter-spacing:0px;word-spacing:0px;display:inline;fill:#ffff00;fill-opacity:1;stroke:none;stroke-width:0.581409"
     x="74.678513"
     y="105.82874"
     id="text3737"
     transform="skewY(-4.0504459)"
     inkscape:export-xdpi="96"
     inkscape:export-ydpi="96"><tspan
       sodipodi:role="line"
       id="tspan3735"
       x="74.678513"
       y="105.82874"
       style="font-style:normal;font-variant:normal;font-weight:normal;font-stretch:normal;font-size:49.6135px;font-family:'Rage Italic';-inkscape-font-specification:'Rage Italic, ';fill:#ffff00;stroke-width:0.581409">Mo<tspan
   style="fill:#000000;stroke-width:0.581409"
   id="tspan3733">ne</tspan><tspan
   id="tspan139"
   style="fill:#ffffff;stroke-width:0.581409">y</tspan></tspan></text><path
     id="path3865"
     style="font-style:normal;font-variant:normal;font-weight:bold;font-stretch:normal;font-size:200.477px;line-height:1.25;font-family:'Trebuchet MS';-inkscape-font-specification:'Trebuchet MS Bold';letter-spacing:0px;word-spacing:0px;display:inline;fill:#ff0000;fill-opacity:1;stroke:none;stroke-width:1.21416"
     d="m 103.709,33.507556 c 10.22839,0 15.34263,6.395335 15.34263,19.185376 0,6.230105 -1.38895,11.030779 -4.16752,14.402379 -2.73831,3.371578 -6.46361,5.057797 -11.17511,5.057797 -10.268654,1.1e-5 -15.402818,-6.486903 -15.402818,-19.460176 0,-6.046873 1.38895,-10.75599 4.167535,-14.127579 2.778584,-3.37159 6.523788,-5.057797 11.235283,-5.057797 z m -43.011822,3.194332 c 6.020819,0 10.839973,0.914816 14.467111,2.737853 -1.518718,3.491188 -2.365619,7.377447 -2.531175,11.663385 -1.633101,-0.608008 -3.41595,-1.184357 -5.389386,-1.720376 -6.411198,-1.773049 -10.593966,-3.181741 -12.549139,-4.226574 -1.955195,-1.044823 -2.933178,-2.216447 -2.933178,-3.514568 0,-3.292799 2.979277,-4.93972 8.935767,-4.93972 z m 74.057062,16.126179 c 2.41515,1.136683 5.24301,2.177594 8.50084,3.119398 5.77462,1.678059 9.66274,3.134848 11.6634,4.369651 2.00064,1.234802 3.00129,2.817578 3.00129,4.748936 0,3.292798 -3.32036,4.939708 -9.95892,4.939708 -5.80004,0 -11.05783,-1.157217 -15.77867,-3.463482 1.69939,-3.988573 2.55717,-8.559208 2.57206,-13.714211 z"
     sodipodi:nodetypes="sscssssscccsssccssscc" /></svg>
