<?xml version="1.0" encoding="UTF-8" standalone="no"?>
<svg
   xmlns:osb="http://www.openswatchbook.org/uri/2009/osb"
   xmlns:dc="http://purl.org/dc/elements/1.1/"
   xmlns:cc="http://creativecommons.org/ns#"
   xmlns:rdf="http://www.w3.org/1999/02/22-rdf-syntax-ns#"
   xmlns:svg="http://www.w3.org/2000/svg"
   xmlns="http://www.w3.org/2000/svg"
   xmlns:xlink="http://www.w3.org/1999/xlink"
   xmlns:sodipodi="http://sodipodi.sourceforge.net/DTD/sodipodi-0.dtd"
   xmlns:inkscape="http://www.inkscape.org/namespaces/inkscape"
   version="1.1"
   id="Layer_1"
   x="0px"
   y="0px"
   viewBox="0 0 210 118"
   xml:space="preserve"
   sodipodi:docname="sosGreen4.svg"
   inkscape:version="0.92.4 (5da689c313, 2019-01-14)"
   width="210"
   height="118"><metadata
     id="metadata228"><rdf:RDF><cc:Work
         rdf:about=""><dc:format>image/svg+xml</dc:format><dc:type
           rdf:resource="http://purl.org/dc/dcmitype/StillImage" /><dc:title></dc:title></cc:Work></rdf:RDF></metadata><defs
     id="defs226"><linearGradient
       id="linearGradient6081"
       osb:paint="solid"><stop
         style="stop-color:#000100;stop-opacity:1;"
         offset="0"
         id="stop6079" /></linearGradient><linearGradient
       id="linearGradient4055"
       osb:paint="solid"><stop
         style="stop-color:#000000;stop-opacity:0.20481928;"
         offset="0"
         id="stop4053" /></linearGradient><inkscape:perspective
       sodipodi:type="inkscape:persp3d"
       inkscape:vp_x="0 : 108.5 : 1"
       inkscape:vp_y="0 : 1000 : 0"
       inkscape:vp_z="212 : 108.5 : 1"
       inkscape:persp3d-origin="106 : 72.333331 : 1"
       id="perspective3181" /><clipPath
       clipPathUnits="userSpaceOnUse"
       id="clipPath1026"><g
         id="use1028"
         inkscape:label="Clip"><path
           d="m 47,482.92117 h 212.70279 v 88.27587 H 47 Z"
           style="fill:#000000;fill-opacity:1"
           id="path133"
           inkscape:connector-curvature="0" /></g></clipPath><radialGradient
       inkscape:collect="always"
       xlink:href="#linearGradient4114"
       id="radialGradient4120"
       cx="-327.94254"
       cy="210.27043"
       fx="-327.94254"
       fy="210.27043"
       r="131.57324"
       gradientTransform="matrix(1,0,0,0.53993515,480.63136,436.00723)"
       gradientUnits="userSpaceOnUse" /><linearGradient
       inkscape:collect="always"
       id="linearGradient4114"><stop
         style="stop-color:#008080;stop-opacity:1;"
         offset="0"
         id="stop4110" /><stop
         style="stop-color:#008080;stop-opacity:0;"
         offset="1"
         id="stop4112" /></linearGradient><filter
       inkscape:collect="always"
       style="color-interpolation-filters:sRGB"
       id="filter4194"
       x="-0.016743379"
       width="1.0334868"
       y="-0.03100998"
       height="1.0620199"><feGaussianBlur
         inkscape:collect="always"
         stdDeviation="1.8358171"
         id="feGaussianBlur4196" /></filter><filter
       inkscape:collect="always"
       style="color-interpolation-filters:sRGB"
       id="filter3310"
       x="-0.087142117"
       width="1.1742842"
       y="-0.16668426"
       height="1.3333685"><feGaussianBlur
         inkscape:collect="always"
         stdDeviation="5.5321614"
         id="feGaussianBlur3312" /></filter></defs><sodipodi:namedview
     pagecolor="#ffffff"
     bordercolor="#666666"
     borderopacity="1"
     objecttolerance="10"
     gridtolerance="10"
     guidetolerance="10"
     inkscape:pageopacity="0"
     inkscape:pageshadow="2"
     inkscape:window-width="1366"
     inkscape:window-height="705"
     id="namedview224"
     showgrid="true"
     inkscape:zoom="2.05"
     inkscape:cx="112.89231"
     inkscape:cy="83.945579"
     inkscape:window-x="-8"
     inkscape:window-y="-8"
     inkscape:window-maximized="1"
     inkscape:current-layer="Layer_1"
     inkscape:lockguides="false"
     fit-margin-top="0"
     fit-margin-left="0"
     fit-margin-right="0"
     fit-margin-bottom="0"
     inkscape:document-rotation="0"
     showguides="false"
     scale-x="1"
     inkscape:pagecheckerboard="false"><inkscape:grid
       type="xygrid"
       id="grid38" /></sodipodi:namedview><style
     type="text/css"
     id="style139">
	.st0{fill:#37474F;}
	.st1{font-family:'ProductSans-Regular';}
	.st2{font-size:177.8187px;}
	.st3{fill:#1565C0;}
	.st4{opacity:0.2;}
	.st5{fill:#231F20;}
	.st6{fill:#2196F3;}
</style><path
     id="path3889"
     style="font-style:normal;font-variant:normal;font-weight:bold;font-stretch:normal;font-size:200.477005px;line-height:1.25;font-family:'Trebuchet MS';-inkscape-font-specification:'Trebuchet MS Bold';letter-spacing:0px;word-spacing:0px;display:inline;fill:#006c00;fill-opacity:1;stroke:none;stroke-width:2.08829999;filter:url(#filter3310)"
     d="m 144.84108,591.13061 c 14.68017,0 22.02031,13.18183 22.02031,39.54416 0,12.84124 -1.99347,22.73623 -5.98138,29.68561 -3.93013,6.94938 -9.27681,10.42495 -16.03893,10.42495 -14.73796,10e-6 -22.10669,-13.37055 -22.10669,-40.11056 0,-12.46357 1.99347,-22.16982 5.98139,-29.1192 3.98791,-6.94938 9.36318,-10.42496 16.1253,-10.42496 z m -61.732176,6.58407 c 8.641304,0 15.557924,1.88557 20.763736,5.64314 -2.17972,7.19589 -3.39523,15.20608 -3.63284,24.04013 -2.34389,-1.25322 -4.902696,-2.44116 -7.735063,-3.54599 -9.20158,-3.65452 -15.204835,-6.55808 -18.010991,-8.71164 -2.806156,-2.15356 -4.20979,-4.56847 -4.20979,-7.24411 0,-6.78698 4.275961,-10.18153 12.824948,-10.18153 z m 106.289456,33.23861 c 3.46633,2.34289 7.52497,4.48839 12.20073,6.42959 8.28795,3.45875 13.86833,6.46144 16.73975,9.00656 2.8714,2.54511 4.30757,5.80748 4.30757,9.78832 0,6.78699 -4.76552,10.18154 -14.2934,10.18154 -8.32445,0 -15.87063,-2.38522 -22.64616,-7.13879 2.43903,-8.2211 3.67015,-17.64192 3.69151,-28.26722 z"
     sodipodi:nodetypes="sscssssscccsssccssscc"
     inkscape:connector-curvature="0"
     transform="matrix(0.9275537,0,0,0.64587883,-29.34788,-348.79875)" /><path
     id="path3891"
     style="font-style:normal;font-variant:normal;font-weight:bold;font-stretch:normal;font-size:200.477005px;line-height:1.25;font-family:'Trebuchet MS';-inkscape-font-specification:'Trebuchet MS Bold';letter-spacing:0px;word-spacing:0px;display:inline;fill:#008000;fill-opacity:1;stroke:#006600;stroke-width:1.61635947;stroke-opacity:1;opacity:1"
     d="m 107.0948,29.02218 c 13.61665,0 20.42502,8.51386 20.42502,25.54073 0,8.29388 -1.84905,14.68485 -5.54805,19.17331 -3.64541,4.48845 -8.60474,6.73325 -14.87697,6.73325 -13.670248,1e-5 -20.50515,-8.63575 -20.50515,-25.90656 0,-8.04996 1.849051,-14.31902 5.548061,-18.80748 3.699009,-4.48845 8.684859,-6.73325 14.957089,-6.73325 z m -57.25992,4.25251 c 8.015279,0 14.430816,1.21784 19.259484,3.64478 -2.021807,4.64767 -3.149258,9.82129 -3.369654,15.52701 -2.174084,-0.80943 -4.547517,-1.57669 -7.174683,-2.29027 -8.53496,-2.36039 -14.103306,-4.23573 -16.706161,-5.62667 -2.602864,-1.39094 -3.904806,-2.95068 -3.904806,-4.67882 0,-4.38357 3.966182,-6.57603 11.89582,-6.57603 z m 98.58919,21.46812 c 3.2152,1.51322 6.97981,2.89894 11.31683,4.15273 7.68752,2.23393 12.86362,4.1733 15.52701,5.81714 2.66339,1.64383 3.99551,3.75093 3.99551,6.32207 0,4.38357 -4.42027,6.57604 -13.2579,6.57604 -7.72137,0 -14.72086,-1.54056 -21.00552,-4.61079 2.26232,-5.30984 3.40426,-11.39454 3.42407,-18.25719 z"
     sodipodi:nodetypes="sscssssscccsssccssscc"
     inkscape:connector-curvature="0" /><path
     transform="matrix(0.7740073,0,0,0.7740073,-14.075281,-366.03341)"
     inkscape:connector-curvature="0"
     inkscape:export-ydpi="96"
     inkscape:export-xdpi="96"
     d="M 21.115585,478.49861 V 620.58065 H 284.26207 V 478.49861 Z m 131.302735,15.15626 c 16.89978,0 30.02472,4.66337 39.375,13.99218 1.10048,1.09795 2.13061,2.24829 3.10156,3.44141 1.56378,-1.27277 3.39101,-2.43821 5.48242,-3.49609 8.28978,-4.2476 18.88515,-6.3711 31.78906,-6.3711 13.06033,0 25.33972,2.04076 36.83594,6.125 l -8.44727,15.84766 c -6.41286,-3.81195 -15.3281,-5.71875 -26.74609,-5.71875 -10.24493,0 -15.36719,2.83261 -15.36719,8.49609 0,2.23271 1.68209,4.24786 5.04492,6.04492 3.36285,1.79707 10.557,4.21997 21.58399,7.26953 11.02697,2.99511 18.9657,6.64326 23.81445,10.94532 4.84873,4.30206 7.27344,9.50244 7.27344,15.60156 0,8.11401 -3.50084,16.19369 -12.18164,20.87695 -8.60261,4.6288 -21.17416,6.10352 -36.0332,6.10352 -8.36799,0 -15.09241,-1.33033 -20.17578,-2.31055 -4.55861,-0.84316 -10.38092,-2.56551 -17.33985,-5.08008 -9.39174,8.84091 -22.05585,13.27539 -38.00976,13.27539 -16.89977,0 -30.05897,-4.79016 -39.47852,-14.37109 -0.3223,-0.33242 -0.62631,-0.67767 -0.9375,-1.01758 -1.27507,0.94753 -2.68349,1.84194 -4.23633,2.67969 -8.602605,4.6288 -20.334305,6.94336 -35.193355,6.94336 -8.36799,0 -15.09242,-0.48853 -20.17578,-1.46875 -5.00515,-0.92575 -11.45671,-2.86013 -19.35547,-5.80078 l 10.43946,-16.25586 c 8.75902,4.84662 18.65271,7.27148 29.67968,7.27148 11.41801,0 17.12696,-2.83261 17.12696,-8.49609 0,-3.32185 -1.72107,-6.04416 -5.16211,-8.16797 -3.44105,-2.12378 -10.12845,-4.62942 -20.06055,-7.51562 -21.66293,-6.26249 -32.49414,-15.03025 -32.49414,-26.30274 0,-7.56945 2.47511,-16.79108 10.75391,-21.00586 8.30082,-4.226 14.68398,-5.53125 27.58789,-5.53125 13.01813,0 31.097725,4.53531 42.599605,8.60938 0.0174,-0.0173 0.0334,-0.0354 0.0508,-0.0527 9.83512,-9.707 22.78683,-14.56055 38.85547,-14.56055 z m 90.46484,73.18359 c 0.0138,-0.37661 -0.0685,0.75209 -0.0625,1.12891 0.001,0.0723 0.005,0.14451 0.006,0.21679 0.1775,-0.41029 0.0402,-0.89731 0.0566,-1.3457 z"
     style="display:inline;opacity:0.30769234;fill:url(#radialGradient4120);fill-opacity:1;fill-rule:evenodd;stroke-width:1.41111004;filter:url(#filter4194)"
     id="path3895" /></svg>