<?xml version="1.0" encoding="UTF-8" standalone="no"?>
<!-- Created with Inkscape (http://www.inkscape.org/) -->

<svg
   width="412mm"
   height="236mm"
   viewBox="0 0 412 236"
   version="1.1"
   id="svg15038"
   inkscape:version="1.1.2 (b8e25be833, 2022-02-05)"
   sodipodi:docname="sosMoney-black2.svg"
   xmlns:inkscape="http://www.inkscape.org/namespaces/inkscape"
   xmlns:sodipodi="http://sodipodi.sourceforge.net/DTD/sodipodi-0.dtd"
   xmlns:xlink="http://www.w3.org/1999/xlink"
   xmlns="http://www.w3.org/2000/svg"
   xmlns:svg="http://www.w3.org/2000/svg">
  <sodipodi:namedview
     id="namedview15040"
     pagecolor="#ffffff"
     bordercolor="#666666"
     borderopacity="1.0"
     inkscape:pageshadow="2"
     inkscape:pageopacity="0.0"
     inkscape:pagecheckerboard="true"
     inkscape:document-units="mm"
     showgrid="false"
     inkscape:zoom="0.25449098"
     inkscape:cx="638.5295"
     inkscape:cy="561.90596"
     inkscape:window-width="1507"
     inkscape:window-height="1030"
     inkscape:window-x="25"
     inkscape:window-y="-9"
     inkscape:window-maximized="0"
     inkscape:current-layer="layer1" />
  <defs
     id="defs15035">
    <linearGradient
       inkscape:collect="always"
       id="linearGradient3859-5">
      <stop
         style="stop-color:#000000;stop-opacity:1;"
         offset="0"
         id="stop3855" />
      <stop
         style="stop-color:#000000;stop-opacity:0;"
         offset="1"
         id="stop3857" />
    </linearGradient>
    <linearGradient
       inkscape:collect="always"
       xlink:href="#linearGradient3859-5"
       id="linearGradient3887"
       gradientUnits="userSpaceOnUse"
       x1="218.76476"
       y1="316.505"
       x2="443.99329"
       y2="316.505"
       gradientTransform="translate(-21.403832,297.3688)" />
    <filter
       inkscape:collect="always"
       style="color-interpolation-filters:sRGB"
       id="filter3819-8"
       x="-0.012854593"
       width="1.0257092"
       y="-0.034633823"
       height="1.0692676">
      <feGaussianBlur
         inkscape:collect="always"
         stdDeviation="1.1761063"
         id="feGaussianBlur3821-6" />
    </filter>
    <linearGradient
       inkscape:collect="always"
       xlink:href="#linearGradient3859-5"
       id="linearGradient15230"
       gradientUnits="userSpaceOnUse"
       gradientTransform="translate(-21.403832,297.3688)"
       x1="218.76476"
       y1="316.505"
       x2="443.99329"
       y2="316.505" />
    <linearGradient
       inkscape:collect="always"
       xlink:href="#linearGradient3859-5"
       id="linearGradient15232"
       gradientUnits="userSpaceOnUse"
       gradientTransform="translate(-21.403832,297.3688)"
       x1="218.76476"
       y1="316.505"
       x2="443.99329"
       y2="316.505" />
    <linearGradient
       inkscape:collect="always"
       xlink:href="#linearGradient3859-5"
       id="linearGradient15234"
       gradientUnits="userSpaceOnUse"
       gradientTransform="translate(-21.403832,297.3688)"
       x1="218.76476"
       y1="316.505"
       x2="443.99329"
       y2="316.505" />
    <linearGradient
       inkscape:collect="always"
       xlink:href="#linearGradient3859-5"
       id="linearGradient15236"
       gradientUnits="userSpaceOnUse"
       gradientTransform="translate(-21.403832,297.3688)"
       x1="218.76476"
       y1="316.505"
       x2="443.99329"
       y2="316.505" />
    <linearGradient
       inkscape:collect="always"
       xlink:href="#linearGradient3859-5"
       id="linearGradient15238"
       gradientUnits="userSpaceOnUse"
       gradientTransform="translate(-21.403832,297.3688)"
       x1="218.76476"
       y1="316.505"
       x2="443.99329"
       y2="316.505" />
  </defs>
  <g
     inkscape:label="Calque 1"
     inkscape:groupmode="layer"
     id="layer1">
    <path
       id="path3865"
       style="font-style:normal;font-variant:normal;font-weight:bold;font-stretch:normal;font-size:200.477px;line-height:1.25;font-family:'Trebuchet MS';-inkscape-font-specification:'Trebuchet MS Bold';letter-spacing:0px;word-spacing:0px;display:inline;fill:#ff0000;fill-opacity:1;stroke:none;stroke-width:2.16683"
       d="m 203.68581,73.51008 c 18.3238,0 27.48577,11.36993 27.48577,34.10865 0,11.07618 -2.48828,19.61107 -7.46598,25.60521 -4.90559,5.99418 -11.57928,8.99202 -20.01979,8.99202 -18.39587,0 -27.59356,-11.53273 -27.59356,-34.59723 0,-10.75039 2.48825,-19.12249 7.46599,-25.11668 4.97771,-5.99414 11.68711,-8.99197 20.12757,-8.99197 z m -77.05405,5.67906 c 10.78608,0 19.4194,1.62638 25.91729,4.86745 -2.72075,6.20682 -4.23793,13.11596 -4.53452,20.73574 -2.92564,-1.08096 -6.11953,-2.10562 -9.65489,-3.05859 -11.48542,-3.15219 -18.97869,-5.65664 -22.48133,-7.51417 -3.50264,-1.85758 -5.25465,-3.94054 -5.25465,-6.2484 0,-5.85409 5.33728,-8.78203 16.0081,-8.78203 z M 259.30218,107.859 c 4.32666,2.02083 9.39266,3.87141 15.22895,5.5458 10.34502,2.98334 17.31046,5.57327 20.89455,7.76858 3.58409,2.19527 5.37672,5.00922 5.37672,8.44285 0,5.85412 -5.94832,8.78206 -17.84104,8.78206 -10.39057,0 -19.80969,-2.05736 -28.26692,-6.15751 3.04441,-7.09109 4.58108,-15.21698 4.60774,-24.38178 z"
       sodipodi:nodetypes="sscssssscccsssccssscc" />
    <path
       id="path3869"
       style="display:inline;fill:#000000;fill-opacity:1;stroke-width:1.46418"
       d="M 65.884,38.853 V 185.71711 H 339.97039 V 38.853 Z m 136.76147,15.6664 c 17.60236,0 31.27295,4.82032 41.01196,14.46313 1.1462,1.1349 2.21917,2.32391 3.2305,3.55719 1.62879,-1.31559 3.53197,-2.52027 5.71032,-3.61373 8.63442,-4.39058 19.67029,-6.58554 33.11066,-6.58554 13.60327,0 26.39319,2.10944 38.36732,6.33114 l -8.79843,16.38105 c -6.67948,-3.94025 -15.96534,-5.91124 -27.85802,-5.91124 -10.67086,0 -16.00605,2.92794 -16.00605,8.78207 0,2.30786 1.75201,4.39082 5.25465,6.2484 3.50264,1.85753 10.99587,4.36198 22.4813,7.51417 11.48539,3.09593 19.75417,6.86683 24.80451,11.31371 5.0503,4.44684 7.57582,9.82228 7.57582,16.12666 0,8.38709 -3.64641,16.73871 -12.68808,21.57962 -8.96026,4.78458 -22.05445,6.30891 -37.53121,6.30891 -8.71587,0 -15.71985,-1.37509 -21.01458,-2.3883 -4.74812,-0.87155 -10.8125,-2.65185 -18.06071,-5.25104 -9.78219,9.13847 -22.97278,13.72221 -39.58996,13.72221 -17.60236,0 -31.30866,-4.9514 -41.11979,-14.85481 -0.33579,-0.34379 -0.65234,-0.70048 -0.97648,-1.05182 -1.32807,0.97942 -2.79503,1.90392 -4.41244,2.76988 -8.96027,4.78458 -21.17969,7.17706 -36.65649,7.17706 -8.71587,0 -15.71985,-0.50498 -21.01454,-1.51819 -5.21323,-0.95692 -11.93303,-2.95639 -20.16016,-5.99602 l 10.87347,-16.80299 c 9.12316,5.00973 19.42819,7.51621 30.91358,7.51621 11.89267,0 17.83899,-2.92795 17.83899,-8.78202 0,-3.43367 -1.79263,-6.24762 -5.37672,-8.44289 -3.58413,-2.19528 -10.54953,-4.78525 -20.89455,-7.76858 C 89.09681,108.87037 77.8153,99.80752 77.8153,88.15565 c 0,-7.82422 2.57803,-17.35622 11.201,-21.71285 8.64592,-4.36824 15.29446,-5.71744 28.73483,-5.71744 13.55934,0 32.39057,4.68797 44.3706,8.89915 0.0197,-0.0195 0.0354,-0.0351 0.0528,-0.0546 10.24401,-10.0337 23.73418,-15.05062 40.47083,-15.05062 z m 94.22579,75.6467 c 0.0157,-0.38911 -0.0713,0.77744 -0.065,1.16694 10e-4,0.0746 0.004,0.14924 0.008,0.22425 0.18502,-0.42411 0.0417,-0.92754 0.0591,-1.39103 z"
       inkscape:export-xdpi="96"
       inkscape:export-ydpi="96" />
    <g
       aria-label="Money"
       id="text3877"
       style="font-size:85.3333px;letter-spacing:0px;word-spacing:0px;display:inline;opacity:0.400641;fill:url(#linearGradient3887);filter:url(#filter3819-8)"
       transform="matrix(1.0415735,0,0,1.0336571,-59.04223,-452.62075)">
      <path
         d="m 213.68357,582.33211 0.25,-0.0833 h 1.125 q 0.5,0 1.45833,-1.16666 0.0833,-0.0833 2.20834,-0.79167 l 0.16666,-0.16666 q 0.58334,-0.5 0.83334,-0.66667 h 0.79166 q 0.0833,0 0.66667,-0.375 0.58333,-0.41667 2.45833,-0.91667 1.91667,-0.5 2.5,-0.83333 0.25,-0.0833 1.83333,-0.25 l 1.16667,-0.20833 0.91667,0.0833 q 2.20833,0 3.16666,2.91667 0,0.16666 0.20833,0.54166 0.20834,0.33334 0.20834,0.5 0,1.75 -1.70834,3.66667 l -0.58333,1.54166 q 0,0.0833 -0.45833,0.625 -0.41667,0.54167 -0.75,1.29167 -0.33333,0.70833 -1.79167,2.16666 -0.25,0.5 -0.70833,1.58334 -0.45833,1.04166 -0.79167,1.375 -0.29166,0.33333 -1.625,2.5 -1.29166,2.16666 -1.29166,2.54166 -0.625,0.45833 -0.875,1.54167 -0.20834,1.08333 -0.83334,2.04166 l -0.0833,0.29167 q 1.33333,-0.45833 1.33333,-1.45833 0,-0.125 0.70834,-0.625 l 0.33333,-0.58334 q 0.5,-0.58333 0.875,-0.66666 0.0833,-0.33334 0.875,-0.95833 0.79167,-0.66667 1.04167,-0.91667 0.29166,-0.25 0.91666,-0.5 0.625,-0.29167 1.41667,-2.08333 0.0833,-0.33334 0.625,-0.54167 0.58333,-0.20833 0.95833,-0.66667 0.375,-0.5 0.625,-0.66666 l 0.33333,-0.5 q 0.45834,-0.41667 0.625,-0.5 l 2.04167,-2.5 q 1.625,-1.04167 1.79167,-1.625 l 0.33333,-0.0833 h 0.25 q 0.66667,-0.54167 0.875,-0.75 0,-1.25 0.91666,-1.625 0.95834,-0.41667 1.375,-0.95834 0.41667,-0.58333 0.91667,-0.58333 0.125,0 0.45833,0.25 h 0.0833 q 0.125,0 0.25,-0.41667 v -0.41666 q 0,-0.70833 0.41666,-1.16667 0.41667,-0.45833 1.125,-0.58333 0.70834,-0.16667 1.375,-1.08333 0.66667,-0.91667 1.5,-0.95834 0.875,-0.0417 1.16667,-0.66666 0.29166,-0.625 1.79166,-1.33334 1.5,-0.75 1.875,-0.79166 0.375,-0.0833 0.66667,-0.25 0.33333,-0.16667 0.66667,-0.16667 0.41666,0 1.20833,0.25 l 0.75,0.16667 q 0.95833,0.41666 1.79166,1.54166 l 0.41667,0.41667 v 0.16667 l 0.0833,0.70833 v 0.33333 q 0.54167,0.25 0.54167,0.5 l -0.29167,0.54167 q -0.16666,0.29167 -0.16666,0.70833 0,0.375 -0.0417,0.79167 -0.0417,0.375 -0.125,0.75 -0.0417,0.33333 -0.16667,0.66666 -0.0833,0.29167 -0.20833,0.58334 -0.125,0.25 -0.29167,0.5 l -0.33333,1.33333 q -0.16667,0.79167 -0.91667,1.91667 -0.70833,1.08333 -0.83333,1.54166 -0.125,0.41667 -0.58333,1.16667 l 0.0833,0.25 v 0.58333 q 1.29167,-0.16667 1.29167,-1 0,-0.875 1.04166,-1.29166 l 0.91667,-0.75 q 1.08333,-1.91667 2.66667,-2.5 0,-0.66667 0.79166,-1.375 l 1.58334,-1.5 1.12499,-0.625 q 0.75,-1.54167 1.70834,-1.875 l 0.91666,-0.58333 q 0.83334,-0.41667 0.91667,-0.79167 0.125,-0.41667 0.66667,-0.83333 0.54166,-0.41667 1.58333,-1.375 l 0.33333,-0.16667 0.41667,-0.41667 q 0.45833,-0.25 1.04166,-0.41666 l 0.33334,-0.16667 q 1.04166,-0.79167 1.875,-1.04167 0.83333,-0.29166 1.875,-0.91666 l 1.45833,-0.20833 q 0.5,-0.16667 0.66667,-0.16667 3.95833,0 3.95833,4.45833 l -0.0833,0.66667 0.0833,2.41666 q -1.04167,1.70833 -1.04167,1.79167 l 0.0833,0.75 q 0,0.16666 -0.54166,1 -0.54167,0.79166 -0.66667,0.95833 -0.0833,0.16667 -0.75,0.875 l -0.41666,1.25 q -0.20834,0.41667 -0.70834,0.79167 v 0.5 q 0,0.625 -1.625,1.87499 -0.20833,1.08334 -0.75,1.625 -0.5,0.5 -0.79166,1.08334 -0.25,0.54166 -0.83334,1.04166 0,0.54167 -0.70833,1.83334 -0.70833,1.29166 -1.125,1.66666 -0.375,0.33334 -0.79167,1.20833 l -0.37499,0.16667 q -0.25,1.58333 -0.58334,1.79167 l -0.66666,-0.0833 v 0.16667 q 0,0.0833 0.16666,0.29167 0.16667,0.20833 0.16667,0.45833 0,0.29167 -0.25,0.5 -0.25,0.20833 -0.29167,0.41667 -0.0417,0.20833 -0.20833,0.41666 -0.125,0.20834 -0.16667,0.83334 -0.0417,0.58333 -0.625,1.625 -0.58333,1.04166 -0.625,1.41666 -0.0417,0.375 -0.125,0.625 -0.0833,0.25 -0.0833,0.5 0,0.25 -0.20833,1.29167 0.79166,1.875 1.125,2.54166 0.33333,0.66667 0.33333,0.875 0,1.66667 -0.41667,2.25 -0.41666,0.54167 -2.04166,0.54167 -1.04167,0 -1.83334,-0.70834 -0.75,-0.75 -1.33333,-0.75 v -0.74999 l -0.0833,-0.0833 h -0.66667 q -0.0833,-0.0833 -0.375,-0.29166 -0.25,-0.20834 -0.5,-0.58334 l -0.25,-0.25 q -0.33333,-0.41666 -0.58333,-1.375 l -0.25,-0.83333 0.0833,-0.66667 -0.0833,-1.04166 q 0,-0.41667 0.0833,-0.66667 l 0.0833,-1.125 q 0,-0.16667 0.16666,-0.70833 0.16667,-0.58333 0.20834,-1.33333 0.0417,-0.79167 0.375,-1.20834 0.33333,-0.41666 0.375,-0.70833 0.0417,-0.29167 0.20833,-0.45833 0.20833,-0.20834 0.33333,-0.95834 0.125,-0.75 0.875,-1.20833 0.41667,-0.75 0.70833,-1.41667 0.875,-1.20833 0.91667,-1.20833 h 0.58333 q -0.41666,-0.5 -0.41666,-0.58333 0,-1.125 0.875,-1.125 0.16666,0 0.41666,0.0833 l 0.16667,-0.33333 -0.16667,-0.70833 q 0,-0.70834 1.08334,-1.41667 0,-1.20833 1.125,-2.16667 l -0.0833,-0.66666 q 0.25,-0.25 0.70834,-1.08333 0.45833,-0.875 1.16666,-1.75 l 1.29167,-1.95834 0.58333,-0.66666 q 0,0.0417 0,0.0417 0.0417,-0.0417 0.0833,-0.16666 0.0833,-0.16667 0.16667,-0.45834 l 0.25,-0.625 0.29167,-0.33333 q 1.08333,-0.29167 1.08333,-0.75 0,-0.0833 -0.33333,-0.54166 v -0.16667 q 0,-0.33333 0.5,-0.83333 0.5,-0.5 0.91666,-1.375 0.45834,-0.91667 0.45834,-1.125 0,-0.16667 -0.16667,-0.16667 -1.33333,0 -1.79167,0.95833 0,0.25 -1.625,1 l -0.41666,0.625 q -0.5,0.45834 -0.875,0.45834 -0.375,0 -1,0.5 -0.58333,0.45833 -2.625,2.16666 -2.04167,1.66667 -3,2.75 l -0.95833,0.66667 q -0.58333,0.29166 -0.58333,0.45833 0,0.41667 -0.70834,1.08333 l -0.5,0.625 q -0.58333,-0.20833 -0.66666,-0.20833 -0.45834,0 -0.79167,0.45833 0.33333,0.33333 0.33333,0.41667 0,0.66666 -1.25,1.375 l -1.79166,1.875 q -0.0833,0.0833 -0.625,0.45833 -0.54167,0.375 -0.83334,0.95833 -0.25,0.54167 -1.45833,1.95834 -1.20833,1.37499 -1.41666,1.49999 -0.20834,0.0833 -0.5,0.54167 -0.29167,0.45833 -1.20834,1.29167 -0.91666,0.83333 -1.04166,1.83333 -0.79167,0.29167 -0.79167,0.5 l -0.25,0.41667 -0.33333,0.16666 q -0.0833,0.16667 -0.125,0.58334 -0.0417,0.375 -1.66667,1.41666 -1.625,1 -2.04166,1 -0.125,0 -0.375,0.16667 -0.25,0.16666 -0.33334,0.16666 -0.125,0 -1.125,-0.49999 -0.95833,-0.5 -1.41666,-2.33334 l 0.33333,-1.08333 -0.16667,-0.875 q 0,-0.25 0.375,-0.66667 0.41667,-0.41666 0.41667,-1.04166 0.66667,-1.5 1,-2.125 l 0.0833,-0.66667 q 0.16667,-0.41666 0.54167,-0.91666 0.41667,-0.54167 0.5,-1.16667 0.0833,-0.66667 0.54167,-0.83333 0.45833,-0.16667 3.37499,-5.04167 v -0.58333 l 1.20834,-2.08333 q 0.54166,-0.91667 1.33333,-2.08334 l 0.375,-0.95833 q -1.29167,-0.5 -1.375,-0.5 -0.25,0 -0.625,0.33333 0,0.70834 -2.45833,1.45834 -0.5,0.25 -1.29167,1.20833 l -1.16666,0.66667 q -0.25,0.16666 -0.79167,0.66666 l -0.58333,0.54167 q -1.04167,0.25 -1.79167,1.16667 l -1.125,0.79166 q -0.5,0.41667 -0.66667,0.625 -0.16666,0.20833 -1.54166,0.91667 l -0.66667,0.66666 -0.625,0.33334 q -0.66666,0.70833 -1,1.20833 -0.33333,0.5 -0.875,0.58333 l -0.91666,0.33334 q -0.25,1.08333 -1.54167,2.08333 l -1.20833,1.5 q -0.33333,0.29166 -0.58333,0.45833 -0.16667,0.41667 -0.58334,0.58333 -0.54166,0.66667 -0.70833,0.91667 l -0.5,0.375 q -1.125,0.41667 -1.125,0.66667 l 0.0833,0.75 q 0,0.45833 -1,0.875 -0.41666,0.20833 -0.5,0.66666 -0.0417,0.45834 -0.29166,0.95834 h -0.75 q -0.125,0 -0.79167,0.41666 -0.0833,0 -0.16667,0.0833 l 0.16667,0.95833 q 0,0.5 -0.66667,1.16666 -0.66666,0.625 -1.04166,1.125 -0.33333,0.5 -0.5,0.5 h -0.25 l -0.25,0.16667 q 0.0417,0.79167 -1.04167,1.70833 l -0.5,0.625 q -0.25,0.20834 -1.41666,2.08334 -1.16667,1.87499 -2.20834,3.04166 -1.04166,1.16667 -1.91666,1.58333 -0.875,0.375 -1.875,0.79167 l -1.70833,-0.33333 q -0.25,-0.45834 -0.75,-0.75 -0.45834,-0.29167 -0.45834,-0.625 l -0.5,-1.45834 q 0,-0.58333 0.45834,-1.41666 0.45833,-0.875 0.54166,-1.33333 0.125,-0.5 0.5,-1.29167 0.375,-0.83333 0.375,-0.91667 0,-1.125 0.33334,-1.375 0.375,-0.29166 1.625,-1.25 0.0833,0 0.0833,-0.16666 v -0.0833 l -0.0833,-0.70833 q 0.95833,-1.625 1.20833,-1.625 0.0833,0 0.33333,0.0833 l -0.25,-0.91667 q 0,-0.16667 0.45834,-0.54167 0.45833,-0.375 0.70833,-0.83333 l -0.16667,-0.5 v -0.16667 q 0,-0.79166 1.04167,-1.625 0.16666,-0.33333 0.66666,-1.70833 l 1.08334,-1.91666 q 0.41666,-0.79167 0.875,-1.04167 0.45833,-0.29167 0.5,-0.66667 0.0417,-0.375 0.29166,-0.83333 0,0.20833 0.0417,0.0417 0.0833,-0.20834 0.20833,-0.83334 0.16667,-0.625 0.95834,-1 0.95833,-2.45833 1.5,-2.45833 0.16666,0 0.45833,0.16667 h 0.16666 q 0.66667,0 0.66667,-0.5 0,-0.16667 -0.16667,-0.16667 -0.375,0.41667 -0.66666,0.41667 -0.29167,0 -0.29167,-0.16667 0,-0.0833 0.125,-0.16666 l 0.91667,-1.875 0.0833,-0.79167 q 0.16667,-0.25 0.66667,-0.75 l 0.70833,-0.95833 v -0.41667 q 0,-0.0833 0.375,-0.83333 0.375,-0.79167 0.54167,-1.54167 l 0.70833,-1.04166 q 0.16667,-0.5 0.16667,-0.91667 0,-0.625 -0.16667,-0.625 l -2.41667,0.45833 q -1.95833,1 -2.79166,1.58333 l -0.95833,0.20834 q -0.0833,0 -1.125,0.58333 -1,0.54167 -1.79167,0.625 -0.75,0.0417 -1.33333,0.58333 l -0.16667,0.0833 h -0.79167 q -0.45833,0.54166 -0.62499,0.83333 -0.16667,0.25 -0.29167,0.25 -4.20833,2.79167 -5.33333,3.375 -1.125,0.58333 -1.70834,1.08333 -0.58333,0.45833 -0.99999,0.66667 v 0.5 q 0,0.70833 -1.04167,1.625 -1,0.875 -1.75,0.875 -0.25,0 -0.79167,-0.25 -0.5,-0.29167 -1.16666,-0.375 -0.625,-0.0833 -0.625,-1.58334 0,-2.12499 3.5,-3.87499 0.54166,-0.25 1,-0.58334 0.45833,-0.33333 3.70833,-1.625 l 1.20833,-0.58333 q 0.41667,-0.41667 1.375,-0.75 1,-0.375 1.54167,-0.625 0.58333,-0.25 0.91666,-0.33333 z m 39.08332,10.08333 0.41667,-0.75 v -0.0833 q 0,-0.0833 -0.16667,-0.0833 -0.41667,0 -0.66667,0.83333 0.0833,0.25 0.16667,0.25 0.16667,0 0.25,-0.16666 z"
         id="path13962"
         style="fill:url(#linearGradient15230)" />
      <path
         d="m 298.05854,612.91543 -1.95833,1.70833 q -0.16667,-0.16667 -0.33334,-0.16667 -0.41666,0 -1.04166,0.75 -0.58334,0.75 -0.83334,0.75 l -0.41666,-0.0833 q -1.04167,0.79167 -1.5,0.91667 -0.45834,0.125 -1.125,0.45833 -0.625,0.33333 -1.16667,0.375 -0.5,0.0417 -0.83333,0.375 -0.33333,0.29167 -1.625,0.29167 l -0.66667,-0.0833 q -0.54166,0.25 -0.70833,0.25 -0.33333,0 -0.70833,-0.33333 -0.375,-0.375 -0.83334,-0.41667 -0.41666,-0.0417 -0.87499,-0.58333 -0.45834,-0.54167 -0.875,-0.75 -0.375,-0.20833 -0.625,-0.58333 l -0.58334,-0.5 q -0.70833,-0.5 -1.375,-1.83333 -0.66666,-1.33334 -0.66666,-2.08334 v -0.16666 l 0.0833,-0.79167 -0.0833,-0.91667 q 0.16666,-0.16666 0.41666,-0.70833 v -1.33333 l 1,-3.33333 q 0.0833,-0.20834 -0.33333,-0.54167 -0.41667,0.625 -0.83333,0.75 -0.41667,0.125 -0.58334,0.58333 -0.125,0.45834 -0.45833,0.45834 l -0.5,-0.16667 q -0.0833,0.0833 -0.375,0.875 -0.29167,0.75 -1,0.75 -0.75,0 -0.75,-0.58334 l 0.0833,-0.74999 -0.25,-1.04167 q 0,-0.33333 0.66667,-1.29167 0.66667,-1 1.20833,-1.125 0.58334,-0.16666 0.95834,-0.79166 0.41666,-0.66667 1.75,-1.58334 0.75,-0.16666 1.29166,-1.08333 0.58334,-0.45833 1.5,-0.75 0.95833,-0.29166 1.41667,-0.83333 0.5,-0.58333 2.83333,-1.75 2.375,-1.20833 3.45833,-1.20833 0.33334,0 0.91667,-0.16667 0.58333,-0.20833 1.08333,-0.33333 0.5,-0.16667 1.04167,-0.45834 0.54166,-0.33333 0.875,-0.33333 l 1.20833,0.41667 q 1.33333,0.375 1.625,0.54166 0.0833,0.0833 0.83333,0.375 0.79167,0.25 1.58333,0.70834 0.83334,0.45833 0.83334,1.70833 -0.70834,1.04167 -0.70834,1.125 0,0.16667 0.95834,0.5 0.33333,0.625 1,1.625 l 0.45833,1.45833 0.0833,3.41667 -0.0833,0.33333 q -0.45833,0.41667 -0.45833,0.54167 l 0.125,0.83333 -0.33334,1.16666 q -0.125,0.54167 -0.41666,0.70834 -0.29167,0.16666 -0.375,0.41666 l -0.25,0.33334 q -0.0833,0.125 -0.375,0.75 -0.25,0.58333 -0.58334,0.91666 -0.33333,0.33334 -0.41666,0.79167 -0.0833,0.45833 -0.41667,0.66667 -0.33333,0.20833 -0.5,0.45833 -0.125,0.20833 -0.45833,0.375 z m -12.95833,1.08333 0.16667,0.95833 0.0833,0.0833 h 0.66667 l 0.20833,0.0833 q 0.83333,0.16667 1.25,0.16667 1.29167,0 2.04167,-0.625 0.79166,-0.66667 1.25,-0.66667 0.45833,0 0.74999,-0.625 0.33334,-0.625 0.41667,-0.625 h 0.58333 l 0.16667,-0.0833 q 0,-0.95833 0.83333,-1.375 0.875,-0.41667 1.20834,-1.08333 0.375,-0.70834 0.83333,-1.04167 0.45833,-0.375 0.625,-0.95833 l 0.33333,-0.5 q 0.16667,-0.16667 0.16667,-0.625 l 0.79167,-1.5 q 0.25,-1.04167 0.25,-1.625 0,-0.875 -0.91667,-1.375 -0.875,-0.5 -0.875,-1.95833 0,-0.95834 0.95833,-1.75 1,-0.83333 1,-1 0,-0.25 -0.25,-0.25 -0.125,0 -0.95833,0.33333 -0.29167,0.58333 -2.95833,1.54167 -0.875,-0.41667 -0.95834,-0.41667 -0.25,0 -0.5,0.5 -0.25,0.5 -0.5,0.70833 h -0.54166 q -0.0833,0 -0.54167,0.54167 -0.45833,0.54167 -1.16666,0.54167 l -0.5,0.5 q 0.0417,0.66666 -0.83334,1.375 l -0.45833,0.54166 q -0.41667,0.5 -1.08333,1.16667 l -0.75,1.875 q -0.45834,1.08333 -0.45834,1.625 -0.125,0.25 -0.58333,0.54166 -0.41667,0.25 -0.41667,0.66667 0,0.0833 0.29167,0.41667 0.29167,0.33333 0.29167,0.5 l -0.16667,0.54166 -0.16667,1.54167 z"
         id="path13964"
         style="fill:url(#linearGradient15232)" />
      <path
         d="m 343.89185,609.0821 h 0.16667 l 0.41666,0.16666 q 0.0833,0 0.16667,-0.0833 0,-0.70833 0.66667,-1.20833 0.20833,-0.79167 0.91666,-1.20834 0.75,-0.41666 2.33334,-1.37499 l 1.04166,-0.91667 0.5,-0.25 0.33333,-0.41667 q 0.45834,-0.54166 0.875,-0.54166 0.625,0 0.625,0.45833 l -0.375,0.83333 0.16667,1.375 q 0,0.75 -0.54167,1.33333 -0.5,0.58334 -1.58333,1.70834 l -2.125,2.25 -1.125,0.58333 q -0.41666,0.25 -0.75,0.58333 l -1.625,1.375 q 0,0.58333 -0.375,0.875 h -0.66666 l -0.33334,0.16667 q -0.29166,0.79166 -1.70833,1.54166 l -0.58333,0.41667 q -0.29167,0.25 -0.54167,0.25 l -1.16666,-0.16667 -0.79167,0.16667 q -0.33333,0 -0.91667,-0.33333 -0.54166,-0.33334 -1.125,-0.5 -0.58333,-0.20834 -1.5,-1.54167 -0.87499,-1.375 -0.95833,-1.79166 0,-0.16667 -0.20833,-0.54167 -0.16667,-0.41667 -0.16667,-0.5 0,-0.0833 0.375,-0.83333 v -0.0833 q 0,-0.125 -0.25,-0.58333 -0.20833,-0.45833 -0.20833,-1.125 0,-0.375 -0.25,-0.95833 0.33333,-0.33334 0.33333,-0.5 0,-0.16667 -0.125,-0.45834 -0.125,-0.33333 -0.125,-0.5 l 0.25,-2.04166 -0.16666,-1.04167 0.0833,-1 q 0,-0.875 -0.75,-0.875 -0.33333,0 -0.83333,0.45834 l -0.29167,0.0833 q -1.125,0.54167 -1.58333,0.91667 -0.45834,0.33333 -0.95834,0.33333 -0.25,0.25 -0.95833,0.45833 l -0.33333,0.25 q -0.16667,0.16667 -0.66667,0.5 0,0.125 -1.58333,1.41667 -1.54167,1.25 -2.79167,2.375 -1.25,1.125 -1.83333,1.25 -0.54167,0.0833 -0.54167,1.04166 0,0.16667 -0.75,0.66667 -0.0833,0 -0.875,0.91667 -0.66666,-0.5 -0.74999,-0.5 -0.54167,0 -0.79167,1.375 -0.25,0.54166 -1.33333,0.66666 -0.0833,0.0417 -0.29167,0.625 l -0.16667,0.16667 h -0.41666 q -0.0833,0 -0.58334,0.5 -0.5,0.45833 -0.875,0.58333 -0.54166,1.125 -0.91666,1.125 -0.16667,0 -0.5,-0.16667 -0.29167,-0.16666 -0.75,-0.29166 -0.45834,-0.125 -1.04167,-1 -0.54166,-0.91667 -0.54166,-1.54167 0,-4.625 1.79166,-5.04166 l 0.0833,-0.16667 v -0.33333 q 0,-0.54167 0.45834,-0.75 0.5,-0.25 1,-0.91667 0.5,-0.70833 0.66666,-0.79166 h 0.54167 q 0.16667,0 0.16667,-0.875 0,-0.25 0.20833,-0.45834 0.20833,-0.20833 0.25,-0.58333 0.0417,-0.41667 0.58333,-1.29167 0.58334,-0.91666 0.58334,-1.08333 l -0.0833,-0.16667 q -1.04166,0.95834 -1.5,1.04167 -0.45833,0.0833 -1.25,1.20833 l -0.66666,-0.125 q -1.75,1.29167 -2.16667,1.45834 -0.41666,0.16666 -0.91666,0.95833 0,0.25 -0.29167,0.33333 -0.29167,0.0833 -1.08333,0.66667 h -0.25 q -1.04167,0 -1.04167,-1.5 l 0.875,-2.375 q 0.375,-1.125 1.75,-1.875 1.41666,-0.79167 2.375,-1.5 0.95833,-0.70833 1.91666,-0.75 l 0.29167,-0.41667 q 1.41667,-0.54166 1.91667,-1.70833 0.5,-1.16666 1.375,-1.16666 2.29166,0 3.49999,1.70833 1.20834,1.66666 1.20834,2.66666 l 0.0833,1.125 q 0,0.58334 -0.25,1.625 -0.5,0.75 -0.5,1.125 0,0.33334 0.41667,0.33334 0.25,0 0.66666,-0.33334 0.41667,-0.375 0.91667,-0.66666 0.54167,-0.29167 0.625,-0.5 0.41667,-1 1.45833,-1.375 1.04167,-0.375 1.29167,-0.625 l 0.41666,-0.33334 0.33334,-0.625 q 1.125,-0.5 1.5,-0.91666 0.375,-0.41667 1,-0.54167 0.625,-0.125 1.41666,-0.75 l 0.625,-0.16666 0.58334,-0.33334 q 0.0833,-0.0833 0.5,-0.20833 0.41666,-0.125 1.20833,-0.41667 0.83333,-0.33333 1.125,-0.33333 2.125,0 3.33333,1.70833 1.25,1.70833 1.25,2.75 l -0.0833,0.75 0.16666,1.125 v 0.16667 l -0.33333,2.29166 0.0833,0.79167 q 0,1.95833 -0.83333,2.70833 -0.20833,0.0833 -0.20833,0.41667 v 0.375 l 0.83333,1.75 q 0.375,0.91666 0.58333,0.91666 l 1.33334,-0.375 q 0.58333,-0.16666 0.95833,-0.875 0.33333,-0.16666 1.16666,-1 0.25,-0.66666 0.79167,-0.66666 z"
         id="path13966"
         style="fill:url(#linearGradient15234)" />
      <path
         d="m 357.18352,600.29043 0.875,-0.70833 q 1,-0.0833 1.08333,-1.04167 0.0833,-0.95833 1.375,-1.66666 l 0.5,-0.70833 q 0.625,-0.625 3.41667,-1.625 0.70833,-0.41667 0.95833,-0.75 0.0833,-0.0833 0.16667,-0.0833 l 0.66666,0.16667 q 0.54167,0 1.375,-0.29167 0.875,-0.29166 1.66667,-0.29166 l 1.75,-0.0833 q 0.16666,0 0.66666,0.25 0.54167,0.25 1.29167,0.25 0.91667,0 1.66667,0.83334 0.79166,0.83333 0.79166,1.54166 0,1.29167 -1.33333,2.625 -1.33333,1.33333 -2.125,1.5 -0.70833,0.70833 -1.08333,0.91667 -0.375,0.16666 -0.79167,0.58333 -0.375,0.375 -0.625,0.375 -0.16666,0 -0.25,-0.0833 -0.0833,-0.125 -0.25,-0.125 -0.66666,0 -1.45833,1.625 l -0.75,-0.0833 q -0.70833,0.45834 -0.91667,1 -0.20833,0.54167 -0.875,0.54167 -1.54166,1.54166 -2.08333,1.54166 -0.0833,0 -0.58333,-0.16666 -0.33334,0.41666 -0.33334,0.875 0,0.5 -0.66666,0.58333 l -0.54167,0.5 -0.41666,-0.0833 -0.83334,0.875 q -0.625,0 -1.29166,0.41666 -0.0833,0.5 -0.25,1.29167 -0.16667,0.75 -0.16667,0.83333 0,1.20834 2.20833,1.20834 l 2,-0.29167 q 0.79167,0 1.45833,-0.41667 0.70834,-0.41666 1.5,-0.41666 0.25,0 0.75,-0.16667 l 0.41667,0.16667 q 0.29167,-0.625 1.08333,-1.125 0.79167,-0.5 1.25,-0.5 l 0.41667,-0.25 q 0.16667,-0.5 0.5,-0.66667 l 0.33333,-0.29167 q 0.33333,-0.33333 0.625,-0.33333 h 0.58333 l 0.16667,-0.0833 q 0.5,-1.08334 1.375,-1.25 0.91667,-0.20834 1.125,-0.625 0.25,-0.41667 0.83333,-0.5 0.58334,-0.0833 0.95834,-0.54167 0.41666,-0.5 1,-0.91666 0.58333,-0.41667 0.79166,-0.625 0.25,-0.20834 0.41667,-0.20834 0.25,0 0.25,0.375 0,0.375 0.16666,0.375 0.16667,0 0.16667,-0.16666 0,-0.16667 -0.0833,-0.41667 v -0.29167 q 0,-0.625 0.66666,-0.83333 l 1.875,-1.20833 q 0.0833,-0.875 0.45834,-1 0.41666,-0.16667 0.625,-0.33334 0.20833,-0.20833 0.45833,-0.20833 0.54167,0 0.54167,0.625 l -0.20834,1.08333 0.20834,1.125 q 0,0.25 -0.41667,0.70834 -0.375,0.41666 -0.58333,1.33333 -0.20834,0.875 -0.54167,0.95833 h -0.25 q -0.75,0.79167 -1.20833,0.95833 -0.41667,0.125 -0.66667,0.5 l -1.41667,1.625 q -0.41666,0.41667 -0.70833,0.75 -0.29166,0.33334 -0.45833,0.33334 l -0.33333,-0.33334 q 0,-0.0833 -0.16667,-0.0833 -0.41667,0 -0.54167,0.5 -0.0833,0.5 -0.41666,0.875 -1.25,0.58333 -1.625,1.08333 l -0.25,0.0833 h -0.75 q -0.54167,0 -0.75,0.83333 -0.20834,0.79167 -1.20834,0.91667 -0.95833,0.12499 -1.37499,0.49999 -0.0833,0.0833 -0.375,0.16667 -0.29167,0.0833 -1.16667,0.66667 l -3.5,1.25 q -0.41667,0.20833 -0.54167,0.20833 l -1.16666,0.16667 q -0.25,0 -0.5,-0.33334 -0.25,-0.33333 -0.33333,-0.33333 l -0.75,0.25 q -0.83334,0.25 -1.58334,0.25 -0.41666,0 -0.91666,-0.29167 -0.5,-0.29166 -0.79167,-0.41666 -1.20833,0 -1.70833,-1.875 l -0.5,0.0833 q -0.16667,0 -1.125,-2.95833 -0.25,-0.33333 -0.79167,-0.45833 -0.54166,-0.16667 -0.54166,-0.83334 0,-1.875 0.79166,-2.5 0.83333,-0.66666 0.91667,-1 l 0.58333,-2.16666 q 0.16667,-0.125 0.41667,-0.83333 l 0.95833,-1.75 q 0.16667,-0.29167 0.75,-1.45834 z m 8.79166,-2.49999 -0.5,0.25 q -0.16666,0.0833 -1,0.74999 -0.79166,0.625 -1.58333,1.04167 -0.75,0.375 -1.58333,2.04167 -0.79167,1.66666 -0.79167,1.91666 0,0.25 0.25,0.25 l 1.41667,-0.625 q 0.79166,-0.375 1.45833,-0.95833 0.70833,-0.58333 2,-1.41667 l 0.33333,-0.33333 q 0.0833,-0.16667 0.75,-0.58333 0.70834,-0.45834 1.04167,-0.875 l 0.41667,-0.16667 q 0.70833,-1.125 1.41666,-1.375 0.75,-0.25 0.75,-0.5 0,-0.5 -0.79167,-0.5 -0.33333,0 -0.99999,0.41667 h -0.95834 q -0.16666,0 -0.91666,0.5 z"
         id="path13968"
         style="fill:url(#linearGradient15236)" />
      <path
         d="m 410.30849,607.16543 v 0.45833 l 0.0833,0.33334 v 0.16666 q 0,0.0833 -0.16666,0.95834 -0.625,0.66666 -0.70834,1.875 l -0.5,0.75 q 0,0.58333 -0.41666,0.91666 -0.375,0.33334 -0.66667,1.33334 -0.29167,0.99999 -0.70833,2.12499 l -0.95834,2.375 q 0,0.16667 0.16667,0.16667 0.0833,0 0.25,-0.0833 0.20833,-0.0833 0.375,-0.0833 0.16667,0 0.33333,0.0833 0.16667,0.0833 0.25,0.0833 0.0833,0 0.58334,-0.29167 0.54166,-0.29166 1.20833,-0.375 l 1.54167,-0.375 q 0.5,-0.16666 2.04166,-0.16666 l 1.29167,-0.0833 q 1.54166,0 3.08333,0.79167 1.58333,0.79167 1.95833,1.66667 0.41667,0.875 0.41667,2.83333 0,1.54166 -1.04167,1.54166 -0.625,0 -1.625,-0.79166 -0.95833,-0.79167 -1.33333,-2 -0.375,-1.20833 -1.20833,-1.20833 l -1.04167,-0.33334 -0.58333,0.16667 h -0.16667 q -0.16667,0 -0.75,-0.25 h -0.125 l -1.25,0.33333 h -1.70833 l -0.79167,0.41667 q -0.58333,0.16667 -1.29166,0.25 -0.66667,0.0833 -1.20834,0.33333 -0.54166,0.25 -0.54166,0.45834 0,1.29166 -1.125,2.20833 -0.41667,0.66666 -0.45833,1.04166 -0.0417,0.41667 -0.5,0.875 -0.41667,0.5 -0.91667,1.5 l -0.33333,0.58334 q -0.16667,0.25 -0.16667,0.41666 0,0.0833 0.0833,0.33334 v 0.375 q 0,1.16666 -1.375,2.20833 v 0.41666 q 0,0.33334 -0.66666,0.95834 l 0.16666,0.83333 q 0,0.16667 -0.45833,0.66667 -0.45833,0.54166 -0.79167,1.16666 -0.29166,0.66667 -1.16666,1.16667 v 0.25 l 0.25,0.5 q 0.125,0 0.125,0.16667 0,0.29166 -0.625,0.87499 -0.16667,0.66667 -0.58334,1.29167 l -1.70833,2.29167 q -0.41666,0.58333 -0.41666,0.91666 l -0.29167,0.79167 q -0.45833,0.375 -0.66667,0.75 -0.16666,0.41667 -1.08333,1.58333 -0.91667,1.16667 -1.20833,1.16667 0.25,0.5 0.25,0.58333 0,0.5 -0.66667,1.20833 -1.08333,0 -1.08333,0.45834 l 0.20833,0.83333 q 0,0.16667 -0.45833,0.5 -0.45834,0.33333 -0.75,0.33333 h -0.58333 l 0.16666,0.75 q -0.16666,0.45834 -0.5,0.625 -0.33333,0.16667 -1.125,0.95834 -0.75,0.83333 -1.08333,0.99999 l -0.54167,0.33334 -1.625,0.16666 q -0.66666,-0.20833 -2.58333,-1.37499 -1.875,-1.16667 -2.125,-2.20834 -0.29166,-1 -0.29166,-2.875 0,-0.20833 0.41666,-0.70833 l 0.0833,-0.33333 v -0.79167 q 0,-0.0833 0.41666,-1.5 0.41667,-1.375 0.70834,-1.54166 0.29166,-0.125 0.91666,-1.625 0.625,-1.5 0.95833,-1.95834 l 3.83334,-5.62499 q 0,-0.54167 0.16666,-0.70834 h 0.25 q 0.33334,0 0.45834,-0.25 0.125,-0.20833 0.375,-0.5 0,-0.79166 0.70833,-1.29166 0.75,-0.5 1.04166,-1.125 0.33334,-0.58333 0.75,-1.08333 l 0.0833,-0.25 q 0.16666,-0.16667 0.70833,-0.41667 0.58333,-0.20833 0.66667,-0.625 l 1.41666,-1.375 q 0.20834,-0.16667 0.66667,-0.41667 0.45833,-0.25 0.95833,-0.91666 l 0.29167,-0.125 h 0.25 l 0.16667,-0.0833 q 0.5,-1.08333 1,-1.16666 0.54166,-0.0833 0.70833,-0.25 -0.0417,-1.29167 1.45833,-1.29167 0.33333,0 0.5,-0.16666 l 1,-0.79167 q 0.20833,-0.16667 0.79167,-1.625 v -0.0833 l 0.75,0.20833 0.0833,-0.20833 -0.16667,-0.91667 q 0.125,-0.16667 0.5,-1.125 0.375,-1 0.70834,-1.16667 0.33333,-0.16666 0.33333,-0.375 v -0.5 l -0.0833,-0.5 0.16666,-0.33333 v -0.54167 l 0.0833,-0.16666 q 0.20833,-0.20833 0.5,-1.54167 0.16666,-0.16666 0.45833,-0.33333 l 1.875,-5.29167 q 0.0833,-0.20833 0.25,-1.08333 l 0.33333,-0.45833 q 0.5,-1.33333 0.5,-1.70833 0,-0.16667 -0.16667,-0.16667 -0.16666,0 -0.75,0.5 -0.58333,0.45833 -0.875,0.45833 l -0.66666,-0.16666 h -0.16667 q -0.25,0 -0.70833,0.41666 -0.41667,0.41667 -0.5,0.41667 l -0.5,0.0833 q -0.41667,0.70834 -0.75,0.79167 l -1.04167,0.66666 h -0.0833 l -0.58333,-0.41666 q 0,-0.0833 -0.20834,-0.0833 -0.16666,0 -0.5,0.99999 l -1.29166,0.625 q -0.41667,-0.0833 -0.5,-0.0833 -0.41667,0 -0.79167,0.79167 -0.375,0.75 -1,0.83333 -0.33333,0.375 -1.54166,0.58333 l -2.45834,1.70834 q -0.41666,0.16666 -0.58333,0.41666 -0.875,0.0833 -1.625,0.95834 l -1.125,-0.0833 q -0.41666,0 -0.83333,0.54167 -0.375,0.54167 -0.79167,0.54167 h -0.25 l -0.5,-0.0833 -1.375,0.33333 q -0.58333,0 -1.79166,-0.87499 -1.20834,-0.91667 -1.20834,-1.58334 l -0.25,-1.875 q 0,-0.0833 0.33334,-0.58333 0.33333,-0.5 0.33333,-0.70833 0,-0.0833 -0.0833,-0.33334 v -0.33333 q 0,-1.45833 1.04166,-3.5 v -0.16666 q 0,-0.16667 -0.25,-0.16667 -0.54166,0 -0.91666,0.91667 -0.375,0.875 -0.875,1.24999 -0.5,0.375 -0.75,0.625 -0.20833,0.25 -0.375,0.25 -0.25,-0.16666 -0.58333,-0.25 -0.0833,-0.0833 -0.29167,-0.5 -0.20833,-0.41666 -0.625,-0.66666 -0.45833,-0.29167 -0.45833,-0.95833 0,-0.45834 1.20833,-1.20834 l 0.5,-0.5 q 1.91666,-1.91666 2.58333,-2.04166 l 0.25,-0.58334 q 0.58333,-0.45833 1.41667,-1.25 0.875,-0.83333 1.54166,-1.16666 l 2.25,-1.95833 q 1,-0.91667 2.75,-0.91667 1.33333,0 1.33333,1.70833 0,1.70833 -0.625,2.66667 -0.58333,0.91666 -0.75,1.70833 -0.125,0.75 -1.08333,2.04167 -0.95833,1.25 -1.16666,1.875 -0.20834,0.58333 -0.875,1.66666 -0.625,1.04167 -0.625,1.875 0,0.41667 0.5,0.41667 0.70833,0 1.79166,-0.75 l 0.375,-0.16667 q 0.41667,-0.16667 0.83333,-0.41667 l 1.04167,-0.45833 q 0.29167,-0.625 0.91667,-0.83333 l 0.79166,-0.41667 q 0.58334,-0.25 1.41667,-0.625 0.875,-0.41666 1.125,-0.79166 0.25,-0.375 0.625,-0.58334 0.41667,-0.25 0.91666,-0.75 1.08334,0 3,-1.875 1.91667,-1.125 3.58334,-2.20833 1.66666,-1.125 2.20833,-1.625 0.25,-0.16666 0.875,-0.45833 0.66666,-0.29167 1.45833,-0.91667 0.83333,-0.66666 2.08333,-0.66666 1.08334,0 2.08334,0.83333 0.99999,0.79167 0.99999,1.58333 l -0.0833,2 q 0,1.91667 -1.04166,3.25 -0.25,1.66667 -0.58334,2.29167 l 0.0833,0.95833 q 0,0.25 -0.91667,0.83333 z m -19.74999,31.91665 0.20833,-0.58333 q 0.0833,-0.29167 0.58333,-0.58333 0.41667,-1.79167 1.125,-2.33333 0,-0.91667 0.0833,-1.04167 l 0.58333,-0.54167 1.625,-2.75 q 0.25,-0.58333 0.54167,-1.125 0.29166,-0.49999 0.45833,-0.99999 0,-0.58334 1.375,-2.29167 v -0.29167 q 0,-0.58333 -0.25,-0.58333 -0.25,0.29167 -0.83333,0.58333 l -2.66667,2.25 q -0.20833,0.16667 -1.125,1.33333 l -0.79167,0.83334 q -0.66666,0.70833 -1.04166,0.875 -0.33334,0.20833 -0.875,1.20833 -0.5,1.04167 -0.875,1.04167 h -0.16667 q -0.0417,0 -0.41666,-0.20834 -0.25,0.125 -0.25,0.375 l 0.25,1 q 0,0.16667 -0.33334,0.5 -0.33333,0.375 -0.58333,0.79167 -0.20833,0.41667 -0.45833,0.5 -0.25,0.0833 -0.91667,1.54166 l -0.79167,0.41667 q -0.125,2.45833 -1.54166,3.95833 -0.33334,0.66667 -0.54167,1.29167 -0.20833,0.66667 -0.375,0.83333 -0.25,1.54167 -0.875,1.79167 -0.16667,0.0833 -0.16667,0.25 0,0.25 0.375,0.5 l 0.16667,0.16666 q -0.54167,1.625 -0.54167,2.41667 0,0.16667 0.16667,0.16667 l 1.25,-0.625 q 1.33333,-0.625 1.79167,-1.58334 l 0.66666,-1.29166 q 0.16667,-0.25 0.58334,-0.33334 0.25,-0.87499 0.79166,-1.12499 0.58334,-0.25 0.58334,-0.66667 0,-0.41667 1.54166,-2.875 1.58333,-2.45833 1.66667,-2.79167 z"
         id="path13970"
         style="fill:url(#linearGradient15238)" />
    </g>
    <path
       d="m 168.21375,151.98518 0.26021,-0.10431 1.17175,-0.0824 q 0.52078,-0.0352 1.51895,-1.31267 0.0866,-0.0922 2.30015,-0.97996 l 0.17361,-0.1844 q 0.60758,-0.55953 0.86795,-0.75009 l 0.82461,-0.0578 q 0.0866,-0.008 0.69435,-0.43641 0.60758,-0.47338 2.56056,-1.12745 1.99636,-0.65716 2.60394,-1.04438 0.26021,-0.10432 1.90951,-0.3926 l 1.21521,-0.30081 0.95476,0.0195 q 2.30015,-0.16174 3.29833,2.78308 0,0.17229 0.2169,0.54464 0.21691,0.32934 0.21691,0.50158 0,1.8089 -1.77936,3.9151 l -0.60759,1.63625 q 0,0.086 -0.47736,0.67959 -0.43401,0.59038 -0.78119,1.39005 -0.34721,0.75654 -1.86617,2.37073 -0.26021,0.53514 -0.73777,1.68844 -0.47739,1.1103 -0.82457,1.47925 -0.30391,0.36607 -1.69256,2.70307 -1.34536,2.33412 -1.34536,2.72175 -0.651,0.51951 -0.91137,1.65763 -0.21691,1.13502 -0.86799,2.17136 l -0.0866,0.30746 q 1.38877,-0.57136 1.38877,-1.60501 0,-0.12931 0.73777,-0.6979 l 0.34721,-0.62733 q 0.52078,-0.63958 0.91138,-0.75315 0.0866,-0.35082 0.91137,-1.05466 0.82458,-0.74705 1.08495,-1.02376 0.30391,-0.27972 0.95479,-0.58391 0.65097,-0.3473 1.47558,-2.25715 0.0866,-0.35083 0.65097,-0.60566 0.60758,-0.25784 0.99817,-0.75924 0.39052,-0.54428 0.65097,-0.73485 l 0.34721,-0.5412 q 0.4774,-0.46428 0.65097,-0.56261 l 2.12654,-2.73358 q 1.69257,-1.19566 1.86617,-1.81082 l 0.34722,-0.11055 0.26021,-0.0195 q 0.69438,-0.6087 0.91137,-0.83928 0,-1.29208 0.95476,-1.74678 0.99818,-0.50085 1.43216,-1.09123 0.43401,-0.63347 0.95479,-0.67009 0.13031,-0.008 0.4774,0.22504 l 0.0866,-0.008 q 0.1303,-0.008 0.26021,-0.449 v -0.43067 q 0,-0.73216 0.43398,-1.23645 0.43401,-0.50424 1.17178,-0.68532 0.73777,-0.22425 1.43216,-1.22042 0.69438,-0.9963 1.56238,-1.10038 0.91137,-0.10704 1.21516,-0.77451 0.30391,-0.66738 1.86614,-1.50932 1.56238,-0.88503 1.95297,-0.95555 0.39052,-0.11369 0.69435,-0.30707 0.34721,-0.19651 0.69439,-0.22112 0.43401,-0.0312 1.25858,0.16995 l 0.78119,0.11719 q 0.99814,0.3606 1.86614,1.46241 l 0.43397,0.4002 v 0.17229 l 0.0866,0.72607 v 0.34458 q 0.5642,0.21877 0.5642,0.4772 l -0.30391,0.58125 q -0.17361,0.3137 -0.17361,0.74435 0,0.38754 -0.0433,0.82139 -0.0433,0.39067 -0.1303,0.7844 -0.0433,0.3477 -0.17361,0.70129 -0.0866,0.30746 -0.21691,0.6182 -0.1303,0.26761 -0.30391,0.5382 l -0.34721,1.40259 q -0.17361,0.83053 -0.95476,2.04826 -0.73777,1.17167 -0.86799,1.65454 -0.1303,0.43986 -0.60759,1.24864 l 0.0866,0.25237 v 0.60297 q 1.34539,-0.26684 1.34539,-1.12819 0,-0.90445 1.08495,-1.41139 l 0.95479,-0.84233 q 1.12837,-2.06049 2.77751,-2.77933 0,-0.68911 0.82461,-1.47924 l 1.64914,-1.66639 1.17175,-0.72837 q 0.78119,-1.64844 1.77937,-2.06314 l 0.95479,-0.67005 q 0.86796,-0.49169 0.95476,-0.88542 0.13031,-0.43986 0.69439,-0.91019 0.5642,-0.47033 1.64914,-1.53714 l 0.34722,-0.19651 0.43397,-0.46116 q 0.4774,-0.29183 1.08498,-0.50693 l 0.34722,-0.19651 q 1.08498,-0.89452 1.95297,-1.21394 0.86796,-0.36254 1.95294,-1.08479 l 1.51896,-0.3219 q 0.52078,-0.20901 0.69438,-0.22113 4.1229,-0.28988 4.1229,4.31866 l -0.0866,0.69521 0.0866,2.49191 q -1.08498,1.84206 -1.08498,1.92821 l 0.0866,0.76915 q 0,0.17229 -0.56417,1.0733 -0.5642,0.85796 -0.69438,1.03939 -0.0866,0.17853 -0.78119,0.95934 l -0.43402,1.32255 q -0.21691,0.44594 -0.73777,0.87018 v 0.51682 q 0,0.64602 -1.69256,2.05706 -0.21691,1.13502 -0.78115,1.73459 -0.52078,0.55342 -0.82457,1.17772 -0.26022,0.5782 -0.868,1.13772 0,0.55991 -0.73777,1.94688 -0.7378,1.38701 -1.17178,1.80511 -0.39052,0.37192 -0.82457,1.30696 l -0.39052,0.19963 q -0.26021,1.65493 -0.60758,1.89469 l -0.69439,-0.0391 v 0.17228 q 0,0.086 0.17361,0.28909 0.1736,0.20315 0.1736,0.46155 0,0.30159 -0.26021,0.53514 -0.26021,0.23362 -0.30391,0.45206 -0.0433,0.21838 -0.21691,0.4459 -0.1303,0.22464 -0.17361,0.87359 -0.0433,0.60602 -0.65096,1.72545 -0.60758,1.11944 -0.65101,1.51011 -0.0433,0.39068 -0.1303,0.65516 -0.0866,0.26449 -0.0866,0.52292 0,0.25823 -0.21691,1.3504 0.82458,1.88015 1.17175,2.54484 0.34721,0.66474 0.34721,0.88007 0,1.72276 -0.43401,2.35624 -0.43398,0.59038 -2.12655,0.70934 -1.08494,0.0762 -1.90955,-0.598 -0.78115,-0.72032 -1.38873,-0.67763 v -0.77525 l -0.0866,-0.0801 -0.69439,0.0489 q -0.0866,-0.0801 -0.39051,-0.27387 -0.26061,-0.1969 -0.52078,-0.56639 l -0.26022,-0.24026 q -0.34721,-0.40627 -0.60758,-1.37857 l -0.26021,-0.84308 0.0866,-0.69521 -0.0866,-1.07064 q 0,-0.43067 0.0866,-0.6952 l 0.0866,-1.16897 q 0,-0.17229 0.17361,-0.74435 0.1736,-0.61516 0.21691,-1.39346 0.0433,-0.82135 0.39051,-1.27644 0.34722,-0.4551 0.39052,-0.75963 0.0433,-0.30434 0.21691,-0.48901 0.21691,-0.23049 0.34721,-1.01496 0.13031,-0.7844 0.91138,-1.31306 0.43397,-0.80576 0.73777,-1.5162 0.91137,-1.31306 0.95479,-1.31611 l 0.60759,-0.0425 q -0.43402,-0.48631 -0.43402,-0.57246 0,-1.16287 0.91141,-1.22691 0.17361,-0.0117 0.43398,0.0555 l 0.17361,-0.3567 -0.17361,-0.71996 q 0,-0.73216 1.12837,-1.54363 0,-1.24898 1.17174,-2.32193 l -0.0866,-0.68301 q 0.26022,-0.2766 0.73781,-1.17164 0.4774,-0.93801 1.21517,-1.89429 l 1.34535,-2.11879 0.60759,-0.7318 q 0,0.0429 0,0.0429 0.0433,-0.0461 0.0866,-0.17853 0.0866,-0.17854 0.17361,-0.48597 l 0.26021,-0.66434 0.30391,-0.36605 q 1.12836,-0.38091 1.12836,-0.85457 0,-0.086 -0.34721,-0.53549 v -0.17228 q 0,-0.34458 0.52082,-0.89801 0.52078,-0.55342 0.95476,-1.48835 0.47736,-0.9811 0.47736,-1.19643 0,-0.17229 -0.17361,-0.16018 -1.38877,0.0977 -1.86617,1.1217 0,0.25824 -1.69253,1.1526 l -0.43401,0.67654 q -0.52078,0.51036 -0.91138,0.53783 -0.39051,0.0274 -1.04156,0.59 -0.60758,0.51647 -2.73412,2.43174 -2.12655,1.87219 -3.12473,3.06214 l -0.99817,0.75923 q -0.60759,0.34419 -0.60759,0.51648 0,0.43068 -0.73777,1.17163 l -0.52078,0.68262 q -0.60758,-0.17268 -0.69438,-0.16643 -0.4774,0.0352 -0.82457,0.53171 0.34721,0.32035 0.34721,0.4063 0,0.68911 -1.30197,1.51277 l -1.86613,2.06924 q -0.0866,0.0922 -0.65101,0.51952 -0.5642,0.42724 -0.86799,1.05158 -0.26021,0.57819 -1.51896,2.131 -1.25855,1.50972 -1.47554,1.65415 -0.21691,0.10158 -0.52078,0.59648 -0.30391,0.49514 -1.25859,1.42361 -0.95475,0.92848 -1.08494,1.97127 -0.82461,0.35941 -0.82461,0.57479 l -0.26021,0.44896 -0.34722,0.1969 q -0.0866,0.17815 -0.1303,0.61211 -0.0433,0.39068 -1.73595,1.58633 -1.69256,1.1526 -2.12654,1.18308 -0.1303,0.008 -0.39051,0.19964 -0.26022,0.19064 -0.34722,0.1965 -0.1303,0.008 -1.17174,-0.43446 -0.99818,-0.4467 -1.47558,-2.30818 l 0.34721,-1.14421 -0.1736,-0.89225 q 0,-0.25824 0.39051,-0.71655 0.43398,-0.46119 0.43398,-1.10724 0.69439,-1.59926 1.04156,-2.2697 l 0.0866,-0.6952 q 0.1736,-0.44286 0.5642,-0.98716 0.43397,-0.59041 0.52078,-1.24253 0.0866,-0.69521 0.5642,-0.90101 0.4774,-0.20588 3.51528,-5.45841 V 156.054 l 1.25858,-2.24188 q 0.56421,-0.98719 1.38878,-2.25106 l 0.39051,-1.01802 q -1.34539,-0.42231 -1.43215,-0.41618 -0.26021,0.0195 -0.65101,0.39028 0,0.73216 -2.56052,1.68736 -0.52078,0.29496 -1.34539,1.34353 l -1.21516,0.77451 q -0.26022,0.19065 -0.82458,0.74704 l -0.60758,0.60262 q -1.08498,0.33481 -1.86613,1.33708 l -1.17179,0.90062 q -0.52078,0.46732 -0.69438,0.69485 -0.17361,0.22777 -1.60577,1.06037 l -0.69438,0.7379 -0.65097,0.39028 q -0.69438,0.781 -1.0416,1.3222 -0.34721,0.54124 -0.91137,0.66699 l -0.95476,0.4117 q -0.26021,1.13807 -1.60576,2.26626 l -1.25855,1.63895 q -0.34721,0.32582 -0.60758,0.51643 -0.17361,0.44291 -0.60759,0.64567 -0.5642,0.72876 -0.73781,0.99937 l -0.52078,0.4242 q -1.17174,0.51307 -1.17174,0.77147 l 0.0866,0.76915 q 0,0.47377 -1.0416,0.97762 -0.43398,0.24574 -0.52078,0.72572 -0.0433,0.47682 -0.30391,1.01192 l -0.78119,0.055 q -0.13031,0.008 -0.82458,0.48861 -0.0866,0.008 -0.1736,0.0985 l 0.1736,0.9784 q 0,0.51683 -0.69438,1.25473 -0.69435,0.69482 -1.08495,1.2391 -0.34721,0.54124 -0.52082,0.55343 l -0.26021,0.0195 -0.26021,0.19065 q 0.0433,0.81526 -1.08498,1.84207 l -0.52078,0.68262 q -0.26022,0.23362 -1.47554,2.25715 -1.21517,2.0235 -2.30015,3.30569 -1.08498,1.28215 -1.99636,1.7769 -0.91137,0.45166 -1.95293,0.95555 l -1.77937,-0.21956 q -0.26021,-0.45545 -0.78115,-0.72033 -0.4774,-0.26799 -0.4774,-0.61249 l -0.52082,-1.47081 q 0,-0.60297 0.4774,-1.49792 0.4774,-0.93797 0.5642,-1.41783 0.1303,-0.52601 0.52078,-1.37174 0.39052,-0.88886 0.39052,-0.975 0,-1.16284 0.34721,-1.44565 0.39052,-0.32894 1.69257,-1.41099 0.0866,-0.008 0.0866,-0.17854 v -0.086 l -0.0866,-0.7261 q 0.99817,-1.74984 1.25858,-1.76811 0.0866,-0.008 0.34722,0.0617 l -0.26022,-0.92922 q 0,-0.17228 0.4774,-0.59347 0.4774,-0.42115 0.73781,-0.9132 l -0.17361,-0.50464 v -0.17216 q 0,-0.8183 1.08499,-1.75591 0.1736,-0.3567 0.69434,-1.81465 l 1.12841,-2.06045 q 0.43397,-0.84881 0.91137,-1.14077 0.47736,-0.33519 0.52078,-0.72571 0.0433,-0.39067 0.30391,-0.88273 0,0.21526 0.0433,0.0399 0.0866,-0.22151 0.21691,-0.87663 0.17361,-0.65825 0.99818,-1.10381 0.99818,-2.61122 1.56234,-2.65088 0.17361,-0.0117 0.4774,0.13869 l 0.17361,-0.0117 q 0.69439,-0.0489 0.69439,-0.56563 0,-0.17229 -0.17361,-0.16017 -0.39052,0.45811 -0.69439,0.47947 -0.30391,0.0195 -0.30391,-0.1508 0,-0.086 0.13031,-0.18127 l 0.95479,-2.00521 0.0866,-0.8244 q 0.1736,-0.27074 0.69439,-0.82405 l 0.73776,-1.04243 v -0.43068 q 0,-0.086 0.39052,-0.88882 0.39052,-0.84577 0.5642,-1.63321 l 0.73777,-1.12858 q 0.17361,-0.52901 0.17361,-0.95973 0,-0.64602 -0.17361,-0.63383 l -2.51714,0.65063 q -2.03974,1.17702 -2.90773,1.84097 l -0.99818,0.28558 q -0.0866,0.008 -1.17174,0.68529 -1.04156,0.63312 -1.86617,0.7772 -0.78116,0.0981 -1.38874,0.70056 l -0.17361,0.0985 -0.82461,0.0578 q -0.47736,0.59347 -0.65096,0.90713 -0.17361,0.27075 -0.30391,0.27973 -4.38327,3.19364 -5.55506,3.87896 -1.17174,0.68532 -1.77936,1.24484 -0.60759,0.51647 -1.04157,0.76228 v 0.51687 q 0,0.73216 -1.08498,1.75592 -1.04156,0.97765 -1.82275,1.03254 -0.26021,0.0195 -0.82457,-0.20041 -0.52078,-0.26488 -1.21517,-0.30238 -0.65096,-0.0403 -0.65096,-1.59086 0,-2.19652 3.6455,-4.26159 0.56416,-0.29808 1.04156,-0.67618 0.4774,-0.37816 3.86249,-1.9511 l 1.25859,-0.69145 q 0.43397,-0.46115 1.43215,-0.87585 1.04156,-0.46084 1.60576,-0.75888 0.60759,-0.30121 0.95476,-0.41166 z m 40.70813,7.56203 0.43401,-0.80576 v -0.086 q 0,-0.086 -0.1736,-0.0739 -0.43398,0.0312 -0.69439,0.91015 0.0866,0.25237 0.17361,0.24612 0.1736,-0.0117 0.26021,-0.19065 z"
       style="font-size:85.3333px;-inkscape-font-specification:'Rage Italic, ';letter-spacing:0px;word-spacing:0px;display:inline;fill:#ffff00;stroke-width:1.03761"
       id="path7354" />
    <path
       d="m 256.09648,177.42205 -2.03974,1.90914 q -0.17361,-0.16017 -0.34721,-0.14767 -0.43398,0.0312 -1.08495,0.85151 -0.60762,0.81791 -0.86799,0.83624 l -0.43398,-0.0554 q -1.08498,0.89457 -1.56238,1.05732 -0.47739,0.16291 -1.17174,0.55613 -0.65101,0.39028 -1.21517,0.47298 -0.52082,0.0797 -0.86799,0.44865 -0.34722,0.32583 -1.69257,0.4204 l -0.69438,-0.0391 q -0.56417,0.29809 -0.73777,0.31019 -0.34722,0.0234 -0.73777,-0.29262 -0.39052,-0.36019 -0.86799,-0.36957 -0.43398,-0.0117 -0.91138,-0.53893 -0.4774,-0.52636 -0.91137,-0.71119 -0.39052,-0.18791 -0.65101,-0.55721 l -0.60758,-0.47417 q -0.73777,-0.46497 -1.43216,-1.79436 -0.69435,-1.32942 -0.69435,-2.10467 v -0.17229 l 0.0866,-0.82439 -0.0866,-0.94141 q 0.17361,-0.1844 0.43398,-0.76268 v -1.37821 l 1.04156,-3.51872 q 0.0866,-0.22152 -0.34721,-0.5355 -0.43402,0.67653 -0.86799,0.83623 -0.43398,0.15979 -0.60759,0.64567 -0.1303,0.48292 -0.4774,0.50733 l -0.52078,-0.13556 q -0.0866,0.0922 -0.39051,0.93188 -0.30391,0.79658 -1.04156,0.84841 -0.78119,0.055 -0.78119,-0.54803 l 0.0866,-0.78135 -0.26021,-1.05845 q 0,-0.34457 0.69439,-1.38392 0.69438,-1.08244 1.25855,-1.25133 0.60758,-0.21487 0.99817,-0.88843 0.43398,-0.71962 1.82275,-1.76471 0.78119,-0.22737 1.34536,-1.21433 0.60758,-0.51647 1.56238,-0.88507 0.99818,-0.37153 1.47557,-0.96504 0.52078,-0.63958 2.95112,-2.01631 2.47371,-1.42283 3.60208,-1.50214 0.34721,-0.0234 0.95479,-0.23948 0.60759,-0.25785 1.12837,-0.42385 0.52078,-0.20901 1.08498,-0.54998 0.56416,-0.38442 0.91137,-0.40861 l 1.25855,0.34223 q 1.38878,0.28988 1.69257,0.44095 0.0866,0.0801 0.86799,0.32661 0.82457,0.20041 1.64915,0.61629 0.86799,0.41274 0.86799,1.70482 -0.73781,1.12857 -0.73781,1.21472 0,0.17229 0.99818,0.44669 0.34721,0.62165 1.0416,1.60649 l 0.47736,1.47386 0.0866,3.52556 -0.0866,0.35082 q -0.47736,0.46423 -0.47736,0.59343 l 0.1303,0.85226 -0.34721,1.2303 q -0.1303,0.56906 -0.43398,0.76268 -0.30391,0.19377 -0.39051,0.45814 l -0.26022,0.36293 q -0.0866,0.13518 -0.39051,0.80268 -0.26022,0.62129 -0.60759,0.99021 -0.34721,0.36879 -0.43401,0.84881 -0.0866,0.47986 -0.43398,0.71962 -0.34721,0.23988 -0.52078,0.51033 -0.1303,0.22464 -0.4774,0.42119 z m -13.49706,2.06827 0.1736,0.9784 0.0866,0.0801 0.69439,-0.0488 0.21691,0.0707 q 0.86799,0.11134 1.30197,0.0808 1.34535,-0.0945 2.12654,-0.79544 0.82457,-0.74709 1.30197,-0.78061 0.4774,-0.0352 0.78119,-0.70095 0.34721,-0.67043 0.43398,-0.67653 l 0.60758,-0.0425 0.17361,-0.0985 q 0,-0.9906 0.86795,-1.48229 0.91138,-0.49472 1.25859,-1.20824 0.39051,-0.75959 0.86795,-1.13772 0.4774,-0.42115 0.65101,-1.03634 l 0.34721,-0.5412 q 0.17361,-0.1844 0.17361,-0.65825 l 0.82457,-1.60844 q 0.26021,-1.09502 0.26021,-1.69798 0,-0.90445 -0.9548,-1.3542 -0.91137,-0.45279 -0.91137,-1.96016 0,-0.99059 0.99818,-1.87906 1.04156,-0.93457 1.04156,-1.10685 0,-0.25824 -0.26021,-0.24027 -0.13031,0.008 -0.99818,0.4147 -0.30391,0.6243 -3.0813,1.81006 -0.91138,-0.36645 -0.99822,-0.36059 -0.26021,0.0195 -0.52078,0.55343 -0.26021,0.53515 -0.52078,0.76881 l -0.56416,0.0395 q -0.0866,0.008 -0.5642,0.59958 -0.4774,0.59343 -1.21517,0.64527 l -0.52078,0.55343 q 0.0433,0.68606 -0.86799,1.48229 l -0.47736,0.59344 q -0.43402,0.54732 -1.12841,1.28523 l -0.78115,1.99299 q -0.4774,1.15334 -0.4774,1.71325 -0.1303,0.26761 -0.60758,0.60258 -0.43401,0.2891 -0.43401,0.71962 0,0.086 0.3039,0.40935 0.30391,0.32309 0.30391,0.49545 l -0.1736,0.5721 -0.17361,1.60574 z"
       style="font-size:85.3333px;-inkscape-font-specification:'Rage Italic, ';letter-spacing:0px;word-spacing:0px;display:inline;fill:#ffff00;stroke-width:1.03761"
       id="path7356" />
    <path
       d="m 303.83524,170.10493 0.17361,-0.0117 0.43397,0.14181 q 0.0866,-0.008 0.17361,-0.0985 0,-0.7322 0.69439,-1.29781 0.21691,-0.83354 0.95475,-1.31611 0.78119,-0.48556 2.43034,-1.59203 l 1.08498,-1.0238 0.52078,-0.29496 0.34721,-0.45509 q 0.4774,-0.59343 0.91138,-0.62395 0.651,-0.0457 0.651,0.42803 l -0.39051,0.88882 0.1736,1.40907 q 0,0.77527 -0.5642,1.41788 -0.52078,0.63957 -1.64914,1.88172 l -2.21335,2.48125 -1.17178,0.68531 q -0.43398,0.2891 -0.78115,0.65786 l -1.69257,1.54023 q 0,0.60296 -0.39051,0.93191 l -0.69439,0.0489 -0.34721,0.19651 q -0.30391,0.83967 -1.77937,1.71861 l -0.60759,0.47338 q -0.30391,0.27972 -0.5642,0.29808 l -1.21516,-0.0868 -0.82458,0.23011 q -0.34721,0.0234 -0.95475,-0.27738 -0.56421,-0.30473 -1.17179,-0.43447 -0.60758,-0.17267 -1.56234,-1.48378 -0.91137,-1.35724 -0.99818,-1.78182 0,-0.17228 -0.21691,-0.54464 -0.1736,-0.41848 -0.1736,-0.50463 0,-0.086 0.39051,-0.88882 v -0.086 q 0,-0.12931 -0.26021,-0.58468 -0.21691,-0.4585 -0.21691,-1.1476 0,-0.38756 -0.26021,-0.97227 0.34721,-0.3688 0.34721,-0.54124 0,-0.17229 -0.1303,-0.46463 -0.13031,-0.3352 -0.13031,-0.50768 l 0.26022,-2.12867 -0.17361,-1.06454 0.0866,-1.03974 q 0,-0.90445 -0.78119,-0.84956 -0.34722,0.0234 -0.86796,0.53475 l -0.30391,0.10744 q -1.17178,0.64223 -1.64918,1.06341 -0.4774,0.37818 -0.99818,0.4147 -0.26021,0.2766 -0.99814,0.5439 l -0.34721,0.28285 q -0.17361,0.1844 -0.69439,0.56562 0,0.1293 -1.64914,1.58023 -1.60576,1.40494 -2.90773,2.65928 -1.30197,1.25437 -1.90956,1.42627 -0.5642,0.1258 -0.5642,1.11635 0,0.17228 -0.78115,0.744 -0.0866,0.008 -0.91138,1.01156 -0.69438,-0.46802 -0.78119,-0.46192 -0.5642,0.0399 -0.82457,1.47924 -0.26021,0.5782 -1.38877,0.7867 -0.0866,0.0492 -0.30391,0.66734 l -0.17361,0.1844 -0.43397,0.0312 q -0.0866,0.008 -0.60759,0.55953 -0.52078,0.51037 -0.91137,0.66703 -0.5642,1.2025 -0.95476,1.22996 -0.17361,0.0117 -0.52082,-0.13557 -0.30391,-0.1508 -0.78115,-0.24652 -0.4774,-0.0957 -1.08498,-0.95742 -0.5642,-0.90788 -0.5642,-1.5539 0,-4.78064 1.86617,-5.3425 l 0.0866,-0.17854 v -0.34458 q 0,-0.55991 0.47739,-0.80877 0.52078,-0.29496 1.04156,-1.02075 0.52078,-0.76877 0.69439,-0.86709 l 0.56416,-0.0395 q 0.17361,-0.0117 0.17361,-0.91668 0,-0.25824 0.21691,-0.48901 0.21691,-0.2305 0.26021,-0.62125 0.0433,-0.43376 0.60759,-1.37786 0.60758,-0.9902 0.60758,-1.16249 l -0.0866,-0.16603 q -1.08498,1.06681 -1.56238,1.18651 -0.47736,0.11955 -1.30197,1.34048 l -0.69435,-0.0804 q -1.82275,1.46323 -2.25676,1.66602 -0.43398,0.20277 -0.95476,1.05768 0,0.25823 -0.30391,0.36606 -0.30391,0.10744 -1.1284,0.76837 l -0.26021,0.0195 q -1.08499,0.0762 -1.08499,-1.47425 l 0.91138,-2.51898 q 0.39051,-1.19031 1.82275,-2.0662 1.47558,-0.92199 2.47375,-1.72431 0.99818,-0.80233 1.99632,-0.91554 l 0.30391,-0.45206 q 1.47554,-0.66359 1.99632,-1.90613 0.52078,-1.2425 1.43215,-1.30656 2.38696,-0.16761 3.64554,1.50967 1.25855,1.63431 1.25855,2.66795 l 0.0866,1.15678 q 0,0.60297 -0.26021,1.69799 -0.52082,0.81181 -0.52082,1.19945 0,0.34457 0.43401,0.3141 0.26022,-0.0195 0.69439,-0.39334 0.43398,-0.41813 0.95476,-0.75622 0.5642,-0.34106 0.651,-0.56257 0.43398,-1.06416 1.51896,-1.528 1.08494,-0.46388 1.34535,-0.7406 l 0.43398,-0.37505 0.34721,-0.67044 q 1.17175,-0.59917 1.56234,-1.05732 0.39052,-0.45813 1.0416,-0.63308 0.65097,-0.17502 1.47554,-0.87894 l 0.65101,-0.218 0.60754,-0.38715 q 0.0866,-0.0922 0.52082,-0.25199 0.43398,-0.15978 1.25855,-0.51912 0.86799,-0.40556 1.17178,-0.42689 2.21335,-0.15548 3.4719,1.52182 1.30197,1.67436 1.30197,2.7511 l -0.0866,0.78134 0.17361,1.15065 v 0.17229 l -0.34722,2.39319 0.0866,0.81221 q 0,2.02424 -0.86799,2.86047 -0.21691,0.10118 -0.21691,0.44595 v 0.38755 l 0.86799,1.74791 q 0.39052,0.92004 0.60758,0.90481 l 1.38874,-0.48522 q 0.60758,-0.21487 0.99818,-0.97461 0.34721,-0.19652 1.21516,-1.11905 0.26022,-0.7074 0.82458,-0.74704 z"
       style="font-size:85.3333px;letter-spacing:0px;word-spacing:0px;display:inline;fill:#ffffff;stroke-width:1.03761"
       id="path7358" />
    <path
       d="m 317.67947,160.0445 0.91142,-0.79623 q 1.04156,-0.1594 1.12836,-1.15605 0.0866,-0.99668 1.43216,-1.82338 l 0.52078,-0.76877 q 0.65096,-0.69177 3.5587,-1.92978 0.7378,-0.48256 0.99817,-0.84537 0.0866,-0.0922 0.17361,-0.0985 l 0.69439,0.12345 q 0.56416,-0.0399 1.43215,-0.40212 0.91138,-0.36567 1.73595,-0.42349 l 1.82275,-0.21409 q 0.17361,-0.0117 0.69439,0.2098 0.5642,0.21877 1.34535,0.16369 0.9548,-0.0672 1.73599,0.73939 0.82457,0.80341 0.82457,1.53558 0,1.33516 -1.38878,2.81097 -1.38877,1.47581 -2.21334,1.706 -0.73777,0.78403 -1.12836,1.02684 -0.39052,0.19964 -0.82458,0.6609 -0.39051,0.41505 -0.651,0.43338 -0.17361,0.0117 -0.26021,-0.0679 -0.0866,-0.12306 -0.26022,-0.11095 -0.69438,0.0488 -1.51896,1.78643 l -0.78119,-0.0312 q -0.73776,0.52561 -0.95475,1.10076 -0.21691,0.57515 -0.91138,0.62394 -1.60576,1.70643 -2.16996,1.74604 -0.0866,0.008 -0.60758,-0.1297 -0.34722,0.45505 -0.34722,0.92883 0,0.51682 -0.69438,0.65175 l -0.56421,0.55648 -0.43397,-0.0554 -0.868,0.96542 q -0.65096,0.0457 -1.34535,0.52527 -0.0866,0.52287 -0.26061,1.35341 -0.1736,0.78744 -0.1736,0.87358 0,1.24898 2.30015,1.08736 l 2.08312,-0.44787 q 0.82461,-0.0578 1.51896,-0.53745 0.7378,-0.48252 1.56238,-0.54045 0.26021,-0.0195 0.78119,-0.22698 l 0.43397,0.14181 q 0.30391,-0.66738 1.12837,-1.24214 0.82457,-0.5748 1.30197,-0.60836 l 0.43397,-0.2891 q 0.17361,-0.52901 0.52082,-0.72572 l 0.34722,-0.32582 q 0.34721,-0.36879 0.65096,-0.39028 l 0.60759,-0.0426 0.1736,-0.0985 q 0.52078,-1.15636 1.43216,-1.39271 0.95479,-0.28246 1.17178,-0.72838 0.26061,-0.449 0.86796,-0.5778 0.60758,-0.12892 0.99817,-0.63005 0.43402,-0.54732 1.0416,-1.0207 0.60759,-0.47342 0.82458,-0.704 0.26021,-0.23362 0.43397,-0.24573 0.26022,-0.0195 0.26022,0.36919 0,0.38754 0.1736,0.37543 0.17361,-0.0117 0.17361,-0.18439 0,-0.17229 -0.0866,-0.42459 v -0.3016 q 0,-0.64606 0.69439,-0.91019 l 1.95294,-1.38623 q 0.0866,-0.91054 0.47739,-1.0672 0.43398,-0.20276 0.65101,-0.39028 0.21691,-0.2305 0.47736,-0.24887 0.5642,-0.0399 0.5642,0.60637 l -0.21691,1.13507 0.21691,1.1476 q 0,0.25824 -0.43398,0.76268 -0.39051,0.45813 -0.60758,1.42091 -0.21691,0.91968 -0.5642,1.03021 l -0.26022,0.0195 q -0.78115,0.87319 -1.25854,1.07904 -0.43398,0.15978 -0.69439,0.56562 l -1.47558,1.78338 q -0.43398,0.46119 -0.73777,0.82706 -0.30391,0.36606 -0.4774,0.37817 l -0.34721,-0.32035 q 0,-0.086 -0.1736,-0.0739 -0.43398,0.0312 -0.56417,0.55647 -0.0866,0.52293 -0.43401,0.93497 -1.30193,0.69445 -1.69253,1.23871 l -0.26021,0.1043 -0.78119,0.0547 q -0.56416,0.0395 -0.78115,0.91629 -0.21691,0.83354 -1.25859,1.03595 -0.99818,0.19924 -1.43216,0.61746 -0.0866,0.0922 -0.39051,0.19963 -0.30391,0.10744 -1.21517,0.77451 l -3.6455,1.54827 q -0.43402,0.24574 -0.5642,0.25512 l -1.21517,0.25784 q -0.26021,0.0195 -0.52078,-0.30785 -0.26021,-0.32621 -0.34721,-0.32035 l -0.78115,0.31331 q -0.868,0.31958 -1.64919,0.37427 -0.43397,0.0312 -0.95475,-0.2344 -0.52078,-0.26488 -0.82457,-0.37271 -1.25859,0.0883 -1.77937,-1.81307 l -0.52078,0.12267 q -0.17361,0.0117 -1.17179,-2.97556 -0.26021,-0.32622 -0.82457,-0.4158 -0.56416,-0.13283 -0.56416,-0.82174 0,-1.93813 0.82457,-2.64208 0.86795,-0.7501 0.95476,-1.10077 l 0.60758,-2.28228 q 0.17361,-0.14141 0.43402,-0.8919 l 0.99817,-1.87902 q 0.17361,-0.31372 0.78116,-1.5623 z m 9.15718,-3.22767 -0.52078,0.29496 q -0.17361,0.0985 -1.04156,0.84847 -0.82457,0.70396 -1.64919,1.19261 -0.78115,0.44251 -1.64914,2.22625 -0.82457,1.78072 -0.82457,2.03912 0,0.25823 0.26021,0.24026 l 1.47558,-0.74969 q 0.82457,-0.44557 1.51896,-1.09733 0.73777,-0.65481 2.08316,-1.61075 l 0.34721,-0.3688 q 0.0866,-0.17853 0.78119,-0.65785 0.73777,-0.52561 1.08498,-0.98071 l 0.43398,-0.20276 q 0.73777,-1.21472 1.47558,-1.52499 0.78115,-0.31332 0.78115,-0.57172 0,-0.51682 -0.82458,-0.45888 -0.34721,0.0234 -1.04156,0.50389 l -0.99817,0.0703 q -0.17361,0.0117 -0.9548,0.5839 z"
       style="font-size:85.3333px;letter-spacing:0px;word-spacing:0px;display:inline;fill:#ffffff;stroke-width:1.03761"
       id="path7360" />
    <path
       d="m 373.01307,163.2624 v 0.47377 l 0.0866,0.33832 v 0.17229 q 0,0.086 -0.17361,1.00278 -0.651,0.73482 -0.73777,1.98994 l -0.52082,0.81185 q 0,0.60297 -0.43398,0.97801 -0.39051,0.37193 -0.69438,1.42702 -0.30391,1.05498 -0.73777,2.24837 l -0.99818,2.52507 q 0,0.17229 0.17361,0.16018 0.0866,-0.008 0.26021,-0.10431 0.21691,-0.10118 0.39052,-0.11368 0.1736,-0.0117 0.34721,0.0617 0.17361,0.0739 0.26021,0.0679 0.0866,-0.008 0.60759,-0.34419 0.5642,-0.34105 1.25858,-0.47607 l 1.60577,-0.50046 q 0.52078,-0.20901 2.12654,-0.32151 l 1.34535,-0.1805 q 1.60576,-0.11291 3.21152,0.59266 1.64915,0.70239 2.03974,1.57941 0.43398,0.87393 0.43398,2.89817 0,1.59356 -1.08494,1.66982 -0.65101,0.0457 -1.69257,-0.69939 -0.99818,-0.74813 -1.38877,-1.96969 -0.39052,-1.22156 -1.25855,-1.16058 l -1.08498,-0.26839 -0.60759,0.21487 -0.1736,0.0117 q -0.17361,0.0117 -0.78119,-0.20354 l -0.1303,0.008 -1.30198,0.43603 -1.77932,0.12502 -0.82462,0.48866 q -0.60758,0.21486 -1.34535,0.35277 -0.69438,0.13479 -1.25855,0.43298 -0.5642,0.29808 -0.5642,0.51343 0,1.33513 -1.17178,2.36501 -0.43398,0.71959 -0.47736,1.11026 -0.0433,0.43373 -0.52082,0.94105 -0.43398,0.54734 -0.95476,1.61759 l -0.34721,0.62734 q -0.17361,0.27074 -0.17361,0.44292 0,0.086 0.0866,0.33831 v 0.38755 q 0,1.20593 -1.43216,2.38331 v 0.43067 q 0,0.34458 -0.69438,1.03939 l 0.1736,0.84921 q 0,0.17228 -0.4774,0.72263 -0.47739,0.59343 -0.82457,1.26387 -0.30391,0.71047 -1.21516,1.29133 v 0.25862 l 0.26021,0.49854 q 0.1303,-0.008 0.1303,0.1633 0,0.3016 -0.651,0.9502 -0.17361,0.7013 -0.60759,1.37783 l -1.77936,2.49386 q -0.43398,0.63344 -0.43398,0.97801 l -0.30391,0.83968 q -0.4774,0.42114 -0.69439,0.82401 -0.1736,0.4429 -1.12836,1.71592 -0.95476,1.27304 -1.25855,1.29437 0.26021,0.49854 0.26021,0.58469 0,0.51682 -0.69438,1.29781 -1.12837,0.0793 -1.12837,0.55304 l 0.21691,0.84612 q 0,0.17229 -0.47736,0.55038 -0.4774,0.37817 -0.78119,0.39943 l -0.60758,0.0425 0.17361,0.76307 q -0.17361,0.48595 -0.52078,0.68261 -0.34722,0.19652 -1.17175,1.07295 -0.78119,0.91629 -1.12836,1.11296 l -0.56421,0.38402 -1.69256,0.29105 q -0.69439,-0.16642 -2.69074,-1.23222 -1.95294,-1.06869 -2.21331,-2.1271 -0.30391,-1.01231 -0.30391,-2.9504 0,-0.21527 0.43402,-0.76271 l 0.0866,-0.35044 v -0.8183 q 0,-0.086 0.43398,-1.58098 0.43402,-1.45179 0.73777,-1.6454 0.30391,-0.15041 0.95479,-1.74678 0.65097,-1.59625 0.99818,-2.0944 l 3.99268,-6.09489 q 0,-0.55992 0.1736,-0.74439 l 0.26022,-0.0195 q 0.34721,-0.0234 0.47736,-0.29184 0.1303,-0.22464 0.39051,-0.54428 0,-0.81831 0.73781,-1.38701 0.78115,-0.57171 1.08494,-1.2391 0.34722,-0.62735 0.78119,-1.17468 l 0.0866,-0.26448 q 0.17361,-0.1844 0.73777,-0.48252 0.60758,-0.25824 0.69438,-0.69486 l 1.47558,-1.52495 q 0.21691,-0.18752 0.69439,-0.47951 0.47736,-0.29183 0.99814,-1.01763 l 0.30391,-0.15041 0.26021,-0.0195 0.17361,-0.0985 q 0.52078,-1.15639 1.04156,-1.27911 0.5642,-0.12579 0.7378,-0.31019 -0.0433,-1.33208 1.51896,-1.4419 0.34722,-0.0234 0.52078,-0.20901 l 1.04156,-0.89152 q 0.21691,-0.18752 0.82458,-1.73763 v -0.086 l 0.78119,0.16056 0.0866,-0.2215 -0.1736,-0.93535 q 0.1303,-0.18128 0.52078,-1.19945 0.39051,-1.06111 0.73776,-1.25777 0.34722,-0.19651 0.34722,-0.41201 v -0.51682 l -0.0866,-0.51076 0.17361,-0.3567 v -0.55991 l 0.0866,-0.17854 q 0.21691,-0.23049 0.52078,-1.63016 0.17361,-0.1844 0.4774,-0.37817 l 1.95294,-5.60698 q 0.0866,-0.22152 0.26021,-1.13812 l 0.34721,-0.49815 q 0.52078,-1.41478 0.52078,-1.80241 0,-0.17229 -0.1736,-0.16017 -0.17361,0.0117 -0.78119,0.57171 -0.60759,0.51647 -0.91138,0.5378 l -0.69438,-0.12345 -0.17361,0.0117 q -0.26021,0.0195 -0.73777,0.48252 -0.43398,0.46119 -0.52078,0.46732 l -0.52078,0.12267 q -0.43402,0.76272 -0.78119,0.87324 l -1.08498,0.76533 -0.0866,0.008 -0.60758,-0.38794 q 0,-0.086 -0.21691,-0.0707 -0.17361,0.0117 -0.52078,1.07025 l -1.34539,0.7406 q -0.43398,-0.0554 -0.52078,-0.0496 -0.43398,0.0312 -0.82457,0.87623 -0.39052,0.80272 -1.04156,0.93457 -0.34722,0.41205 -1.60577,0.71584 l -2.56056,1.94574 q -0.43397,0.20276 -0.60758,0.47339 -0.91137,0.15001 -1.69252,1.10955 l -1.17179,-0.004 q -0.43398,0.0312 -0.86799,0.62089 -0.39052,0.58735 -0.82457,0.61785 l -0.26022,0.0195 -0.52082,-0.0496 -1.43215,0.44522 q -0.60759,0.0425 -1.86613,-0.77334 -1.25859,-0.85906 -1.25859,-1.54816 l -0.26022,-1.91981 q 0,-0.086 0.34722,-0.62739 0.34721,-0.5412 0.34721,-0.75657 0,-0.086 -0.0866,-0.33832 v -0.34458 q 0,-1.50741 1.08495,-3.69406 v -0.17267 q 0,-0.17229 -0.26022,-0.15392 -0.5642,0.0399 -0.95479,1.01461 -0.39052,0.93191 -0.91138,1.35615 -0.52078,0.42419 -0.78115,0.70091 -0.21691,0.27347 -0.39052,0.28597 -0.26021,-0.15393 -0.60758,-0.21565 -0.0866,-0.0801 -0.30391,-0.4955 -0.21691,-0.41544 -0.651,-0.64336 -0.4774,-0.268 -0.4774,-0.95703 0,-0.47376 1.25859,-1.33747 l 0.52078,-0.55343 q 1.99635,-2.12143 2.69074,-2.29946 l 0.26021,-0.62125 q 0.60759,-0.51647 1.47558,-1.39576 0.91138,-0.92543 1.60576,-1.3188 l 2.34353,-2.1889 q 1.04156,-1.02071 2.86431,-1.14882 1.38878,-0.0977 1.38878,1.66821 0,1.76585 -0.65097,2.80219 -0.60758,0.9902 -0.78119,1.82074 -0.1303,0.78439 -1.12836,2.18968 -0.99818,1.36221 -1.21517,2.0235 -0.21691,0.6182 -0.91137,1.78678 -0.65101,1.12249 -0.65101,1.98388 0,0.43068 0.52078,0.39407 0.73781,-0.052 1.86617,-0.90636 l 0.39052,-0.19963 q 0.43398,-0.20277 0.86795,-0.49167 l 1.08498,-0.55002 q 0.30391,-0.6674 0.9548,-0.92848 l 0.82457,-0.48862 q 0.60759,-0.30121 1.47558,-0.74974 0.91137,-0.49471 1.17175,-0.90066 0.26021,-0.40591 0.651,-0.64871 0.43398,-0.28871 0.95476,-0.84234 1.12836,-0.0793 3.12472,-2.15768 1.99635,-1.30314 3.7323,-2.54493 1.73595,-1.28489 2.30015,-1.84136 0.26021,-0.19064 0.91138,-0.5378 0.69438,-0.35043 1.51895,-1.05423 0.86796,-0.75009 2.16993,-0.84159 1.12836,-0.0793 2.16996,0.70888 1.04156,0.74513 1.04156,1.56343 l -0.0866,2.07339 q 0,1.98118 -1.08499,3.43566 -0.26021,1.74103 -0.60758,2.41147 l 0.0866,0.98449 q 0,0.25824 -0.95476,0.92848 z m -20.57107,34.43646 0.21691,-0.61819 q 0.0866,-0.30747 0.60758,-0.64567 0.43398,-1.8825 1.17174,-2.49422 0,-0.94754 0.0866,-1.08283 l 0.60758,-0.60261 1.69257,-2.96146 q 0.26021,-0.62129 0.5642,-1.20254 0.30391,-0.53815 0.47736,-1.0672 0,-0.60297 1.4322,-2.46944 v -0.30161 q 0,-0.60296 -0.26022,-0.58464 -0.26021,0.31957 -0.86799,0.66395 l -2.77751,2.5209 q -0.21691,0.18753 -1.17178,1.46057 l -0.82458,0.91933 q -0.69438,0.78096 -1.08498,0.98068 -0.34721,0.23987 -0.91137,1.31304 -0.52078,1.11334 -0.91138,1.14078 l -0.1736,0.0117 q -0.0433,0.003 -0.43402,-0.1848 -0.26021,0.14768 -0.26021,0.40592 l 0.26021,1.01536 q 0,0.17228 -0.34721,0.54124 -0.34722,0.412 -0.60759,0.861 -0.21691,0.44596 -0.4774,0.55038 -0.26021,0.10431 -0.95475,1.66063 l -0.82461,0.48866 q -0.13031,2.5502 -1.60573,4.20439 -0.34721,0.71349 -0.5642,1.37478 -0.21691,0.70434 -0.39051,0.88882 -0.26022,1.61188 -0.91138,1.91602 -0.17361,0.0985 -0.17361,0.27074 0,0.25823 0.39052,0.48939 l 0.17361,0.16018 q -0.5642,1.71936 -0.5642,2.53766 0,0.17228 0.1736,0.16018 l 1.30197,-0.73752 q 1.38878,-0.74365 1.86613,-1.76775 l 0.69439,-1.38397 q 0.17361,-0.27073 0.60758,-0.38716 0.26022,-0.92272 0.82458,-1.22081 0.60758,-0.30121 0.60758,-0.73181 0,-0.43068 1.60576,-3.0846 1.64919,-2.65693 1.73599,-3.0076 z"
       style="font-size:85.3333px;letter-spacing:0px;word-spacing:0px;display:inline;fill:#000000;stroke-width:1.03761"
       id="path7362" />
  </g>
</svg>
