<?xml version="1.0" encoding="UTF-8" standalone="no"?>
<!-- Created with Inkscape (http://www.inkscape.org/) -->

<svg
   width="412mm"
   height="236mm"
   viewBox="0 0 412 236"
   version="1.1"
   id="svg15038"
   inkscape:version="1.1.2 (b8e25be833, 2022-02-05)"
   sodipodi:docname="sosMoney-white2.svg"
   xmlns:inkscape="http://www.inkscape.org/namespaces/inkscape"
   xmlns:sodipodi="http://sodipodi.sourceforge.net/DTD/sodipodi-0.dtd"
   xmlns:xlink="http://www.w3.org/1999/xlink"
   xmlns="http://www.w3.org/2000/svg"
   xmlns:svg="http://www.w3.org/2000/svg">
  <sodipodi:namedview
     id="namedview15040"
     pagecolor="#ffffff"
     bordercolor="#666666"
     borderopacity="1.0"
     inkscape:pageshadow="2"
     inkscape:pageopacity="0.0"
     inkscape:pagecheckerboard="true"
     inkscape:document-units="mm"
     showgrid="false"
     inkscape:zoom="0.25449098"
     inkscape:cx="890.01188"
     inkscape:cy="561.90596"
     inkscape:window-width="1507"
     inkscape:window-height="1030"
     inkscape:window-x="98"
     inkscape:window-y="0"
     inkscape:window-maximized="0"
     inkscape:current-layer="layer1" />
  <defs
     id="defs15035">
    <linearGradient
       inkscape:collect="always"
       xlink:href="#linearGradient3859-5"
       id="linearGradient3861"
       x1="218.76476"
       y1="316.505"
       x2="443.99329"
       y2="316.505"
       gradientUnits="userSpaceOnUse"
       gradientTransform="translate(-24.041631,294.91169)" />
    <linearGradient
       inkscape:collect="always"
       id="linearGradient3859-5">
      <stop
         style="stop-color:#000000;stop-opacity:1;"
         offset="0"
         id="stop3855" />
      <stop
         style="stop-color:#000000;stop-opacity:0;"
         offset="1"
         id="stop3857" />
    </linearGradient>
    <filter
       inkscape:collect="always"
       style="color-interpolation-filters:sRGB"
       id="filter3819"
       x="-0.012854589"
       width="1.0257092"
       y="-0.034633827"
       height="1.0692677">
      <feGaussianBlur
         inkscape:collect="always"
         stdDeviation="1.1761063"
         id="feGaussianBlur3821" />
    </filter>
    <linearGradient
       inkscape:collect="always"
       xlink:href="#linearGradient3859-5"
       id="linearGradient15112"
       gradientUnits="userSpaceOnUse"
       gradientTransform="translate(-24.041631,294.91169)"
       x1="218.76476"
       y1="316.505"
       x2="443.99329"
       y2="316.505" />
    <linearGradient
       inkscape:collect="always"
       xlink:href="#linearGradient3859-5"
       id="linearGradient15114"
       gradientUnits="userSpaceOnUse"
       gradientTransform="translate(-24.041631,294.91169)"
       x1="218.76476"
       y1="316.505"
       x2="443.99329"
       y2="316.505" />
    <linearGradient
       inkscape:collect="always"
       xlink:href="#linearGradient3859-5"
       id="linearGradient15116"
       gradientUnits="userSpaceOnUse"
       gradientTransform="translate(-24.041631,294.91169)"
       x1="218.76476"
       y1="316.505"
       x2="443.99329"
       y2="316.505" />
    <linearGradient
       inkscape:collect="always"
       xlink:href="#linearGradient3859-5"
       id="linearGradient15118"
       gradientUnits="userSpaceOnUse"
       gradientTransform="translate(-24.041631,294.91169)"
       x1="218.76476"
       y1="316.505"
       x2="443.99329"
       y2="316.505" />
    <linearGradient
       inkscape:collect="always"
       xlink:href="#linearGradient3859-5"
       id="linearGradient15120"
       gradientUnits="userSpaceOnUse"
       gradientTransform="translate(-24.041631,294.91169)"
       x1="218.76476"
       y1="316.505"
       x2="443.99329"
       y2="316.505" />
  </defs>
  <g
     inkscape:label="Calque 1"
     inkscape:groupmode="layer"
     id="layer1">
    <path
       id="path3727"
       style="font-style:normal;font-variant:normal;font-weight:bold;font-stretch:normal;font-size:200.477px;line-height:1.25;font-family:'Trebuchet MS';-inkscape-font-specification:'Trebuchet MS Bold';letter-spacing:0px;word-spacing:0px;display:inline;fill:#ff0000;fill-opacity:1;stroke:none;stroke-width:2.17512;stroke-opacity:1"
       d="m 203.68601,73.77592 c 18.32377,0 27.48574,11.457011 27.48574,34.3699 0,11.16102 -2.48824,19.76128 -7.46599,25.80133 -4.90554,6.04005 -11.57928,9.06089 -20.01975,9.06089 -18.39592,0 -27.5936,-11.62105 -27.5936,-34.86222 0,-10.832747 2.48824,-19.268962 7.46598,-25.309054 4.97771,-6.040052 11.68716,-9.060846 20.12762,-9.060846 z m -77.05412,5.722521 c 10.78609,0 19.41942,1.638871 25.9173,4.904761 -2.7207,6.254324 -4.23793,13.216418 -4.53452,20.894568 -2.92564,-1.08923 -6.11953,-2.12174 -9.65489,-3.08201 -11.48543,-3.176339 -18.97866,-5.699973 -22.48131,-7.571735 -3.50268,-1.871805 -5.25469,-3.970712 -5.25469,-6.296254 0,-5.898923 5.33728,-8.84933 16.00811,-8.84933 z M 259.3024,108.38792 c 4.32665,2.03632 9.39267,3.90107 15.22892,5.58829 10.34502,3.00615 17.31046,5.61595 20.89455,7.82809 3.58409,2.21208 5.37673,5.04758 5.37673,8.5075 0,5.89892 -5.94833,8.84934 -17.84105,8.84934 -10.39057,0 -19.80969,-2.07313 -28.26689,-6.20469 3.04437,-7.14539 4.58104,-15.33352 4.60774,-24.56853 z"
       sodipodi:nodetypes="sscssssscccsssccssscc" />
    <path
       id="path3731"
       style="display:inline;fill:#ffffff;fill-opacity:1;stroke-width:1.46978"
       d="M 65.884143,38.853401 V 186.84236 H 339.97064 V 38.853401 Z M 202.64564,54.63979 c 17.60236,0 31.27295,4.857244 41.01197,14.573898 1.14623,1.143599 2.21917,2.341721 3.2305,3.584445 1.62879,-1.325669 3.53201,-2.539577 5.71036,-3.641407 8.63442,-4.424213 19.67025,-6.635984 33.11063,-6.635984 13.60332,0 26.3932,2.125598 38.36736,6.379628 L 315.278,85.406892 c -6.67944,-3.970434 -15.96535,-5.956517 -27.85803,-5.956517 -10.67082,0 -16.00606,2.950406 -16.00606,8.84933 0,2.325541 1.75201,4.424448 5.25466,6.296254 3.50268,1.871762 10.99591,4.395396 22.48134,7.571731 11.48539,3.11965 19.75415,6.91946 24.80448,11.40036 5.05034,4.48091 7.57583,9.89752 7.57583,16.25018 0,8.45133 -3.64638,16.86692 -12.68809,21.74491 -8.96022,4.82122 -22.05441,6.35723 -37.53122,6.35723 -8.71588,0 -15.71986,-1.38562 -21.01455,-2.4066 -4.74815,-0.87822 -10.8125,-2.67216 -18.06075,-5.29126 -9.7822,9.20847 -22.97279,13.82731 -39.58997,13.82731 -17.60238,0 -31.30863,-4.98932 -41.11981,-14.96858 -0.33579,-0.34643 -0.65235,-0.70581 -0.97645,-1.05987 -1.32811,0.98692 -2.79506,1.91849 -4.41248,2.79109 -8.96023,4.82122 -21.17968,7.23203 -36.65646,7.23203 -8.71588,0 -15.71986,-0.50885 -21.014588,-1.52982 -5.213238,-0.96425 -11.932989,-2.97903 -20.160138,-6.04194 l 10.873483,-16.93168 c 9.123161,5.04812 19.428153,7.57381 30.913543,7.57381 11.89273,0 17.83901,-2.9504 17.83901,-8.84933 0,-3.45997 -1.7926,-6.29542 -5.37672,-8.50755 -3.5841,-2.21209 -10.54954,-4.8219 -20.89453,-7.82808 -22.563538,-6.52286 -33.845055,-15.65512 -33.845055,-27.396239 0,-7.88414 2.578004,-17.489151 11.200969,-21.879154 8.645928,-4.401694 15.294466,-5.761219 28.734846,-5.761219 13.55935,0 32.39058,4.723871 44.37066,8.967311 0.0197,-0.01969 0.0354,-0.03543 0.0528,-0.05472 10.24401,-10.110555 23.73415,-15.165853 40.47084,-15.165853 z m 94.22581,76.22614 c 0.0157,-0.39248 -0.0712,0.78336 -0.0649,1.17584 8.9e-4,0.0752 0.004,0.15038 0.008,0.22596 0.18502,-0.42736 0.0417,-0.93463 0.0591,-1.40165 z"
       inkscape:export-xdpi="96"
       inkscape:export-ydpi="96" />
    <g
       aria-label="Money"
       id="text3759"
       style="font-size:85.3333px;letter-spacing:0px;word-spacing:0px;display:inline;opacity:0.400641;fill:url(#linearGradient3861);filter:url(#filter3819)"
       transform="matrix(1.0415739,0,0,1.0415739,-56.294695,-453.82529)">
      <path
         d="m 211.04579,579.87502 0.24999,-0.0833 h 1.125 q 0.5,0 1.45834,-1.16666 0.0833,-0.0833 2.20833,-0.79167 l 0.16667,-0.16667 q 0.58333,-0.5 0.83333,-0.66666 h 0.79167 q 0.0833,0 0.66666,-0.375 0.58333,-0.41667 2.45833,-0.91667 1.91667,-0.5 2.5,-0.83333 0.25,-0.0833 1.83334,-0.25 l 1.16666,-0.20834 0.91667,0.0833 q 2.20833,0 3.16666,2.91666 0,0.16667 0.20834,0.54167 0.20833,0.33333 0.20833,0.5 0,1.75 -1.70833,3.66667 l -0.58334,1.54166 q 0,0.0833 -0.45833,0.625 -0.41667,0.54167 -0.75,1.29167 -0.33333,0.70833 -1.79166,2.16666 -0.25,0.5 -0.70834,1.58334 -0.45833,1.04166 -0.79166,1.37499 -0.29167,0.33334 -1.625,2.5 -1.29167,2.16667 -1.29167,2.54167 -0.625,0.45833 -0.875,1.54167 -0.20833,1.08333 -0.83333,2.04166 l -0.0833,0.29167 q 1.33334,-0.45834 1.33334,-1.45834 0,-0.12499 0.70833,-0.62499 l 0.33333,-0.58334 q 0.5,-0.58333 0.875,-0.66666 0.0833,-0.33334 0.875,-0.95834 0.79167,-0.66666 1.04167,-0.91666 0.29167,-0.25 0.91667,-0.5 0.625,-0.29167 1.41666,-2.08334 0.0833,-0.33333 0.625,-0.54166 0.58333,-0.20834 0.95833,-0.66667 0.375,-0.5 0.625,-0.66666 l 0.33334,-0.5 q 0.45833,-0.41667 0.625,-0.5 l 2.04166,-2.5 q 1.625,-1.04167 1.79167,-1.625 l 0.33333,-0.0833 h 0.25 q 0.66667,-0.54166 0.875,-0.75 0,-1.25 0.91667,-1.625 0.95833,-0.41666 1.375,-0.95833 0.41666,-0.58333 0.91666,-0.58333 0.125,0 0.45834,0.25 h 0.0833 q 0.125,0 0.25,-0.41667 v -0.41666 q 0,-0.70834 0.41667,-1.16667 0.41666,-0.45833 1.125,-0.58333 0.70833,-0.16667 1.375,-1.08334 0.66666,-0.91666 1.49999,-0.95833 0.875,-0.0417 1.16667,-0.66667 0.29167,-0.625 1.79167,-1.33333 1.5,-0.75 1.875,-0.79166 0.375,-0.0833 0.66666,-0.25 0.33334,-0.16667 0.66667,-0.16667 0.41667,0 1.20833,0.25 l 0.75,0.16667 q 0.95833,0.41666 1.79167,1.54166 l 0.41666,0.41667 v 0.16666 l 0.0833,0.70834 v 0.33333 q 0.54166,0.25 0.54166,0.5 l -0.29166,0.54167 q -0.16667,0.29166 -0.16667,0.70833 0,0.375 -0.0417,0.79167 -0.0417,0.375 -0.125,0.75 -0.0417,0.33333 -0.16666,0.66666 -0.0833,0.29167 -0.20834,0.58334 -0.125,0.25 -0.29166,0.5 l -0.33334,1.33333 q -0.16666,0.79166 -0.91666,1.91666 -0.70834,1.08334 -0.83334,1.54167 -0.125,0.41667 -0.58333,1.16667 l 0.0833,0.25 v 0.58333 q 1.29166,-0.16667 1.29166,-1 0,-0.875 1.04167,-1.29167 l 0.91666,-0.75 q 1.08334,-1.91666 2.66667,-2.5 0,-0.66666 0.79167,-1.37499 l 1.58333,-1.5 1.125,-0.625 q 0.75,-1.54167 1.70833,-1.875 l 0.91667,-0.58334 q 0.83333,-0.41666 0.91666,-0.79166 0.125,-0.41667 0.66667,-0.83334 0.54167,-0.41666 1.58333,-1.37499 l 0.33334,-0.16667 0.41666,-0.41667 q 0.45833,-0.25 1.04167,-0.41666 l 0.33333,-0.16667 q 1.04167,-0.79167 1.875,-1.04167 0.83333,-0.29166 1.875,-0.91666 l 1.45833,-0.20834 q 0.5,-0.16666 0.66667,-0.16666 3.95833,0 3.95833,4.45833 l -0.0833,0.66666 0.0833,2.41667 q -1.04167,1.70833 -1.04167,1.79167 l 0.0833,0.75 q 0,0.16666 -0.54167,1 -0.54167,0.79166 -0.66667,0.95833 -0.0833,0.16666 -0.75,0.875 l -0.41666,1.25 q -0.20833,0.41666 -0.70833,0.79166 v 0.5 q 0,0.625 -1.625,1.875 -0.20834,1.08334 -0.75,1.625 -0.5,0.5 -0.79167,1.08333 -0.25,0.54167 -0.83333,1.04167 0,0.54167 -0.70834,1.83333 -0.70833,1.29167 -1.125,1.66667 -0.375,0.33333 -0.79166,1.20833 l -0.375,0.16667 q -0.25,1.58333 -0.58333,1.79166 l -0.66667,-0.0833 v 0.16667 q 0,0.0833 0.16667,0.29166 0.16666,0.20834 0.16666,0.45834 0,0.29166 -0.25,0.5 -0.25,0.20833 -0.29166,0.41666 -0.0417,0.20834 -0.20834,0.41667 -0.125,0.20833 -0.16666,0.83333 -0.0417,0.58334 -0.625,1.625 -0.58334,1.04167 -0.625,1.41667 -0.0417,0.375 -0.125,0.625 -0.0833,0.25 -0.0833,0.5 0,0.25 -0.20833,1.29166 0.79167,1.875 1.125,2.54167 0.33333,0.66667 0.33333,0.875 0,1.66667 -0.41666,2.25 -0.41667,0.54167 -2.04167,0.54167 -1.04167,0 -1.83333,-0.70834 -0.75,-0.75 -1.33334,-0.75 v -0.75 l -0.0833,-0.0833 h -0.66666 q -0.0833,-0.0833 -0.375,-0.29167 -0.25,-0.20833 -0.5,-0.58333 l -0.25,-0.25 q -0.33334,-0.41667 -0.58334,-1.375 l -0.25,-0.83333 0.0833,-0.66667 -0.0833,-1.04166 q 0,-0.41667 0.0833,-0.66667 l 0.0833,-1.125 q 0,-0.16667 0.16667,-0.70833 0.16666,-0.58334 0.20833,-1.33334 0.0417,-0.79166 0.375,-1.20833 0.33333,-0.41667 0.375,-0.70833 0.0417,-0.29167 0.20833,-0.45834 0.20834,-0.20833 0.33334,-0.95833 0.125,-0.75 0.87499,-1.20833 0.41667,-0.75 0.70834,-1.41667 0.875,-1.20833 0.91666,-1.20833 h 0.58334 q -0.41667,-0.5 -0.41667,-0.58333 0,-1.125 0.875,-1.125 0.16667,0 0.41667,0.0833 l 0.16666,-0.33333 -0.16666,-0.70834 q 0,-0.70833 1.08333,-1.41666 0,-1.20833 1.125,-2.16667 l -0.0833,-0.66666 q 0.25,-0.25 0.70833,-1.08334 0.45833,-0.875 1.16667,-1.75 l 1.29166,-1.95833 0.58333,-0.66667 q 0,0.0417 0,0.0417 0.0417,-0.0417 0.0833,-0.16667 0.0833,-0.16666 0.16666,-0.45833 l 0.25,-0.625 0.29167,-0.33333 q 1.08333,-0.29167 1.08333,-0.75 0,-0.0833 -0.33333,-0.54167 v -0.16666 q 0,-0.33334 0.5,-0.83334 0.5,-0.5 0.91667,-1.375 0.45833,-0.91666 0.45833,-1.125 0,-0.16666 -0.16667,-0.16666 -1.33333,0 -1.79166,0.95833 0,0.25 -1.625,1 l -0.41667,0.625 q -0.5,0.45833 -0.875,0.45833 -0.375,0 -1,0.5 -0.58333,0.45834 -2.625,2.16667 -2.04166,1.66666 -3,2.75 l -0.95833,0.66666 q -0.58333,0.29167 -0.58333,0.45834 0,0.41666 -0.70833,1.08333 l -0.5,0.625 q -0.58334,-0.20833 -0.66667,-0.20833 -0.45833,0 -0.79167,0.45833 0.33334,0.33333 0.33334,0.41667 0,0.66666 -1.25,1.375 l -1.79167,1.87499 q -0.0833,0.0833 -0.625,0.45834 -0.54167,0.375 -0.83333,0.95833 -0.25,0.54167 -1.45833,1.95833 -1.20834,1.375 -1.41667,1.5 -0.20833,0.0833 -0.5,0.54167 -0.29167,0.45833 -1.20833,1.29167 -0.91667,0.83333 -1.04167,1.83333 -0.79167,0.29166 -0.79167,0.5 l -0.25,0.41666 -0.33333,0.16667 q -0.0833,0.16667 -0.125,0.58333 -0.0417,0.375 -1.66667,1.41667 -1.62499,1 -2.04166,1 -0.125,0 -0.375,0.16667 -0.25,0.16666 -0.33333,0.16666 -0.125,0 -1.125,-0.5 -0.95834,-0.5 -1.41667,-2.33333 l 0.33333,-1.08333 -0.16666,-0.875 q 0,-0.25 0.375,-0.66667 0.41666,-0.41667 0.41666,-1.04166 0.66667,-1.5 1,-2.125 l 0.0833,-0.66667 q 0.16666,-0.41667 0.54166,-0.91667 0.41667,-0.54166 0.5,-1.16666 0.0833,-0.66667 0.54167,-0.83334 0.45833,-0.16666 3.375,-5.04166 v -0.58333 l 1.20833,-2.08334 q 0.54167,-0.91666 1.33333,-2.08333 l 0.375,-0.95833 q -1.29166,-0.5 -1.375,-0.5 -0.25,0 -0.625,0.33333 0,0.70834 -2.45833,1.45833 -0.5,0.25 -1.29166,1.20834 l -1.16667,0.66666 q -0.25,0.16667 -0.79167,0.66667 l -0.58333,0.54167 q -1.04167,0.25 -1.79167,1.16666 l -1.125,0.79167 q -0.5,0.41667 -0.66666,0.625 -0.16667,0.20833 -1.54167,0.91667 l -0.66666,0.66666 -0.625,0.33334 q -0.66667,0.70833 -1,1.20833 -0.33334,0.5 -0.875,0.58333 l -0.91667,0.33333 q -0.25,1.08334 -1.54167,2.08334 l -1.20833,1.5 q -0.33333,0.29166 -0.58333,0.45833 -0.16667,0.41667 -0.58333,0.58333 -0.54167,0.66667 -0.70834,0.91667 l -0.5,0.375 q -1.125,0.41666 -1.125,0.66666 l 0.0833,0.75 q 0,0.45834 -1,0.875 -0.41667,0.20834 -0.5,0.66667 -0.0417,0.45833 -0.29167,0.95833 h -0.75 q -0.125,0 -0.79167,0.41667 -0.0833,0 -0.16666,0.0833 l 0.16666,0.95834 q 0,0.5 -0.66666,1.16666 -0.66667,0.625 -1.04167,1.125 -0.33333,0.5 -0.5,0.5 h -0.25 l -0.25,0.16667 q 0.0417,0.79166 -1.04166,1.70833 l -0.5,0.625 q -0.25,0.20833 -1.41667,2.08333 -1.16667,1.875 -2.20833,3.04167 -1.04167,1.16666 -1.91667,1.58333 -0.875,0.375 -1.875,0.79167 l -1.70833,-0.33334 q -0.25,-0.45833 -0.75,-0.75 -0.45833,-0.29166 -0.45833,-0.625 l -0.5,-1.45833 q 0,-0.58333 0.45833,-1.41666 0.45833,-0.875 0.54167,-1.33334 0.125,-0.5 0.5,-1.29166 0.375,-0.83334 0.375,-0.91667 0,-1.125 0.33333,-1.375 0.375,-0.29167 1.625,-1.25 0.0833,0 0.0833,-0.16666 v -0.0833 l -0.0833,-0.70833 q 0.95833,-1.625 1.20833,-1.625 0.0833,0 0.33334,0.0833 l -0.25,-0.91666 q 0,-0.16667 0.45833,-0.54167 0.45833,-0.375 0.70833,-0.83333 l -0.16667,-0.5 v -0.16667 q 0,-0.79167 1.04167,-1.625 0.16667,-0.33333 0.66667,-1.70833 l 1.08333,-1.91667 q 0.41667,-0.79166 0.875,-1.04166 0.45833,-0.29167 0.5,-0.66667 0.0417,-0.375 0.29167,-0.83333 0,0.20833 0.0417,0.0417 0.0833,-0.20833 0.20834,-0.83333 0.16666,-0.625 0.95833,-1 0.95833,-2.45833 1.5,-2.45833 0.16666,0 0.45833,0.16667 h 0.16667 q 0.66666,0 0.66666,-0.5 0,-0.16667 -0.16666,-0.16667 -0.375,0.41667 -0.66667,0.41667 -0.29167,0 -0.29167,-0.16667 0,-0.0833 0.125,-0.16667 l 0.91667,-1.875 0.0833,-0.79166 q 0.16667,-0.25 0.66667,-0.75 l 0.70833,-0.95834 v -0.41666 q 0,-0.0833 0.375,-0.83333 0.375,-0.79167 0.54167,-1.54167 l 0.70833,-1.04167 q 0.16667,-0.5 0.16667,-0.91666 0,-0.625 -0.16667,-0.625 l -2.41666,0.45833 q -1.95833,1 -2.79167,1.58333 l -0.95833,0.20834 q -0.0833,0 -1.125,0.58333 -1,0.54167 -1.79167,0.625 -0.75,0.0417 -1.33333,0.58333 l -0.16667,0.0833 h -0.79166 q -0.45834,0.54166 -0.625,0.83333 -0.16667,0.25 -0.29167,0.25 -4.20833,2.79166 -5.33333,3.375 -1.125,0.58333 -1.70833,1.08333 -0.58334,0.45833 -1,0.66667 v 0.5 q 0,0.70833 -1.04167,1.62499 -1,0.875 -1.75,0.875 -0.25,0 -0.79166,-0.25 -0.5,-0.29166 -1.16667,-0.375 -0.625,-0.0833 -0.625,-1.58333 0,-2.125 3.5,-3.875 0.54167,-0.25 1,-0.58333 0.45833,-0.33333 3.70833,-1.625 l 1.20833,-0.58333 q 0.41667,-0.41667 1.375,-0.75 1,-0.375 1.54167,-0.625 0.58333,-0.25 0.91667,-0.33333 z m 39.08331,10.08333 0.41667,-0.75 v -0.0833 q 0,-0.0833 -0.16667,-0.0833 -0.41666,0 -0.66666,0.83333 0.0833,0.25 0.16666,0.25 0.16667,0 0.25,-0.16666 z"
         id="path15633"
         style="fill:url(#linearGradient15112)" />
      <path
         d="m 295.42075,610.45834 -1.95833,1.70833 Q 293.29575,612 293.12909,612 q -0.41667,0 -1.04167,0.75 -0.58333,0.75 -0.83333,0.75 l -0.41667,-0.0833 q -1.04167,0.79166 -1.5,0.91666 -0.45833,0.125 -1.125,0.45834 -0.625,0.33333 -1.16666,0.375 -0.5,0.0417 -0.83334,0.375 -0.33333,0.29166 -1.625,0.29166 l -0.66666,-0.0833 q -0.54167,0.25 -0.70834,0.25 -0.33333,0 -0.70833,-0.33333 -0.375,-0.375 -0.83333,-0.41667 -0.41667,-0.0417 -0.875,-0.58333 -0.45834,-0.54167 -0.875,-0.75 -0.375,-0.20833 -0.625,-0.58333 l -0.58333,-0.5 q -0.70834,-0.5 -1.375,-1.83334 -0.66667,-1.33333 -0.66667,-2.08333 V 608.75 l 0.0833,-0.79166 -0.0833,-0.91667 q 0.16667,-0.16667 0.41667,-0.70833 v -1.33333 l 1,-3.33334 q 0.0833,-0.20833 -0.33334,-0.54166 -0.41666,0.625 -0.83333,0.75 -0.41667,0.125 -0.58333,0.58333 -0.125,0.45833 -0.45834,0.45833 l -0.5,-0.16666 q -0.0833,0.0833 -0.375,0.875 -0.29166,0.75 -1,0.75 -0.75,0 -0.75,-0.58334 l 0.0833,-0.75 -0.25,-1.04166 q 0,-0.33334 0.66666,-1.29167 0.66667,-1 1.20834,-1.125 0.58333,-0.16667 0.95833,-0.79167 0.41667,-0.66666 1.75,-1.58333 0.75,-0.16666 1.29167,-1.08333 0.58333,-0.45833 1.49999,-0.75 0.95834,-0.29167 1.41667,-0.83333 0.5,-0.58334 2.83333,-1.75 2.375,-1.20834 3.45834,-1.20834 0.33333,0 0.91666,-0.16666 0.58333,-0.20834 1.08333,-0.33334 0.5,-0.16666 1.04167,-0.45833 0.54167,-0.33333 0.875,-0.33333 l 1.20833,0.41666 q 1.33334,0.375 1.625,0.54167 0.0833,0.0833 0.83334,0.375 0.79166,0.25 1.58333,0.70833 0.83333,0.45834 0.83333,1.70834 -0.70833,1.04166 -0.70833,1.125 0,0.16666 0.95833,0.5 0.33333,0.625 1,1.625 l 0.45833,1.45833 0.0833,3.41666 -0.0833,0.33334 q -0.45833,0.41666 -0.45833,0.54166 l 0.125,0.83334 -0.33333,1.16666 q -0.125,0.54167 -0.41667,0.70834 -0.29167,0.16666 -0.375,0.41666 l -0.25,0.33333 q -0.0833,0.125 -0.375,0.75 -0.25,0.58334 -0.58333,0.91667 -0.33334,0.33333 -0.41667,0.79167 -0.0833,0.45833 -0.41667,0.66666 -0.33333,0.20834 -0.49999,0.45834 -0.125,0.20833 -0.45834,0.375 z m -12.95833,1.08333 0.16667,0.95833 0.0833,0.0833 h 0.66667 l 0.20833,0.0833 q 0.83334,0.16667 1.25,0.16667 1.29167,0 2.04167,-0.625 0.79167,-0.66667 1.25,-0.66667 0.45833,0 0.75,-0.625 0.33333,-0.625 0.41666,-0.625 h 0.58334 l 0.16666,-0.0833 q 0,-0.95834 0.83334,-1.375 0.875,-0.41667 1.20833,-1.08334 0.375,-0.70833 0.83333,-1.04166 0.45834,-0.375 0.625,-0.95833 l 0.33334,-0.5 q 0.16666,-0.16667 0.16666,-0.625 l 0.79167,-1.5 q 0.25,-1.04167 0.25,-1.625 0,-0.875 -0.91667,-1.375 -0.875,-0.5 -0.875,-1.95834 0,-0.95833 0.95834,-1.74999 1,-0.83334 1,-1 0,-0.25 -0.25,-0.25 -0.125,0 -0.95834,0.33333 -0.29166,0.58333 -2.95833,1.54167 -0.875,-0.41667 -0.95833,-0.41667 -0.25,0 -0.5,0.5 -0.25,0.5 -0.5,0.70833 h -0.54167 q -0.0833,0 -0.54166,0.54167 -0.45834,0.54166 -1.16667,0.54166 l -0.5,0.5 q 0.0417,0.66667 -0.83333,1.375 l -0.45834,0.54167 q -0.41666,0.5 -1.08333,1.16667 l -0.75,1.875 q -0.45833,1.08333 -0.45833,1.625 -0.125,0.24999 -0.58334,0.54166 -0.41666,0.25 -0.41666,0.66667 0,0.0833 0.29166,0.41666 0.29167,0.33334 0.29167,0.5 l -0.16667,0.54167 -0.16666,1.54167 z"
         id="path15635"
         style="fill:url(#linearGradient15114)" />
      <path
         d="m 341.25406,606.625 h 0.16667 l 0.41667,0.16667 q 0.0833,0 0.16666,-0.0833 0,-0.70833 0.66667,-1.20833 0.20833,-0.79167 0.91667,-1.20834 0.75,-0.41666 2.33333,-1.375 l 1.04166,-0.91666 0.5,-0.25 0.33334,-0.41667 q 0.45833,-0.54167 0.875,-0.54167 0.625,0 0.625,0.45834 l -0.375,0.83333 0.16666,1.375 q 0,0.75 -0.54166,1.33333 -0.5,0.58334 -1.58334,1.70833 l -2.12499,2.25 -1.125,0.58334 q -0.41667,0.25 -0.75,0.58333 l -1.625,1.375 q 0,0.58333 -0.375,0.875 h -0.66667 l -0.33333,0.16667 q -0.29167,0.79166 -1.70833,1.54166 l -0.58334,0.41667 q -0.29166,0.25 -0.54166,0.25 l -1.16667,-0.16667 -0.79167,0.16667 q -0.33333,0 -0.91666,-0.33334 -0.54167,-0.33333 -1.125,-0.49999 -0.58334,-0.20834 -1.5,-1.54167 -0.875,-1.375 -0.95834,-1.79167 0,-0.16666 -0.20833,-0.54166 -0.16666,-0.41667 -0.16666,-0.5 0,-0.0833 0.37499,-0.83334 v -0.0833 q 0,-0.125 -0.24999,-0.58333 -0.20834,-0.45834 -0.20834,-1.125 0,-0.375 -0.25,-0.95833 0.33334,-0.33334 0.33334,-0.5 0,-0.16667 -0.125,-0.45834 -0.125,-0.33333 -0.125,-0.5 l 0.25,-2.04166 -0.16667,-1.04167 0.0833,-1 q 0,-0.875 -0.75,-0.875 -0.33333,0 -0.83333,0.45833 l -0.29167,0.0833 q -1.125,0.54166 -1.58333,0.91666 -0.45833,0.33334 -0.95833,0.33334 -0.25,0.25 -0.95834,0.45833 l -0.33333,0.25 q -0.16667,0.16667 -0.66667,0.5 0,0.125 -1.58333,1.41667 -1.54166,1.25 -2.79166,2.375 -1.25,1.12499 -1.83334,1.24999 -0.54166,0.0833 -0.54166,1.04167 0,0.16667 -0.75,0.66667 -0.0833,0 -0.875,0.91666 -0.66667,-0.5 -0.75,-0.5 -0.54167,0 -0.79167,1.375 -0.25,0.54167 -1.33333,0.66667 -0.0833,0.0417 -0.29167,0.625 l -0.16666,0.16667 h -0.41667 q -0.0833,0 -0.58333,0.5 -0.5,0.45833 -0.875,0.58333 -0.54167,1.125 -0.91667,1.125 -0.16667,0 -0.5,-0.16667 -0.29167,-0.16667 -0.75,-0.29166 -0.45833,-0.125 -1.04167,-1 -0.54166,-0.91667 -0.54166,-1.54167 0,-4.625 1.79166,-5.04167 l 0.0833,-0.16666 v -0.33333 q 0,-0.54167 0.45833,-0.75 0.5,-0.25 1,-0.91667 0.5,-0.70833 0.66667,-0.79167 h 0.54166 q 0.16667,0 0.16667,-0.875 0,-0.25 0.20833,-0.45833 0.20834,-0.20833 0.25,-0.58333 0.0417,-0.41667 0.58334,-1.29167 0.58333,-0.91667 0.58333,-1.08333 l -0.0833,-0.16667 q -1.04167,0.95833 -1.5,1.04167 -0.45834,0.0833 -1.25,1.20833 l -0.66667,-0.125 q -1.75,1.29167 -2.16667,1.45833 -0.41666,0.16667 -0.91666,0.95834 0,0.25 -0.29167,0.33333 -0.29166,0.0833 -1.08333,0.66667 h -0.25 q -1.04167,0 -1.04167,-1.5 l 0.875,-2.375 q 0.375,-1.125 1.75,-1.875 1.41667,-0.79167 2.375,-1.5 0.95833,-0.70833 1.91667,-0.75 l 0.29166,-0.41667 q 1.41667,-0.54166 1.91667,-1.70833 0.5,-1.16667 1.375,-1.16667 2.29166,0 3.5,1.70834 1.20833,1.66666 1.20833,2.66666 l 0.0833,1.125 q 0,0.58333 -0.25,1.625 -0.5,0.75 -0.5,1.125 0,0.33333 0.41667,0.33333 0.25,0 0.66667,-0.33333 0.41666,-0.375 0.91666,-0.66667 0.54167,-0.29166 0.625,-0.5 0.41667,-1 1.45834,-1.375 1.04166,-0.375 1.29166,-0.625 l 0.41667,-0.33333 0.33333,-0.625 q 1.125,-0.5 1.5,-0.91666 0.375,-0.41667 1,-0.54167 0.625,-0.125 1.41667,-0.75 l 0.625,-0.16667 0.58333,-0.33333 q 0.0833,-0.0833 0.5,-0.20833 0.41667,-0.125 1.20833,-0.41667 0.83333,-0.33333 1.125,-0.33333 2.125,0 3.33333,1.70833 1.25,1.70833 1.25,2.75 l -0.0833,0.75 0.16667,1.125 v 0.16666 l -0.33334,2.29167 0.0833,0.79167 q 0,1.95833 -0.83334,2.70833 -0.20833,0.0833 -0.20833,0.41666 v 0.375 l 0.83333,1.75 q 0.375,0.91667 0.58334,0.91667 l 1.33333,-0.375 q 0.58333,-0.16667 0.95833,-0.875 0.33333,-0.16667 1.16667,-1 0.25,-0.66667 0.79166,-0.66667 z"
         id="path15637"
         style="fill:url(#linearGradient15116)" />
      <path
         d="m 354.54573,597.83334 0.875,-0.70833 q 1,-0.0833 1.08334,-1.04167 0.0833,-0.95833 1.375,-1.66666 l 0.5,-0.70834 q 0.62499,-0.625 3.41666,-1.625 0.70833,-0.41666 0.95833,-0.75 0.0833,-0.0833 0.16667,-0.0833 l 0.66667,0.16667 q 0.54166,0 1.375,-0.29167 0.875,-0.29167 1.66666,-0.29167 l 1.75,-0.0833 q 0.16667,0 0.66667,0.25 0.54166,0.25 1.29166,0.25 0.91667,0 1.66667,0.83333 0.79167,0.83334 0.79167,1.54167 0,1.29167 -1.33334,2.625 -1.33333,1.33333 -2.125,1.5 -0.70833,0.70833 -1.08333,0.91666 -0.375,0.16667 -0.79167,0.58334 -0.375,0.375 -0.625,0.375 -0.16666,0 -0.25,-0.0833 -0.0833,-0.125 -0.24999,-0.125 -0.66667,0 -1.45834,1.625 l -0.75,-0.0833 q -0.70833,0.45833 -0.91666,1 -0.20834,0.54167 -0.875,0.54167 -1.54167,1.54166 -2.08334,1.54166 -0.0833,0 -0.58333,-0.16666 -0.33333,0.41666 -0.33333,0.875 0,0.5 -0.66667,0.58333 l -0.54166,0.5 -0.41667,-0.0833 -0.83333,0.87499 q -0.625,0 -1.29167,0.41667 -0.0833,0.5 -0.25,1.29167 -0.16667,0.75 -0.16667,0.83333 0,1.20833 2.20834,1.20833 l 1.99999,-0.29166 q 0.79167,0 1.45834,-0.41667 0.70833,-0.41667 1.5,-0.41667 0.25,0 0.75,-0.16666 l 0.41666,0.16666 q 0.29167,-0.625 1.08334,-1.125 0.79166,-0.5 1.25,-0.5 l 0.41666,-0.25 q 0.16667,-0.5 0.5,-0.66666 l 0.33333,-0.29167 q 0.33334,-0.33333 0.625,-0.33333 h 0.58334 l 0.16666,-0.0833 q 0.5,-1.08334 1.375,-1.25 0.91667,-0.20834 1.125,-0.625 0.25,-0.41667 0.83334,-0.5 0.58333,-0.0833 0.95833,-0.54167 0.41667,-0.5 1,-0.91667 0.58333,-0.41666 0.79166,-0.625 0.25,-0.20833 0.41667,-0.20833 0.25,0 0.25,0.375 0,0.375 0.16667,0.375 0.16666,0 0.16666,-0.16667 0,-0.16666 -0.0833,-0.41666 v -0.29167 q 0,-0.625 0.66667,-0.83333 l 1.875,-1.20834 q 0.0833,-0.875 0.45833,-1 0.41667,-0.16666 0.625,-0.33333 0.20833,-0.20833 0.45833,-0.20833 0.54167,0 0.54167,0.625 l -0.20833,1.08333 0.20833,1.125 q 0,0.25 -0.41667,0.70833 -0.375,0.41667 -0.58333,1.33334 -0.20833,0.875 -0.54167,0.95833 h -0.25 q -0.75,0.79167 -1.20833,0.95833 -0.41667,0.125 -0.66667,0.5 l -1.41666,1.625 q -0.41667,0.41667 -0.70833,0.75 -0.29167,0.33333 -0.45834,0.33333 l -0.33333,-0.33333 q 0,-0.0833 -0.16667,-0.0833 -0.41666,0 -0.54166,0.5 -0.0833,0.5 -0.41667,0.875 -1.25,0.58333 -1.625,1.08333 l -0.25,0.0833 h -0.75 q -0.54167,0 -0.75,0.83334 -0.20833,0.79166 -1.20833,0.91666 -0.95834,0.125 -1.375,0.5 -0.0833,0.0833 -0.375,0.16667 -0.29167,0.0833 -1.16667,0.66667 l -3.5,1.25 q -0.41666,0.20833 -0.54166,0.20833 l -1.16667,0.16666 q -0.25,0 -0.5,-0.33333 -0.25,-0.33333 -0.33333,-0.33333 l -0.75,0.25 q -0.83333,0.25 -1.58333,0.25 -0.41667,0 -0.91667,-0.29167 -0.5,-0.29166 -0.79167,-0.41666 -1.20833,0 -1.70833,-1.875 l -0.5,0.0833 q -0.16667,0 -1.125,-2.95833 -0.25,-0.33334 -0.79167,-0.45834 -0.54166,-0.16666 -0.54166,-0.83333 0,-1.875 0.79166,-2.5 0.83334,-0.66666 0.91667,-1 l 0.58333,-2.16666 q 0.16667,-0.125 0.41667,-0.83334 l 0.95833,-1.75 q 0.16667,-0.29166 0.75,-1.45833 z m 8.79167,-2.5 -0.5,0.25 q -0.16667,0.0833 -1,0.75 -0.79167,0.625 -1.58334,1.04167 -0.75,0.375 -1.58333,2.04166 -0.79166,1.66667 -0.79166,1.91667 0,0.25 0.25,0.25 l 1.41666,-0.625 q 0.79167,-0.375 1.45833,-0.95833 0.70834,-0.58334 2,-1.41667 l 0.33334,-0.33333 q 0.0833,-0.16667 0.75,-0.58333 0.70833,-0.45834 1.04166,-0.875 l 0.41667,-0.16667 q 0.70833,-1.125 1.41666,-1.375 0.75,-0.25 0.75,-0.5 0,-0.5 -0.79166,-0.5 -0.33334,0 -1,0.41667 h -0.95833 q -0.16667,0 -0.91667,0.5 z"
         id="path15639"
         style="fill:url(#linearGradient15118)" />
      <path
         d="m 407.6707,604.70834 v 0.45833 l 0.0833,0.33334 v 0.16666 q 0,0.0833 -0.16667,0.95833 -0.625,0.66667 -0.70833,1.875 l -0.5,0.75 q 0,0.58334 -0.41667,0.91667 -0.375,0.33333 -0.66667,1.33333 -0.29166,1 -0.70833,2.125 L 403.62904,616 q 0,0.16667 0.16666,0.16667 0.0833,0 0.25,-0.0833 0.20834,-0.0833 0.375,-0.0833 0.16667,0 0.33334,0.0833 0.16666,0.0833 0.25,0.0833 0.0833,0 0.58333,-0.29167 0.54167,-0.29167 1.20833,-0.375 l 1.54167,-0.375 q 0.5,-0.16667 2.04166,-0.16667 l 1.29167,-0.0833 q 1.54167,0 3.08333,0.79167 1.58334,0.79166 1.95834,1.66666 0.41666,0.875 0.41666,2.83334 0,1.54166 -1.04166,1.54166 -0.625,0 -1.625,-0.79166 -0.95834,-0.79167 -1.33334,-2 -0.375,-1.20834 -1.20833,-1.20834 l -1.04167,-0.33333 -0.58333,0.16667 h -0.16667 q -0.16666,0 -0.75,-0.25 h -0.125 l -1.24999,0.33333 h -1.70834 l -0.79166,0.41667 q -0.58334,0.16666 -1.29167,0.25 -0.66667,0.0833 -1.20833,0.33333 -0.54167,0.25 -0.54167,0.45833 0,1.29167 -1.125,2.20834 -0.41666,0.66666 -0.45833,1.04166 -0.0417,0.41667 -0.5,0.875 -0.41667,0.5 -0.91667,1.5 l -0.33333,0.58333 q -0.16667,0.25 -0.16667,0.41667 0,0.0833 0.0833,0.33333 v 0.375 q 0,1.16667 -1.375,2.20834 v 0.41666 q 0,0.33334 -0.66667,0.95834 l 0.16667,0.83333 q 0,0.16666 -0.45834,0.66666 -0.45833,0.54167 -0.79166,1.16667 -0.29167,0.66667 -1.16667,1.16667 v 0.25 l 0.25,0.5 q 0.125,0 0.125,0.16666 0,0.29167 -0.625,0.875 -0.16667,0.66667 -0.58333,1.29167 l -1.70833,2.29166 q -0.41667,0.58334 -0.41667,0.91667 l -0.29167,0.79167 q -0.45833,0.375 -0.66666,0.75 -0.16667,0.41666 -1.08334,1.58333 -0.91666,1.16667 -1.20833,1.16667 0.25,0.5 0.25,0.58333 0,0.5 -0.66667,1.20833 -1.08333,0 -1.08333,0.45833 l 0.20833,0.83334 q 0,0.16666 -0.45833,0.5 -0.45833,0.33333 -0.75,0.33333 h -0.58333 l 0.16666,0.75 q -0.16666,0.45833 -0.49999,0.625 -0.33334,0.16667 -1.125,0.95833 -0.75,0.83334 -1.08334,1 l -0.54166,0.33334 -1.625,0.16666 q -0.66667,-0.20833 -2.58334,-1.375 -1.87499,-1.16666 -2.12499,-2.20833 -0.29167,-1 -0.29167,-2.875 0,-0.20833 0.41667,-0.70833 l 0.0833,-0.33333 v -0.79167 q 0,-0.0833 0.41667,-1.5 0.41666,-1.375 0.70833,-1.54167 0.29166,-0.125 0.91666,-1.625 0.625,-1.49999 0.95834,-1.95833 l 3.83333,-5.625 q 0,-0.54166 0.16667,-0.70833 h 0.25 q 0.33333,0 0.45833,-0.25 0.125,-0.20833 0.375,-0.5 0,-0.79166 0.70833,-1.29166 0.75,-0.5 1.04167,-1.125 0.33333,-0.58334 0.75,-1.08334 l 0.0833,-0.25 Q 387.08738,626.25 387.62904,626 q 0.58334,-0.20834 0.66667,-0.625 L 389.71238,624 q 0.20833,-0.16667 0.66666,-0.41667 0.45834,-0.25 0.95834,-0.91667 l 0.29166,-0.125 h 0.25 l 0.16667,-0.0833 q 0.5,-1.08333 1,-1.16666 0.54166,-0.0833 0.70833,-0.25 -0.0417,-1.29167 1.45833,-1.29167 0.33334,0 0.5,-0.16667 l 1,-0.79166 q 0.20834,-0.16667 0.79167,-1.625 v -0.0833 l 0.75,0.20834 0.0833,-0.20834 -0.16666,-0.91666 q 0.125,-0.16667 0.5,-1.125 0.375,-1 0.70833,-1.16667 0.33333,-0.16666 0.33333,-0.375 V 613 l -0.0833,-0.5 0.16667,-0.33333 V 611.625 l 0.0833,-0.16666 q 0.20833,-0.20834 0.5,-1.54167 0.16667,-0.16667 0.45833,-0.33333 l 1.875,-5.29167 q 0.0833,-0.20833 0.25,-1.08333 l 0.33333,-0.45833 q 0.5,-1.33334 0.5,-1.70834 0,-0.16666 -0.16666,-0.16666 -0.16667,0 -0.75,0.5 -0.58334,0.45833 -0.875,0.45833 l -0.66667,-0.16667 h -0.16666 q -0.25,0 -0.70834,0.41667 -0.41666,0.41667 -0.5,0.41667 l -0.5,0.0833 q -0.41666,0.70833 -0.75,0.79167 l -1.04166,0.66666 h -0.0833 l -0.58333,-0.41666 q 0,-0.0833 -0.20833,-0.0833 -0.16667,0 -0.5,1 l -1.29167,0.625 q -0.41667,-0.0833 -0.5,-0.0833 -0.41667,0 -0.79167,0.79167 -0.375,0.74999 -0.99999,0.83333 -0.33334,0.375 -1.54167,0.58333 L 388.71238,609 q -0.41667,0.16667 -0.58334,0.41667 -0.875,0.0833 -1.625,0.95833 l -1.125,-0.0833 q -0.41666,0 -0.83333,0.54167 -0.375,0.54166 -0.79166,0.54166 h -0.25 l -0.5,-0.0833 -1.375,0.33333 q -0.58334,0 -1.79167,-0.875 -1.20833,-0.91666 -1.20833,-1.58333 l -0.25,-1.875 q 0,-0.0833 0.33333,-0.58333 0.33333,-0.5 0.33333,-0.70833 0,-0.0833 -0.0833,-0.33334 v -0.33333 q 0,-1.45833 1.04167,-3.5 v -0.16667 q 0,-0.16666 -0.25,-0.16666 -0.54167,0 -0.91667,0.91666 -0.375,0.875 -0.875,1.25 -0.5,0.375 -0.75,0.625 -0.20833,0.25 -0.375,0.25 -0.25,-0.16666 -0.58333,-0.25 -0.0833,-0.0833 -0.29167,-0.5 -0.20833,-0.41666 -0.625,-0.66666 -0.45833,-0.29167 -0.45833,-0.95834 0,-0.45833 1.20833,-1.20833 l 0.5,-0.5 q 1.91667,-1.91667 2.58333,-2.04167 l 0.25,-0.58333 q 0.58334,-0.45833 1.41667,-1.25 0.875,-0.83333 1.54167,-1.16666 l 2.25,-1.95834 q 0.99999,-0.91666 2.74999,-0.91666 1.33334,0 1.33334,1.70833 0,1.70833 -0.625,2.66667 -0.58334,0.91666 -0.75,1.70833 -0.125,0.75 -1.08334,2.04166 -0.95833,1.25 -1.16666,1.875 -0.20833,0.58334 -0.875,1.66667 -0.625,1.04167 -0.625,1.875 0,0.41666 0.5,0.41666 0.70833,0 1.79166,-0.74999 l 0.375,-0.16667 q 0.41667,-0.16667 0.83334,-0.41667 l 1.04166,-0.45833 q 0.29167,-0.625 0.91667,-0.83333 l 0.79167,-0.41667 q 0.58333,-0.25 1.41666,-0.625 0.875,-0.41667 1.125,-0.79167 0.25,-0.375 0.625,-0.58333 0.41667,-0.25 0.91667,-0.75 1.08333,0 3,-1.875 1.91666,-1.125 3.58333,-2.20833 1.66666,-1.125 2.20833,-1.625 0.25,-0.16667 0.875,-0.45833 0.66667,-0.29167 1.45833,-0.91667 0.83334,-0.66667 2.08334,-0.66667 1.08333,0 2.08333,0.83334 1,0.79166 1,1.58333 l -0.0833,2 q 0,1.91666 -1.04166,3.25 -0.25,1.66666 -0.58333,2.29166 l 0.0833,0.95834 q 0,0.25 -0.91667,0.83333 z m -19.74999,31.91665 0.20833,-0.58333 q 0.0833,-0.29167 0.58334,-0.58333 0.41666,-1.79167 1.125,-2.33334 0,-0.91666 0.0833,-1.04166 l 0.58333,-0.54167 1.625,-2.75 q 0.25,-0.58333 0.54167,-1.125 0.29167,-0.5 0.45833,-1 0,-0.58333 1.375,-2.29166 v -0.29167 q 0,-0.58333 -0.25,-0.58333 -0.25,0.29166 -0.83333,0.58333 l -2.66667,2.25 q -0.20833,0.16667 -1.125,1.33333 L 388.83738,628.5 q -0.66667,0.70833 -1.04167,0.875 -0.33333,0.20833 -0.875,1.20833 -0.5,1.04166 -0.875,1.04166 h -0.16667 q -0.0417,0 -0.41666,-0.20833 -0.25,0.125 -0.25,0.375 l 0.25,1 q 0,0.16667 -0.33333,0.5 -0.33334,0.375 -0.58334,0.79167 -0.20833,0.41666 -0.45833,0.5 -0.25,0.0833 -0.91667,1.54166 l -0.79166,0.41667 q -0.125,2.45833 -1.54167,3.95833 -0.33333,0.66667 -0.54167,1.29167 -0.20833,0.66666 -0.375,0.83333 -0.25,1.54167 -0.875,1.79167 -0.16666,0.0833 -0.16666,0.25 0,0.25 0.375,0.5 l 0.16666,0.16666 q -0.54166,1.625 -0.54166,2.41667 0,0.16666 0.16666,0.16666 l 1.25,-0.625 q 1.33334,-0.625 1.79167,-1.58333 l 0.66667,-1.29166 q 0.16666,-0.25 0.58333,-0.33334 0.25,-0.875 0.79167,-1.125 0.58333,-0.25 0.58333,-0.66666 0,-0.41667 1.54166,-2.875 1.58334,-2.45833 1.66667,-2.79167 z"
         id="path15641"
         style="fill:url(#linearGradient15120)" />
    </g>
    <path
       d="m 168.21389,152.85212 0.26022,-0.10511 1.17178,-0.083 q 0.52078,-0.0354 1.51896,-1.32272 0.0866,-0.0929 2.30015,-0.98748 l 0.17361,-0.1858 q 0.60758,-0.56382 0.868,-0.75584 l 0.82457,-0.0583 q 0.0866,-0.008 0.69438,-0.43976 0.60759,-0.477 2.56052,-1.13609 1.99636,-0.66214 2.60394,-1.05238 0.26021,-0.10511 1.90956,-0.39559 l 1.21516,-0.30313 0.95481,0.0197 q 2.3001,-0.16298 3.29828,2.8044 0,0.1736 0.21691,0.54881 0.21691,0.33186 0.21691,0.50543 0,1.82275 -1.77937,3.94508 l -0.60758,1.64878 q 0,0.0866 -0.4774,0.68479 -0.43398,0.59491 -0.78119,1.4007 -0.34721,0.76234 -1.86614,2.38889 -0.26021,0.53924 -0.73776,1.70138 -0.4774,1.1188 -0.82461,1.49058 -0.30391,0.36886 -1.69253,2.72377 -1.34539,2.35199 -1.34539,2.74259 -0.65097,0.52349 -0.91138,1.67032 -0.21691,1.14372 -0.86796,2.18799 l -0.0866,0.30982 q 1.38877,-0.57574 1.38877,-1.6173 0,-0.1303 0.73777,-0.70325 l 0.34721,-0.63214 q 0.52083,-0.64447 0.91138,-0.75891 0.0866,-0.35351 0.91138,-1.06274 0.82461,-0.75276 1.08498,-1.0316 0.30391,-0.28187 0.95479,-0.58837 0.65097,-0.34997 1.47554,-2.27445 0.0866,-0.35351 0.651,-0.61029 0.60759,-0.26022 0.99819,-0.76506 0.39051,-0.54846 0.65096,-0.74048 l 0.34722,-0.54539 q 0.47735,-0.46779 0.65096,-0.56688 l 2.12654,-2.75451 q 1.69257,-1.20482 1.86617,-1.82469 l 0.34722,-0.1114 0.26021,-0.0197 q 0.69439,-0.61338 0.91138,-0.84572 0,-1.30197 0.95475,-1.76016 0.99818,-0.50467 1.43216,-1.09958 0.43402,-0.63833 0.9548,-0.67522 0.1303,-0.008 0.47739,0.22675 l 0.0866,-0.008 q 0.1303,-0.008 0.26021,-0.45244 v -0.43398 q 0,-0.73776 0.43398,-1.24591 0.43402,-0.5081 1.17178,-0.69056 0.73777,-0.22597 1.43215,-1.22978 0.69439,-1.00393 1.56239,-1.1088 0.91137,-0.10786 1.21516,-0.78044 0.30391,-0.6725 1.86614,-1.52088 1.56238,-0.89182 1.95297,-0.96287 0.39052,-0.11456 0.69436,-0.30942 0.3472,-0.19802 0.69438,-0.22282 0.43402,-0.0315 1.25859,0.17124 l 0.78119,0.1181 q 0.99814,0.36336 1.86613,1.47365 l 0.43398,0.40324 v 0.1736 l 0.0866,0.73163 v 0.34721 q 0.5642,0.22045 0.5642,0.48087 l -0.30391,0.58569 q -0.17361,0.31612 -0.17361,0.75005 0,0.39052 -0.0433,0.82768 -0.0433,0.39367 -0.1303,0.79041 -0.0433,0.35036 -0.17361,0.70667 -0.0866,0.30981 -0.2169,0.62293 -0.13031,0.26966 -0.30391,0.54231 l -0.34722,1.41335 q -0.17361,0.83689 -0.95476,2.06394 -0.73781,1.18065 -0.86799,1.66722 -0.13031,0.44323 -0.60758,1.25819 l 0.0866,0.25431 v 0.60759 q 1.3454,-0.26888 1.3454,-1.13683 0,-0.91138 1.08494,-1.4222 l 0.9548,-0.84878 q 1.12836,-2.07627 2.77751,-2.80062 0,-0.69439 0.82457,-1.49057 l 1.64918,-1.67915 1.17178,-0.73394 q 0.78116,-1.66108 1.77934,-2.07896 l 0.95479,-0.67517 q 0.86796,-0.49547 0.95476,-0.89221 0.1303,-0.44322 0.69439,-0.91715 0.56416,-0.47394 1.64915,-1.54892 l 0.3472,-0.19841 0.43398,-0.46468 q 0.4774,-0.29407 1.08498,-0.51083 l 0.34722,-0.19841 q 1.08498,-0.90137 1.95298,-1.22323 0.86795,-0.36533 1.95293,-1.09309 l 1.51896,-0.32438 q 0.52078,-0.21062 0.69439,-0.22282 4.1229,-0.2921 4.1229,4.35174 l -0.0866,0.70053 0.0866,2.51099 q -1.08499,1.85617 -1.08499,1.94298 l 0.0866,0.77505 q 0,0.1736 -0.5642,1.08152 -0.56421,0.86453 -0.69439,1.04735 -0.0866,0.1799 -0.7812,0.96669 l -0.43397,1.33267 q -0.21691,0.44937 -0.73777,0.87685 v 0.52078 q 0,0.65096 -1.69256,2.07281 -0.21692,1.14372 -0.7812,1.74788 -0.52078,0.55766 -0.82457,1.18674 -0.26021,0.58263 -0.86795,1.14643 0,0.5642 -0.73781,1.96179 -0.73777,1.39764 -1.17175,1.81894 -0.39051,0.37477 -0.82457,1.31696 l -0.39051,0.20117 q -0.26022,1.6676 -0.60763,1.9092 l -0.69435,-0.0393 v 0.1736 q 0,0.0866 0.17361,0.29131 0.17361,0.20472 0.17361,0.46508 0,0.30392 -0.26022,0.53925 -0.26021,0.23541 -0.30391,0.4555 -0.0433,0.22007 -0.2169,0.44934 -0.13031,0.22636 -0.17361,0.88027 -0.0433,0.61065 -0.65101,1.73867 -0.60758,1.12801 -0.65096,1.52168 -0.0433,0.39366 -0.13031,0.66017 -0.0866,0.26652 -0.0866,0.52692 0,0.26022 -0.21692,1.36075 0.82458,1.89455 1.17179,2.56438 0.34722,0.66978 0.34722,0.88677 0,1.73594 -0.43398,2.37427 -0.43398,0.59491 -2.12654,0.71479 -1.08499,0.0767 -1.90956,-0.60259 -0.78119,-0.72584 -1.38877,-0.68281 v -0.7812 l -0.0866,-0.0807 -0.69438,0.0492 q -0.0866,-0.0807 -0.39052,-0.27597 -0.26021,-0.1984 -0.52078,-0.57073 l -0.26021,-0.24211 q -0.34722,-0.40936 -0.60759,-1.38912 l -0.26021,-0.84953 0.0866,-0.70053 -0.0866,-1.07884 q 0,-0.43398 0.0866,-0.70053 l 0.0866,-1.17789 q 0,-0.1736 0.17361,-0.75009 0.17361,-0.61987 0.21691,-1.40412 0.0433,-0.82765 0.39052,-1.28623 0.34721,-0.45858 0.39051,-0.76544 0.0433,-0.30706 0.21691,-0.49276 0.21691,-0.23225 0.34721,-1.02274 0.1303,-0.7904 0.91138,-1.32311 0.43398,-0.81194 0.73781,-1.52781 0.91137,-1.32311 0.95476,-1.32618 l 0.60757,-0.0429 q -0.43397,-0.49003 -0.43397,-0.57684 0,-1.17178 0.91138,-1.2363 0.1736,-0.0118 0.43398,0.0559 l 0.1736,-0.35942 -0.1736,-0.72548 q 0,-0.73781 1.12835,-1.55549 0,-1.25856 1.17179,-2.33972 l -0.0866,-0.68824 q 0.26021,-0.27872 0.73776,-1.18061 0.4774,-0.94519 1.21517,-1.90881 l 1.34539,-2.135 0.60759,-0.73742 q 0,0.0433 0,0.0433 0.0433,-0.0464 0.0866,-0.17951 0.0866,-0.1799 0.17361,-0.48968 l 0.26021,-0.66943 0.30391,-0.36886 q 1.12837,-0.38382 1.12837,-0.86111 0,-0.0866 -0.34722,-0.53959 v -0.17361 q 0,-0.34721 0.52078,-0.90488 0.52078,-0.55767 0.95476,-1.49975 0.47741,-0.98861 0.47741,-1.2056 0,-0.1736 -0.17361,-0.1614 -1.38878,0.0984 -1.86614,1.13029 0,0.26061 -1.69256,1.16143 l -0.43398,0.68172 q -0.52082,0.51428 -0.91138,0.54196 -0.39051,0.0275 -1.0416,0.59451 -0.60758,0.52043 -2.73412,2.45037 -2.12655,1.88653 -3.12472,3.08559 l -0.99818,0.76505 q -0.60759,0.34683 -0.60759,0.52042 0,0.43398 -0.73777,1.18061 l -0.52078,0.68785 q -0.60758,-0.17399 -0.69438,-0.1677 -0.47741,0.0354 -0.82458,0.53578 0.34722,0.3228 0.34722,0.40942 0,0.69438 -1.30198,1.52435 l -1.86613,2.08509 q -0.0866,0.0929 -0.651,0.52349 -0.56417,0.43056 -0.86795,1.05963 -0.26022,0.58263 -1.51896,2.14733 -1.25859,1.52128 -1.47559,1.66682 -0.2169,0.10196 -0.52078,0.60109 -0.3039,0.49889 -1.25858,1.43448 -0.95475,0.93558 -1.08494,1.98635 -0.82462,0.36218 -0.82462,0.57921 l -0.26021,0.4524 -0.34721,0.19801 q -0.0866,0.17951 -0.13031,0.61679 -0.0433,0.39367 -1.73594,1.59848 -1.69257,1.16144 -2.12655,1.19218 -0.1303,0.008 -0.39051,0.20117 -0.26021,0.1921 -0.34721,0.19801 -0.13031,0.008 -1.17179,-0.4378 -0.99818,-0.45011 -1.47558,-2.32585 l 0.34722,-1.15297 -0.17361,-0.89909 q 0,-0.26021 0.39051,-0.72202 0.43398,-0.46472 0.43398,-1.11569 0.69439,-1.61155 1.04161,-2.28712 l 0.0866,-0.70053 q 0.17361,-0.44626 0.56416,-0.99471 0.43403,-0.59495 0.52079,-1.25206 0.0866,-0.70053 0.5642,-0.90791 0.47739,-0.20746 3.51532,-5.50022 v -0.60758 l 1.25854,-2.25905 q 0.5642,-0.99476 1.38878,-2.26831 l 0.39051,-1.02581 q -1.34534,-0.42551 -1.43215,-0.41937 -0.26022,0.0197 -0.651,0.39327 0,0.73777 -2.56052,1.70029 -0.52078,0.29721 -1.34536,1.35381 l -1.21516,0.78044 q -0.26022,0.19211 -0.82462,0.75277 l -0.60758,0.60723 q -1.08495,0.33737 -1.86613,1.34732 l -1.17179,0.90751 q -0.52078,0.47091 -0.69439,0.70018 -0.1736,0.22912 -1.60576,1.06849 l -0.69439,0.74356 -0.65096,0.39326 q -0.69439,0.78698 -1.04156,1.33233 -0.34722,0.54538 -0.91138,0.67214 l -0.95479,0.41481 q -0.26022,1.14679 -1.60577,2.28362 l -1.25855,1.6515 q -0.34721,0.32832 -0.60758,0.52038 -0.17361,0.44631 -0.60758,0.65061 -0.5642,0.73435 -0.73778,1.00705 l -0.52081,0.42748 q -1.17175,0.51696 -1.17175,0.77733 l 0.0866,0.77504 q 0,0.47741 -1.04156,0.98511 -0.43401,0.24762 -0.52078,0.73128 -0.0433,0.48047 -0.30391,1.01971 l -0.78115,0.0551 q -0.13031,0.008 -0.82462,0.49235 -0.0866,0.008 -0.1736,0.0992 l 0.1736,0.98589 q 0,0.52078 -0.69434,1.26433 -0.69439,0.70018 -1.08498,1.24859 -0.34722,0.54539 -0.52078,0.55767 l -0.26021,0.0197 -0.26022,0.19212 q 0.0433,0.8215 -1.08499,1.85616 l -0.52081,0.68786 q -0.26021,0.23541 -1.47554,2.27444 -1.21517,2.03899 -2.30015,3.33101 -1.08498,1.29196 -1.99636,1.7905 -0.91137,0.45512 -1.95293,0.96287 l -1.77937,-0.22124 q -0.26021,-0.45894 -0.78115,-0.72584 -0.4774,-0.27005 -0.4774,-0.61719 l -0.52078,-1.48207 q 0,-0.60758 0.4774,-1.50939 0.47736,-0.94515 0.56416,-1.4287 0.13031,-0.53003 0.52078,-1.38224 0.39052,-0.89567 0.39052,-0.98247 0,-1.17174 0.34721,-1.45672 0.39052,-0.33146 1.69253,-1.42181 0.0866,-0.008 0.0866,-0.1799 v -0.0866 l -0.0866,-0.73166 q 0.99818,-1.76324 1.25859,-1.78165 0.0866,-0.008 0.3472,0.0622 l -0.26021,-0.93634 q 0,-0.17361 0.4774,-0.59801 0.47736,-0.42438 0.73777,-0.92019 l -0.1736,-0.5085 v -0.1735 q 0,-0.82457 1.08498,-1.76937 0.17361,-0.35942 0.69439,-1.82854 l 1.12836,-2.07623 q 0.43398,-0.85532 0.91137,-1.1495 0.4774,-0.33777 0.52079,-0.73128 0.0433,-0.39366 0.30391,-0.88948 0,0.2169 0.0433,0.0401 0.0866,-0.2232 0.21692,-0.88334 0.1736,-0.66329 0.99817,-1.11226 0.99818,-2.63123 1.56238,-2.67118 0.17361,-0.0118 0.4774,0.13975 l 0.17361,-0.0118 q 0.69439,-0.0492 0.69439,-0.56995 0,-0.17361 -0.17361,-0.1614 -0.39052,0.46165 -0.69435,0.48315 -0.30391,0.0197 -0.30391,-0.15196 0,-0.0866 0.1303,-0.18266 l 0.95476,-2.02057 0.0866,-0.83072 q 0.17361,-0.2728 0.69439,-0.83035 l 0.73777,-1.05042 v -0.43398 q 0,-0.0866 0.39051,-0.89563 0.39052,-0.85224 0.5642,-1.64572 l 0.73777,-1.13722 q 0.17361,-0.53306 0.17361,-0.96708 0,-0.65096 -0.17361,-0.63868 l -2.51713,0.65561 q -2.03975,1.18604 -2.9077,1.85508 l -0.99818,0.28776 q -0.0866,0.008 -1.17178,0.69057 -1.04157,0.63793 -1.86618,0.78311 -0.78115,0.0988 -1.38873,0.70593 l -0.1736,0.0992 -0.82458,0.0582 q -0.4774,0.59802 -0.65096,0.91409 -0.17361,0.27281 -0.30391,0.28186 -4.38328,3.21814 -5.55506,3.90867 -1.17174,0.69057 -1.77933,1.25438 -0.60758,0.52043 -1.0416,0.76812 v 0.52082 q 0,0.73777 -1.08494,1.76937 -1.0416,0.98515 -1.82276,1.04045 -0.26021,0.0197 -0.82457,-0.20194 -0.52081,-0.26691 -1.2152,-0.3047 -0.65097,-0.0406 -0.65097,-1.60304 0,-2.21335 3.6455,-4.29423 0.5642,-0.30037 1.04156,-0.68135 0.4774,-0.38108 3.86253,-1.96605 l 1.25856,-0.69672 q 0.43397,-0.46472 1.43215,-0.88259 1.0416,-0.46437 1.60576,-0.7647 0.60759,-0.30352 0.9548,-0.41481 z m 40.70819,7.61995 0.43398,-0.81193 v -0.0866 q 0,-0.0866 -0.17361,-0.0744 -0.43401,0.0315 -0.69438,0.91711 0.0866,0.25431 0.1736,0.24802 0.1736,-0.0118 0.26022,-0.19211 z"
       style="font-size:85.3333px;-inkscape-font-specification:'Rage Italic, ';letter-spacing:0px;word-spacing:0px;display:inline;fill:#ffff00;stroke-width:1.04158"
       id="path15612" />
    <path
       d="m 256.0967,178.48381 -2.03978,1.92377 q -0.1736,-0.16141 -0.34721,-0.1492 -0.43398,0.0315 -1.08498,0.85804 -0.60759,0.82417 -0.86796,0.84263 l -0.43402,-0.0559 q -1.08498,0.90142 -1.56234,1.06542 -0.4774,0.16416 -1.17179,0.56038 -0.65096,0.39328 -1.21516,0.47661 -0.52078,0.0803 -0.868,0.45209 -0.34721,0.32831 -1.69252,0.42362 l -0.69439,-0.0393 q -0.5642,0.30036 -0.73781,0.31257 -0.34721,0.0236 -0.73777,-0.29486 -0.39051,-0.36296 -0.86795,-0.37241 -0.43401,-0.0118 -0.91138,-0.54305 -0.47739,-0.53039 -0.91137,-0.71664 -0.39052,-0.18935 -0.651,-0.56148 l -0.60759,-0.47779 q -0.73777,-0.46854 -1.43215,-1.80811 -0.69439,-1.3396 -0.69439,-2.12079 v -0.17361 l 0.0866,-0.83075 -0.0866,-0.94862 q 0.17361,-0.18581 0.43398,-0.76851 v -1.38878 l 1.04159,-3.54566 q 0.0866,-0.22321 -0.34721,-0.5396 -0.43397,0.68171 -0.86795,0.84263 -0.43402,0.16101 -0.60758,0.65061 -0.13031,0.48662 -0.4774,0.51122 l -0.52078,-0.1366 q -0.0866,0.0929 -0.39052,0.93901 -0.30391,0.80269 -1.0416,0.85493 -0.78115,0.0555 -0.78115,-0.55224 l 0.0866,-0.78733 -0.26021,-1.06656 q 0,-0.34721 0.69439,-1.39452 0.69439,-1.09073 1.25855,-1.26091 0.60758,-0.21651 0.99818,-0.89524 0.43401,-0.72513 1.82275,-1.77822 0.78119,-0.22912 1.34535,-1.22363 0.60763,-0.52043 1.56239,-0.89186 0.99817,-0.37438 1.47557,-0.97243 0.52078,-0.64447 2.95112,-2.03175 2.47372,-1.43373 3.60212,-1.51364 0.34721,-0.0236 0.95475,-0.24132 0.60759,-0.25981 1.12837,-0.42708 0.52078,-0.21061 1.08498,-0.55421 0.5642,-0.38698 0.91137,-0.41173 l 1.25859,0.34485 q 1.38874,0.2921 1.69253,0.44437 0.0866,0.0807 0.86799,0.3291 0.82457,0.20195 1.64915,0.62101 0.86799,0.41591 0.86799,1.71787 -0.73777,1.13723 -0.73777,1.22403 0,0.17361 0.99815,0.45012 0.3472,0.6264 1.04159,1.61879 l 0.47736,1.48515 0.0866,3.55256 -0.0866,0.35351 q -0.47736,0.46778 -0.47736,0.59797 l 0.13031,0.85879 -0.34722,1.23973 q -0.1303,0.57341 -0.43401,0.76851 -0.30391,0.19526 -0.39052,0.46165 l -0.26022,0.36572 q -0.0866,0.13621 -0.39051,0.80882 -0.26021,0.62605 -0.60759,0.99779 -0.3472,0.37162 -0.43397,0.85532 -0.0866,0.48354 -0.43401,0.72513 -0.34722,0.24171 -0.52078,0.51424 -0.13031,0.22637 -0.47741,0.42442 z m -13.49707,2.08411 0.17361,0.98589 0.0866,0.0807 0.69435,-0.0492 0.21691,0.0712 q 0.86795,0.1122 1.30193,0.0815 1.34539,-0.0953 2.12658,-0.80155 0.82457,-0.7528 1.30197,-0.78658 0.47736,-0.0354 0.78115,-0.70631 0.34722,-0.67557 0.43398,-0.68172 l 0.60762,-0.0429 0.17361,-0.0992 q 0,-0.99818 0.86799,-1.49364 0.91138,-0.4985 1.25855,-1.2175 0.39051,-0.7654 0.868,-1.14643 0.47739,-0.42437 0.65096,-1.04427 l 0.34721,-0.54535 q 0.17361,-0.18581 0.17361,-0.66329 l 0.82457,-1.62076 q 0.26021,-1.10341 0.26021,-1.71099 0,-0.91138 -0.95476,-1.36457 -0.91137,-0.45621 -0.91137,-1.97517 0,-0.99818 0.99818,-1.89346 1.04156,-0.94172 1.04156,-1.11533 0,-0.2606 -0.26021,-0.24211 -0.1303,0.008 -0.99814,0.41789 -0.30391,0.62907 -3.08134,1.82392 -0.91138,-0.36964 -0.99818,-0.36335 -0.26022,0.0197 -0.52078,0.55767 -0.26022,0.53924 -0.52078,0.77469 l -0.5642,0.0398 q -0.0866,0.008 -0.56416,0.60415 -0.4774,0.59798 -1.21517,0.65022 l -0.52082,0.55766 q 0.0433,0.69132 -0.86795,1.49365 l -0.47741,0.59798 q -0.43397,0.55153 -1.12835,1.29508 l -0.7812,2.00825 q -0.47736,1.16218 -0.47736,1.72638 -0.1303,0.26966 -0.60762,0.60719 -0.43398,0.29132 -0.43398,0.72513 0,0.0866 0.30391,0.41249 0.30392,0.32556 0.30392,0.49924 l -0.17361,0.57649 -0.17361,1.61804 z"
       style="font-size:85.3333px;-inkscape-font-specification:'Rage Italic, ';letter-spacing:0px;word-spacing:0px;display:inline;fill:#ffff00;stroke-width:1.04158"
       id="path15614" />
    <path
       d="m 303.83548,171.11065 0.1736,-0.0118 0.43402,0.1429 q 0.0866,-0.008 0.17361,-0.0992 0,-0.73781 0.69438,-1.30776 0.21691,-0.83992 0.9548,-1.32618 0.78115,-0.48929 2.43033,-1.60423 l 1.08495,-1.03164 0.52081,-0.29722 0.34722,-0.45857 q 0.4774,-0.59798 0.91137,-0.62873 0.65101,-0.0461 0.65101,0.4313 l -0.39052,0.89562 0.17361,1.41988 q 0,0.78119 -0.56416,1.42873 -0.52078,0.64447 -1.64919,1.89614 l -2.21334,2.50024 -1.17174,0.69057 q -0.43398,0.29092 -0.7812,0.66289 l -1.69252,1.55203 q 0,0.60759 -0.39052,0.93905 l -0.69439,0.0492 -0.34721,0.19801 q -0.30391,0.8461 -1.77933,1.73177 l -0.60758,0.47701 q -0.30391,0.28186 -0.56421,0.30037 l -1.21516,-0.0874 -0.82458,0.23187 q -0.34721,0.0236 -0.95479,-0.27951 -0.56417,-0.30705 -1.17175,-0.43779 -0.60758,-0.174 -1.56238,-1.49515 -0.91137,-1.36763 -0.99818,-1.79546 0,-0.17361 -0.21691,-0.54882 -0.1736,-0.42169 -0.1736,-0.50849 0,-0.0866 0.39051,-0.89563 v -0.0866 q 0,-0.1303 -0.26021,-0.58916 -0.21691,-0.46201 -0.21691,-1.1564 0,-0.39051 -0.26061,-0.97971 0.34722,-0.37162 0.34722,-0.54538 0,-0.17361 -0.13031,-0.46819 -0.1303,-0.33777 -0.1303,-0.51157 l 0.26021,-2.14496 -0.1736,-1.07271 0.0866,-1.0477 q 0,-0.91137 -0.78118,-0.85606 -0.34722,0.0236 -0.86796,0.53885 l -0.30391,0.10825 q -1.17175,0.64715 -1.64914,1.07157 -0.47736,0.38106 -0.99818,0.41787 -0.26021,0.27872 -0.99818,0.54806 l -0.34721,0.28501 q -0.17361,0.18582 -0.69439,0.56996 0,0.1303 -1.64914,1.59233 -1.60577,1.4157 -2.90774,2.67964 -1.30197,1.26399 -1.90956,1.4372 -0.5642,0.12676 -0.5642,1.1249 0,0.1736 -0.78115,0.74969 -0.0866,0.008 -0.91137,1.01933 -0.69439,-0.47161 -0.78119,-0.46548 -0.5642,0.0401 -0.82457,1.49058 -0.26021,0.58263 -1.38878,0.79272 -0.0866,0.0496 -0.30391,0.67247 l -0.1736,0.18581 -0.43398,0.0315 q -0.0866,0.008 -0.60758,0.5638 -0.52078,0.51429 -0.91138,0.67215 -0.5642,1.2117 -0.9548,1.23938 -0.1736,0.0118 -0.52078,-0.13661 -0.30391,-0.15195 -0.78119,-0.2484 -0.47735,-0.0964 -1.08494,-0.96476 -0.5642,-0.91484 -0.5642,-1.5658 0,-4.81729 1.86617,-5.38342 l 0.0866,-0.1799 v -0.34722 q 0,-0.5642 0.4774,-0.81496 0.52078,-0.29722 1.04156,-1.02854 0.52082,-0.77465 0.69439,-0.87377 l 0.5642,-0.0398 q 0.17361,-0.0118 0.17361,-0.9237 0,-0.26022 0.2169,-0.49275 0.21692,-0.23227 0.26022,-0.62601 0.0433,-0.43708 0.60758,-1.38842 0.60758,-0.99778 0.60758,-1.17139 l -0.0866,-0.16731 q -1.08495,1.07499 -1.56234,1.1956 -0.47741,0.12046 -1.30198,1.35075 l -0.69439,-0.0811 q -1.82274,1.47444 -2.25672,1.67879 -0.43398,0.20431 -0.95476,1.06577 0,0.26021 -0.30391,0.36887 -0.30391,0.10825 -1.12836,0.77426 l -0.26021,0.0197 q -1.08499,0.0767 -1.08499,-1.48554 l 0.91138,-2.53828 q 0.39051,-1.19942 1.82275,-2.08202 1.47558,-0.92905 2.47375,-1.73752 0.99814,-0.80847 1.99637,-0.92256 l 0.3039,-0.4555 q 1.47558,-0.66868 1.99636,-1.92074 0.52078,-1.25202 1.43215,-1.31658 2.38696,-0.16888 3.64555,1.52124 1.25854,1.64683 1.25854,2.68839 l 0.0866,1.16565 q 0,0.60757 -0.26021,1.71098 -0.52078,0.81804 -0.52078,1.20863 0,0.34722 0.43401,0.31651 0.26022,-0.0197 0.69435,-0.39634 0.43401,-0.42134 0.95479,-0.76202 0.5642,-0.34367 0.65097,-0.56687 0.43401,-1.07231 1.51896,-1.53971 1.08498,-0.46744 1.3454,-0.74628 l 0.43397,-0.37791 0.34721,-0.67557 q 1.17175,-0.60377 1.56234,-1.06542 0.39051,-0.46165 1.04156,-0.63793 0.65101,-0.17637 1.47558,-0.88568 l 0.65097,-0.21966 0.60758,-0.39012 q 0.0866,-0.0929 0.52082,-0.25392 0.43397,-0.161 1.25855,-0.5231 0.86799,-0.40867 1.17179,-0.43016 2.21334,-0.15668 3.47189,1.53348 1.30197,1.68717 1.30197,2.77216 l -0.0866,0.78733 0.17361,1.15946 v 0.17361 l -0.34722,2.41152 0.0866,0.81843 q 0,2.03974 -0.86796,2.88238 -0.21691,0.10196 -0.21691,0.44937 v 0.39051 l 0.86795,1.76131 q 0.39052,0.92708 0.60759,0.91173 l 1.38878,-0.48894 q 0.60758,-0.21651 0.99817,-0.98207 0.34721,-0.19802 1.21517,-1.12758 0.26021,-0.71285 0.82457,-0.75281 z"
       style="font-size:85.3333px;letter-spacing:0px;word-spacing:0px;display:inline;fill:#000000;stroke-width:1.04158"
       id="path15616" />
    <path
       d="m 317.67972,160.97317 0.91137,-0.80233 q 1.04156,-0.16062 1.12837,-1.1649 0.0866,-1.00432 1.43215,-1.83736 l 0.52078,-0.77465 q 0.65101,-0.69707 3.55874,-1.94455 0.73777,-0.48626 0.99818,-0.85186 0.0866,-0.0929 0.1736,-0.0992 l 0.69439,0.1244 q 0.5642,-0.0401 1.43215,-0.4052 0.91139,-0.36847 1.736,-0.42673 l 1.82274,-0.21574 q 0.17361,-0.0118 0.69439,0.2114 0.56417,0.22046 1.34535,0.16535 0.95476,-0.0677 1.73595,0.74505 0.82457,0.80957 0.82457,1.54734 0,1.34539 -1.38873,2.83246 -1.38877,1.48711 -2.21335,1.71911 -0.73781,0.79004 -1.1284,1.03466 -0.39051,0.20117 -0.82457,0.66601 -0.39052,0.41823 -0.65097,0.43665 -0.17361,0.0118 -0.2606,-0.0681 -0.0866,-0.12401 -0.26021,-0.1118 -0.69439,0.0492 -1.51896,1.80011 l -0.78119,-0.0315 q -0.73778,0.52964 -0.95481,1.1092 -0.2169,0.57955 -0.91133,0.62872 -1.60576,1.71945 -2.16997,1.7594 -0.0866,0.008 -0.60757,-0.13069 -0.34722,0.45858 -0.34722,0.93598 0,0.52078 -0.69439,0.65676 l -0.5642,0.56073 -0.43398,-0.0559 -0.86799,0.97283 q -0.65096,0.0461 -1.34535,0.52924 -0.0866,0.52693 -0.26021,1.36382 -0.17361,0.79347 -0.17361,0.88027 0,1.25856 2.30015,1.09569 l 2.08316,-0.45129 q 0.82457,-0.0582 1.51895,-0.54157 0.73778,-0.48622 1.56239,-0.54464 0.26021,-0.0197 0.78115,-0.22871 l 0.43398,0.1429 q 0.30391,-0.6725 1.1284,-1.2517 0.82457,-0.57916 1.30193,-0.61298 l 0.43402,-0.29092 q 0.17361,-0.53306 0.52078,-0.73127 l 0.34721,-0.32832 q 0.34721,-0.37162 0.651,-0.39327 l 0.60759,-0.0429 0.17361,-0.0992 q 0.52078,-1.16525 1.43215,-1.40337 0.95476,-0.28463 1.17175,-0.73396 0.26021,-0.45244 0.86799,-0.58227 0.60758,-0.12991 0.99818,-0.63486 0.43398,-0.55153 1.04156,-1.02853 0.60758,-0.477 0.82458,-0.70935 0.26021,-0.23541 0.43401,-0.24761 0.26022,-0.0197 0.26022,0.37201 0,0.39052 0.1736,0.37831 0.1736,-0.0118 0.1736,-0.18581 0,-0.17361 -0.0866,-0.42784 v -0.30391 q 0,-0.651 0.69439,-0.91716 l 1.95294,-1.39684 q 0.0866,-0.91751 0.4774,-1.07538 0.43398,-0.20431 0.65096,-0.39327 0.21692,-0.23226 0.4774,-0.25077 0.56416,-0.0401 0.56416,0.61105 l -0.2169,1.14376 0.2169,1.15639 q 0,0.26021 -0.43397,0.76852 -0.39052,0.46165 -0.60759,1.43176 -0.2169,0.92677 -0.5642,1.03813 l -0.26021,0.0197 q -0.78119,0.87993 -1.25859,1.08731 -0.43398,0.16101 -0.69434,0.56999 l -1.47559,1.79704 q -0.43397,0.46469 -0.73776,0.83339 -0.30391,0.36887 -0.4774,0.38107 l -0.34721,-0.32281 q 0,-0.0866 -0.17361,-0.0744 -0.43402,0.0315 -0.5642,0.56074 -0.0866,0.52692 -0.43398,0.94212 -1.30197,0.69978 -1.69257,1.2482 l -0.26021,0.1051 -0.78119,0.0551 q -0.5642,0.0401 -0.78119,0.9233 -0.21691,0.83992 -1.25855,1.04388 -0.99818,0.20077 -1.4322,0.6222 -0.0866,0.0929 -0.39051,0.20116 -0.30391,0.10825 -1.2152,0.78044 l -3.64551,1.56014 q -0.43397,0.24761 -0.56416,0.25706 l -1.21517,0.25982 q -0.26021,0.0197 -0.52078,-0.31021 -0.26061,-0.32871 -0.34721,-0.3228 l -0.78119,0.31572 q -0.86796,0.32201 -1.64915,0.37713 -0.43398,0.0315 -0.95476,-0.2362 -0.52081,-0.26691 -0.82461,-0.37556 -1.25855,0.089 -1.77933,-1.82697 l -0.52078,0.12362 q -0.17361,0.0118 -1.17178,-2.99836 -0.26021,-0.32871 -0.82457,-0.41898 -0.5642,-0.13384 -0.5642,-0.82804 0,-1.95297 0.82457,-2.66231 0.86799,-0.75585 0.95479,-1.1092 l 0.60758,-2.29976 q 0.17361,-0.1425 0.43398,-0.89873 l 0.99819,-1.89342 q 0.1736,-0.31611 0.78118,-1.57427 z m 9.15717,-3.25239 -0.52082,0.29721 q -0.17361,0.0992 -1.04156,0.85497 -0.82457,0.70934 -1.64915,1.20174 -0.78118,0.44591 -1.64913,2.2433 -0.82462,1.79438 -0.82462,2.05474 0,0.26022 0.26061,0.24211 l 1.47557,-0.75545 q 0.82458,-0.44896 1.51897,-1.10572 0.73776,-0.65983 2.08311,-1.62308 l 0.34722,-0.37162 q 0.0866,-0.17991 0.78115,-0.6629 0.73781,-0.52963 1.08498,-0.98822 l 0.43402,-0.20431 q 0.73776,-1.22402 1.47554,-1.53667 0.78118,-0.31572 0.78118,-0.57609 0,-0.52078 -0.82457,-0.46241 -0.34721,0.0236 -1.04159,0.50776 l -0.99819,0.0709 q -0.1736,0.0118 -0.95475,0.58837 z"
       style="font-size:85.3333px;letter-spacing:0px;word-spacing:0px;display:inline;fill:#000000;stroke-width:1.04158"
       id="path15618" />
    <path
       d="m 373.01329,164.21571 v 0.47741 l 0.0866,0.34091 v 0.1736 q 0,0.0866 -0.1736,1.01047 -0.65101,0.74048 -0.73781,2.00517 l -0.52078,0.81808 q 0,0.60758 -0.43398,0.9855 -0.39052,0.37477 -0.69439,1.43794 -0.30391,1.06306 -0.73776,2.26558 l -0.99819,2.54442 q 0,0.17361 0.17361,0.16141 0.0866,-0.008 0.26021,-0.10511 0.21691,-0.10235 0.39052,-0.11456 0.17361,-0.0118 0.34721,0.0623 0.17361,0.0744 0.26022,0.0681 0.0866,-0.008 0.60758,-0.34682 0.56416,-0.34367 1.25855,-0.47972 l 1.60576,-0.50429 q 0.52078,-0.21061 2.12655,-0.32398 l 1.34539,-0.18188 q 1.60576,-0.11377 3.21148,0.59719 1.64918,0.70778 2.03978,1.59152 0.43398,0.88063 0.43398,2.92036 0,1.60577 -1.08498,1.68261 -0.65097,0.0461 -1.69257,-0.70473 -0.99817,-0.75388 -1.38873,-1.98479 -0.39053,-1.23092 -1.25859,-1.16946 l -1.08498,-0.27045 -0.60759,0.21651 -0.17361,0.0118 q -0.1736,0.0118 -0.78119,-0.20509 l -0.1303,0.008 -1.30197,0.43937 -1.77937,0.12598 -0.82457,0.49239 q -0.60758,0.21652 -1.34536,0.35548 -0.69438,0.13582 -1.25858,0.4363 -0.56416,0.30036 -0.56416,0.51736 0,1.34535 -1.17179,2.38313 -0.43397,0.72509 -0.4774,1.11876 -0.0433,0.43705 -0.52078,0.94826 -0.43398,0.55153 -0.95476,1.62997 l -0.34721,0.63215 q -0.17361,0.27282 -0.17361,0.4463 0,0.0866 0.0866,0.34092 v 0.39051 q 0,1.21517 -1.43216,2.40156 v 0.43401 q 0,0.34722 -0.69439,1.04732 l 0.17361,0.8557 q 0,0.17361 -0.4774,0.72817 -0.47736,0.59798 -0.82457,1.27355 -0.30391,0.71592 -1.21517,1.30122 v 0.26021 l 0.26022,0.50236 q 0.1303,-0.008 0.1303,0.16416 0,0.30391 -0.65097,0.95747 -0.17361,0.70667 -0.60758,1.38838 l -1.77938,2.51297 q -0.43397,0.63829 -0.43397,0.9855 l -0.30391,0.84611 q -0.4774,0.42437 -0.69438,0.83031 -0.17361,0.4463 -1.12837,1.72906 -0.9548,1.2828 -1.25859,1.3043 0.26021,0.50236 0.26021,0.58916 0,0.52078 -0.69439,1.30775 -1.12835,0.0799 -1.12835,0.55728 l 0.2169,0.8526 q 0,0.1736 -0.47739,0.5546 -0.4774,0.38106 -0.7812,0.40252 l -0.60758,0.0429 0.17361,0.7689 q -0.17361,0.48969 -0.52078,0.68785 -0.34721,0.19801 -1.17179,1.08117 -0.78118,0.9233 -1.12836,1.12147 l -0.56421,0.38697 -1.69252,0.29368 q -0.69439,-0.16771 -2.69074,-1.24166 -1.95294,-1.07687 -2.21335,-2.14339 -0.30391,-1.02007 -0.30391,-2.97301 0,-0.21691 0.43398,-0.76851 l 0.0866,-0.35351 v -0.82458 q 0,-0.0866 0.43398,-1.59309 0.43401,-1.46289 0.7378,-1.658 0.30392,-0.15156 0.95476,-1.76015 0.65101,-1.60848 0.99818,-2.11044 l 3.99272,-6.14158 q 0,-0.5642 0.1736,-0.75009 l 0.26022,-0.0197 q 0.3472,-0.0236 0.47739,-0.29407 0.1303,-0.22636 0.39052,-0.54845 0,-0.82458 0.73777,-1.39764 0.78118,-0.57609 1.08498,-1.24859 0.34721,-0.63214 0.78118,-1.18367 l 0.0866,-0.26651 q 0.17361,-0.18582 0.73781,-0.48622 0.60758,-0.25982 0.69439,-0.70018 l 1.47553,-1.53663 q 0.21691,-0.18896 0.69439,-0.48318 0.4774,-0.29407 0.99818,-1.02542 l 0.30391,-0.15156 0.26021,-0.0197 0.17361,-0.0992 q 0.52082,-1.16525 1.0416,-1.2889 0.56416,-0.12676 0.73777,-0.31257 -0.0433,-1.34228 1.51896,-1.45294 0.34721,-0.0236 0.52078,-0.21061 l 1.04156,-0.89835 q 0.21691,-0.18896 0.82461,-1.75094 v -0.0866 l 0.78119,0.1618 0.0866,-0.22321 -0.17361,-0.94252 q 0.1303,-0.18266 0.52078,-1.20863 0.39052,-1.06924 0.73777,-1.26741 0.34721,-0.19802 0.34721,-0.41516 v -0.52078 l -0.0866,-0.51468 0.17361,-0.35942 v -0.5642 l 0.0866,-0.1799 q 0.21691,-0.23227 0.52078,-1.64265 0.17361,-0.18581 0.4774,-0.38107 l 1.95293,-5.64993 q 0.0866,-0.22321 0.26022,-1.14683 l 0.34721,-0.50196 q 0.52083,-1.42562 0.52083,-1.81621 0,-0.17361 -0.17361,-0.16141 -0.17361,0.0118 -0.78119,0.57609 -0.60759,0.52043 -0.91138,0.54192 l -0.69439,-0.12439 -0.17361,0.0118 q -0.26021,0.0197 -0.73776,0.48621 -0.43398,0.46476 -0.52078,0.4709 l -0.52078,0.12362 q -0.43402,0.76855 -0.78119,0.87992 l -1.08499,0.77118 -0.0866,0.008 -0.60758,-0.39092 q 0,-0.0866 -0.21691,-0.0712 -0.17361,0.0118 -0.52078,1.07844 l -1.34535,0.74628 q -0.43402,-0.056 -0.52078,-0.05 -0.43402,0.0315 -0.82461,0.88295 -0.39052,0.80887 -1.04156,0.94173 -0.34722,0.4152 -1.60577,0.72131 l -2.56052,1.96065 q -0.43402,0.20432 -0.60758,0.47701 -0.91137,0.15117 -1.69257,1.11805 l -1.17178,-0.004 q -0.43398,0.0315 -0.86796,0.62566 -0.39051,0.59184 -0.82461,0.62258 l -0.26021,0.0197 -0.52078,-0.05 -1.4322,0.44861 q -0.60754,0.0429 -1.86613,-0.77926 -1.25855,-0.86563 -1.25855,-1.56001 l -0.26021,-1.93452 q 0,-0.0866 0.34721,-0.63218 0.34722,-0.54535 0.34722,-0.76238 0,-0.0866 -0.0866,-0.34091 v -0.34775 q 0,-1.51896 1.08499,-3.72235 v -0.17361 q 0,-0.17359 -0.26021,-0.1551 -0.56421,0.0401 -0.95476,1.02239 -0.39052,0.93902 -0.91138,1.3665 -0.52082,0.42748 -0.78119,0.70631 -0.21691,0.27596 -0.39051,0.28816 -0.26022,-0.1551 -0.60759,-0.2173 -0.0866,-0.0807 -0.30391,-0.49925 -0.21691,-0.41866 -0.651,-0.64828 -0.47736,-0.27006 -0.47736,-0.9644 0,-0.47741 1.25854,-1.34768 l 0.52078,-0.55767 q 1.99637,-2.13772 2.69075,-2.31707 l 0.26022,-0.62602 q 0.60758,-0.52042 1.47554,-1.40644 0.91137,-0.93255 1.60576,-1.3289 l 2.34352,-2.20571 q 1.04161,-1.02853 2.86436,-1.15761 1.38877,-0.0984 1.38877,1.68103 0,1.77937 -0.651,2.82365 -0.60759,0.99778 -0.78119,1.83463 -0.13031,0.79041 -1.12837,2.20646 -0.99818,1.37268 -1.21517,2.039 -0.2169,0.62297 -0.91137,1.8005 -0.65096,1.13108 -0.65096,1.99903 0,0.43402 0.52077,0.39713 0.73777,-0.0524 1.86614,-0.91334 l 0.39051,-0.20116 q 0.43398,-0.20432 0.868,-0.49547 l 1.08494,-0.5542 q 0.30391,-0.6725 0.9548,-0.93559 l 0.82457,-0.4924 q 0.60758,-0.30351 1.47558,-0.75544 0.91137,-0.49854 1.17174,-0.90756 0.26021,-0.40902 0.65101,-0.65368 0.43397,-0.29131 0.95475,-0.84878 1.12837,-0.0799 3.12472,-2.17421 1.99637,-1.31316 3.73231,-2.56446 1.73595,-1.29469 2.30015,-1.85543 0.2606,-0.19211 0.91137,-0.54191 0.69439,-0.35313 1.51896,-1.06235 0.868,-0.75584 2.16993,-0.84803 1.1284,-0.0799 2.16996,0.7143 1.04161,0.75084 1.04161,1.57541 l -0.0866,2.0893 q 0,1.99636 -1.08498,3.46194 -0.26021,1.7544 -0.60758,2.42998 l 0.0866,0.99203 q 0,0.26022 -0.9548,0.93555 z m -20.57108,34.70022 0.21691,-0.62294 q 0.0866,-0.30981 0.60762,-0.65061 0.43398,-1.89691 1.17175,-2.51332 0,-0.9548 0.0866,-1.09112 l 0.60758,-0.60723 1.69257,-2.98415 q 0.26021,-0.62604 0.56416,-1.21174 0.30391,-0.54227 0.4774,-1.07537 0,-0.60759 1.43215,-2.48836 v -0.30391 q 0,-0.60759 -0.26021,-0.58913 -0.26021,0.32203 -0.86799,0.66904 l -2.77755,2.54021 q -0.21691,0.18896 -1.17174,1.47176 l -0.82457,0.92637 q -0.69439,0.78694 -1.08499,0.98818 -0.34721,0.24171 -0.91138,1.32311 -0.52078,1.12187 -0.91137,1.1495 l -0.17361,0.0118 q -0.0433,0.003 -0.43398,-0.1862 -0.26021,0.14881 -0.26021,0.40902 l 0.26021,1.02313 q 0,0.17361 -0.34721,0.54539 -0.34721,0.41516 -0.60758,0.8676 -0.21691,0.44937 -0.47736,0.5546 -0.26021,0.10511 -0.9548,1.67335 l -0.82457,0.4924 q -0.1303,2.56973 -1.60576,4.23659 -0.34722,0.71895 -0.5642,1.38531 -0.21692,0.70973 -0.39052,0.89563 -0.26022,1.62422 -0.91138,1.93069 -0.17361,0.0992 -0.17361,0.27281 0,0.26022 0.39053,0.49315 l 0.1736,0.1614 q -0.56416,1.73252 -0.56416,2.5571 0,0.1736 0.17361,0.1614 l 1.30193,-0.74317 q 1.38877,-0.7493 1.86617,-1.78129 l 0.69438,-1.39452 q 0.17361,-0.27282 0.60759,-0.39013 0.26021,-0.92979 0.82458,-1.23016 0.60757,-0.30352 0.60757,-0.73742 0,-0.43397 1.60576,-3.10822 1.64915,-2.67728 1.73595,-3.03064 z"
       style="font-size:85.3333px;letter-spacing:0px;word-spacing:0px;display:inline;fill:#ffffff;stroke-width:1.04158"
       id="path15620" />
  </g>
</svg>
