<?xml version="1.0" encoding="UTF-8" standalone="no"?>
<!-- Created with Inkscape (http://www.inkscape.org/) -->

<svg
   width="60mm"
   height="35mm"
   viewBox="0 0 60 35"
   version="1.1"
   id="svg974"
   inkscape:version="1.1.2 (b8e25be833, 2022-02-05)"
   sodipodi:docname="chapeau_de_paille.svg"
   xmlns:inkscape="http://www.inkscape.org/namespaces/inkscape"
   xmlns:sodipodi="http://sodipodi.sourceforge.net/DTD/sodipodi-0.dtd"
   xmlns="http://www.w3.org/2000/svg"
   xmlns:svg="http://www.w3.org/2000/svg">
  <sodipodi:namedview
     id="namedview976"
     pagecolor="#ffffff"
     bordercolor="#666666"
     borderopacity="1.0"
     inkscape:pageshadow="2"
     inkscape:pageopacity="0.0"
     inkscape:pagecheckerboard="0"
     inkscape:document-units="mm"
     showgrid="false"
     inkscape:zoom="0.7198092"
     inkscape:cx="397.32751"
     inkscape:cy="324.39152"
     inkscape:window-width="1920"
     inkscape:window-height="1001"
     inkscape:window-x="-7"
     inkscape:window-y="-7"
     inkscape:window-maximized="1"
     inkscape:current-layer="layer1" />
  <defs
     id="defs971" />
  <g
     inkscape:label="Calque 1"
     inkscape:groupmode="layer"
     id="layer1">
    <path
       id="path6168"
       style="fill:#ffff00;stroke:#000000;stroke-width:0.26007px;stroke-linecap:butt;stroke-linejoin:miter;stroke-opacity:0"
       d="m 13.213181,1.8590615 c -2.66003,0.30475 -8.3237104,2.67209 -10.8828104,9.0262495 -5.07855,12.6099 6.30065,14.57168 6.30065,14.57168 0,0 0.97178,-2.18911 0.65673,-2.43525 -5.17033,-4.03948 -0.81166,-11.24752 -1.35278,-9.08303 -0.54112,2.16449 3.0536704,7.84625 1.58491,2.82154 -1.46876,-5.02471 4.5222604,-11.9432295 6.5321404,-11.7113195 2.00989,0.23191 -3.47883,1.93228 -1.08243,4.7925 6.15706,7.3487495 -2.83628,9.8287695 0.1931,9.0059795 3.13078,-0.85033 3.78828,-9.1996795 3.78828,-2.78305 0,4.48359 -4.75174,5.15737 -3.55615,6.49362 0.65708,0.73438 0.46376,2.24158 0.46376,2.24158 12.05284,-4.94231 10.13246,-15.6967295 7.88489,-18.7072495 -2.23455,-2.99309 -5.79421,-4.77584 -10.53029,-4.23325 z"
       sodipodi:nodetypes="sscsssssssssss"
       inkscape:export-filename="C:\Users\BOUBA LABOBE Janvier\Desktop\DIXIADES\chapeau_de_paille.png"
       inkscape:export-xdpi="96"
       inkscape:export-ydpi="96" />
    <path
       style="fill:#333333;fill-opacity:1;stroke:#333333;stroke-width:0.264583px;stroke-linecap:butt;stroke-linejoin:miter;stroke-opacity:1"
       d="m 20.409531,24.047831 c 5.7062,-1.87088 6.17392,-2.71279 10.94468,-0.28063 4.77076,2.43215 14.21874,10.85114 19.27014,9.63506 l 5.05139,-1.21607 c 0,0 -6.17392,1.02898 -10.28988,-2.33861 -4.11595,-3.3676 -9.63506,-15.15418 -19.73785,-9.44798 l -10.10279,5.70621 z"
       id="path63516"
       sodipodi:nodetypes="csscsscc"
       inkscape:export-filename="C:\Users\BOUBA LABOBE Janvier\Desktop\DIXIADES\chapeau_de_paille.png"
       inkscape:export-xdpi="96"
       inkscape:export-ydpi="96" />
    <path
       style="fill:#333333;fill-opacity:1;stroke:#333333;stroke-width:0.231412px;stroke-linecap:butt;stroke-linejoin:miter;stroke-opacity:1"
       d="m 24.281651,17.581611 c 4.9908,-1.63633 5.39989,-2.37268 9.57253,-0.24545 4.17264,2.12723 12.4361,9.49071 16.85419,8.4271 l 4.41809,-1.06362 c 0,0 -5.39989,0.89998 -8.99981,-2.04541 -3.59993,-2.94539 -8.4271,-13.2542695 -17.26328,-8.26346 l -8.83618,4.9908 z"
       id="path63902"
       sodipodi:nodetypes="csscsscc"
       inkscape:export-filename="C:\Users\BOUBA LABOBE Janvier\Desktop\DIXIADES\chapeau_de_paille.png"
       inkscape:export-xdpi="96"
       inkscape:export-ydpi="96" />
    <path
       style="fill:#333333;fill-opacity:1;stroke:#333333;stroke-width:0.105324px;stroke-linecap:butt;stroke-linejoin:miter;stroke-opacity:1"
       d="m 31.115821,11.669431 c 2.51037,-0.67389 2.71614,-0.97714 4.81497,-0.10108 2.09883,0.87605 6.25535,3.90855 8.47764,3.47052 l 2.22229,-0.43802 c 0,0 -2.71613,0.37063 -4.52689,-0.84237 -1.81076,-1.21299 -4.23882,-5.4584895 -8.68341,-3.40313 l -4.44459,2.05536 z"
       id="path64178"
       sodipodi:nodetypes="csscsscc"
       inkscape:export-filename="C:\Users\BOUBA LABOBE Janvier\Desktop\DIXIADES\chapeau_de_paille.png"
       inkscape:export-xdpi="96"
       inkscape:export-ydpi="96" />
    <path
       style="fill:#333333;fill-opacity:1;stroke:#333333;stroke-width:0.264583px;stroke-linecap:butt;stroke-linejoin:miter;stroke-opacity:1"
       d="m 36.686241,8.8001015 c 0,0 1.59025,-0.28063 1.77734,-1.02898 0.18709,-0.74836 -0.24188,-4.10655 1.81609,-4.10655 2.05798,0 2.96132,0.59531 2.86113,2.79693 -0.0888,1.95124 -3.46114,0.74835 -2.71279,2.61924 0.74836,1.8708795 0.65481,1.9644295 0.65481,1.9644295 0,0 -2.52569,-1.9644295 -4.39658,-2.2450695 z"
       id="path64213"
       sodipodi:nodetypes="csssscc"
       inkscape:export-filename="C:\Users\BOUBA LABOBE Janvier\Desktop\DIXIADES\chapeau_de_paille.png"
       inkscape:export-xdpi="96"
       inkscape:export-ydpi="96" />
  </g>
</svg>
