<?xml version="1.0" encoding="UTF-8" standalone="no"?>
<!-- Created with Inkscape (http://www.inkscape.org/) -->

<svg
   width="26mm"
   height="42mm"
   viewBox="0 0 26 42"
   version="1.1"
   id="svg974"
   inkscape:version="1.1.2 (b8e25be833, 2022-02-05)"
   sodipodi:docname="flamme olympiques.svg"
   inkscape:export-filename="C:\Users\BOUBA LABOBE Janvier\Desktop\DIXIADES\flames olympique.png"
   inkscape:export-xdpi="96"
   inkscape:export-ydpi="96"
   xmlns:inkscape="http://www.inkscape.org/namespaces/inkscape"
   xmlns:sodipodi="http://sodipodi.sourceforge.net/DTD/sodipodi-0.dtd"
   xmlns="http://www.w3.org/2000/svg"
   xmlns:svg="http://www.w3.org/2000/svg">
  <sodipodi:namedview
     id="namedview976"
     pagecolor="#ffffff"
     bordercolor="#666666"
     borderopacity="1.0"
     inkscape:pageshadow="2"
     inkscape:pageopacity="0"
     inkscape:pagecheckerboard="true"
     inkscape:document-units="mm"
     showgrid="false"
     inkscape:zoom="4.0718557"
     inkscape:cx="103.63825"
     inkscape:cy="68.887509"
     inkscape:window-width="1920"
     inkscape:window-height="1001"
     inkscape:window-x="-7"
     inkscape:window-y="-7"
     inkscape:window-maximized="1"
     inkscape:current-layer="layer1" />
  <defs
     id="defs971" />
  <g
     inkscape:label="Calque 1"
     inkscape:groupmode="layer"
     id="layer1">
    <path
       id="path118"
       style="fill:#008000;fill-rule:evenodd;stroke-width:0.566835"
       d="M 92.175781 61.164062 A 46.144139 46.35484 0 0 0 46.03125 107.51953 A 46.144139 46.35484 0 0 0 85.087891 153.31641 A 48.592017 46.14193 88.211791 0 1 57.353516 108.85938 A 48.592017 46.14193 88.211791 0 1 94.421875 61.220703 A 46.144139 46.35484 0 0 0 92.175781 61.164062 z "
       transform="scale(0.26458333)" />
    <path
       style="fill:#ffff00;fill-opacity:1;stroke:#ffff00;stroke-width:0.187554px;stroke-linecap:butt;stroke-linejoin:miter;stroke-opacity:1"
       d="m 2.8187815,17.945504 c -0.395924,0.112359 3.394988,0.725596 5.66817,3.540688 2.2731805,2.815097 3.0286305,7.83205 3.0286305,7.83205 0,0 1.102344,-13.715949 -8.6968005,-11.372738"
       id="path4296"
       sodipodi:nodetypes="cscc" />
    <ellipse
       style="fill:#ff0000;fill-opacity:1;stroke:#333333;stroke-width:0.187554;stroke-opacity:0.624601"
       id="path5654"
       cx="19.034025"
       cy="12.119348"
       rx="1.867582"
       ry="2.9546824"
       transform="rotate(20.430641)" />
    <path
       id="path6168"
       style="fill:#ffff00;stroke:#000000;stroke-width:0.187554px;stroke-linecap:butt;stroke-linejoin:miter;stroke-opacity:0"
       d="M 14.457895,0.73236049 C 12.539568,0.95213349 8.4550925,2.6593915 6.6095505,7.2418165 2.9470525,16.335689 11.153382,17.750458 11.153382,17.750458 c 0,0 0.700821,-1.578713 0.473614,-1.756226 -3.7286825,-2.913146 -0.585343,-8.1113655 -0.975584,-6.5504015 -0.390242,1.5609635 2.202216,5.6584765 1.142991,2.0348095 -1.059226,-3.6236655 3.261314,-8.6130875 4.71078,-8.4458425 1.449467,0.167247 -2.508832,1.393501 -0.780621,3.456203 4.440286,5.2996955 -2.045431,7.0882095 0.139258,6.4948365 2.257823,-0.613236 2.731993,-6.6345305 2.731993,-2.007051 0,3.233425 -3.426806,3.71934 -2.564586,4.682998 0.473865,0.529613 0.334448,1.616558 0.334448,1.616558 C 25.057813,13.712104 23.672893,5.9563455 22.052017,3.7852475 20.440531,1.6267265 17.873409,0.34106349 14.457895,0.73236049 Z"
       sodipodi:nodetypes="sscsssssssssss"
       inkscape:export-filename="C:\Users\BOUBA LABOBE Janvier\Desktop\DIXIADES\chapeau_de_paille.png"
       inkscape:export-xdpi="96"
       inkscape:export-ydpi="96" />
  </g>
</svg>
