<?xml version="1.0" encoding="UTF-8" standalone="no"?>
<!-- Created with Inkscape (http://www.inkscape.org/) -->

<svg
   width="45mm"
   height="42mm"
   viewBox="0 0 45 42"
   version="1.1"
   id="svg974"
   inkscape:version="1.1.2 (b8e25be833, 2022-02-05)"
   sodipodi:docname="Jeux olympiques.svg"
   inkscape:export-filename="C:\Users\BOUBA LABOBE Janvier\Desktop\DIXIADES\Calebasse.png"
   inkscape:export-xdpi="96"
   inkscape:export-ydpi="96"
   xmlns:inkscape="http://www.inkscape.org/namespaces/inkscape"
   xmlns:sodipodi="http://sodipodi.sourceforge.net/DTD/sodipodi-0.dtd"
   xmlns:xlink="http://www.w3.org/1999/xlink"
   xmlns="http://www.w3.org/2000/svg"
   xmlns:svg="http://www.w3.org/2000/svg">
  <sodipodi:namedview
     id="namedview976"
     pagecolor="#ffffff"
     bordercolor="#666666"
     borderopacity="1.0"
     inkscape:pageshadow="2"
     inkscape:pageopacity="0.0"
     inkscape:pagecheckerboard="0"
     inkscape:document-units="mm"
     showgrid="false"
     inkscape:zoom="1.0179639"
     inkscape:cx="396.87064"
     inkscape:cy="323.68534"
     inkscape:window-width="1920"
     inkscape:window-height="1001"
     inkscape:window-x="-7"
     inkscape:window-y="-7"
     inkscape:window-maximized="1"
     inkscape:current-layer="layer1" />
  <defs
     id="defs971">
    <linearGradient
       inkscape:collect="always"
       xlink:href="#linearGradient19105"
       id="linearGradient19111"
       x1="72.437279"
       y1="151.56807"
       x2="203.4472"
       y2="151.56807"
       gradientUnits="userSpaceOnUse"
       gradientTransform="matrix(0.26006983,0,0,0.26006984,-13.127992,-16.466213)" />
    <linearGradient
       inkscape:collect="always"
       id="linearGradient19105">
      <stop
         style="stop-color:#008000;stop-opacity:1;"
         offset="0"
         id="stop19101" />
      <stop
         style="stop-color:#008000;stop-opacity:0;"
         offset="1"
         id="stop19103" />
    </linearGradient>
  </defs>
  <g
     inkscape:label="Calque 1"
     inkscape:groupmode="layer"
     id="layer1">
    <path
       style="fill:#008000;fill-opacity:1;stroke:#008000;stroke-width:0.264583px;stroke-linecap:butt;stroke-linejoin:miter;stroke-opacity:1"
       d="m 18.766846,5.5869407 c 0,0 2.947342,-0.4448823 1.668307,-2.6692939 -1.279036,-2.22441172 0,-2.00197072 0,-2.00197072 v 0 l 2.00197,1.44586782 c 0,0 -2.05758,-1.61269842 -1.83514,-0.7229338 0.222441,0.8897647 2.836127,3.058566 -1.835137,3.9483306 z"
       id="path26198"
       sodipodi:nodetypes="cscccsc" />
    <ellipse
       style="fill:#008000;fill-rule:evenodd;stroke-width:0.207961"
       id="path118"
       cx="18.662727"
       cy="22.459999"
       rx="16.929409"
       ry="17.006712" />
    <ellipse
       style="fill:#ffffff;fill-opacity:1;fill-rule:evenodd;stroke:url(#linearGradient19111);stroke-width:0.212915;stroke-opacity:1"
       id="ellipse265"
       cx="22.746626"
       cy="22.952068"
       rx="16.929409"
       ry="17.826719"
       transform="matrix(1,0,0.00306627,0.9999953,0,0)" />
    <text
       xml:space="preserve"
       style="font-style:normal;font-weight:normal;font-size:4.61282px;line-height:1.25;font-family:sans-serif;fill:#000000;fill-opacity:1;stroke:none;stroke-width:0.11532"
       x="16.979263"
       y="12.133701"
       id="text9995"
       transform="scale(0.65359657,1.5299958)"><tspan
         sodipodi:role="line"
         id="tspan9993"
         x="16.979263"
         y="12.133701"
         style="stroke-width:0.11532">Dixiades Garoua</tspan></text>
    <text
       xml:space="preserve"
       style="font-style:normal;font-weight:normal;font-size:10.4028px;line-height:1.25;font-family:sans-serif;fill:#000000;fill-opacity:1;stroke:none;stroke-width:0.26007"
       x="9.9681635"
       y="27.571928"
       id="text14611"><tspan
         sodipodi:role="line"
         id="tspan14609"
         x="9.9681635"
         y="27.571928"
         style="stroke-width:0.26007">2022</tspan></text>
    <circle
       style="fill:#0bc10b;fill-opacity:0;stroke:#0bc10b;stroke-width:0.390885;stroke-miterlimit:4;stroke-dasharray:none;stroke-opacity:1"
       id="circle24991"
       r="1.6788416"
       cy="33.314629"
       cx="26.236044" />
    <path
       style="color:#000000;fill:#ff0000;stroke-width:0.264583;-inkscape-stroke:none"
       d="m 28.524918,29.9236 c -0.973444,-0.100041 -1.862862,0.569835 -2.035917,1.532985 0,0 0.0877,0.01306 0.137385,0.02401 0.04968,0.01093 0.128834,0.03157 0.160177,0.04167 0.03134,0.0101 0.08266,0.02926 0.08266,0.02926 l 0.0041,-0.02623 c 0.13754,-0.765489 0.838328,-1.292634 1.612001,-1.213125 0.773671,0.07951 1.352007,0.738157 1.33098,1.515619 -0.02102,0.777463 -0.634355,1.404277 -1.411194,1.441854 -0.77684,0.03758 -1.447713,-0.526988 -1.543678,-1.298793 0,0 -0.05987,-0.02829 -0.10425,-0.04493 -0.04438,-0.01664 -0.113118,-0.03949 -0.162712,-0.05224 -0.0496,-0.01276 -0.133835,-0.02611 -0.133835,-0.02611 8.65e-4,0.07551 0.01299,0.171566 0.01299,0.171566 0.120744,0.971093 0.972893,1.68806 1.950323,1.640783 0.977428,-0.04727 1.756561,-0.843335 1.783015,-1.821549 0.02646,-0.978214 -0.708645,-1.814699 -1.682092,-1.914737 z"
       id="path57087"
       sodipodi:nodetypes="sczzccsssczzccssss" />
    <path
       style="color:#000000;fill:#000000;fill-rule:evenodd;stroke-width:0.264583;-inkscape-stroke:none"
       d="m 24.511551,29.93595 c -0.229844,-0.036 -0.469788,-0.02952 -0.708947,0.02567 -0.956639,0.22076 -1.5824,1.147367 -1.429949,2.117237 0.152451,0.969871 1.032085,1.659856 2.010319,1.576481 l 0.01033,-0.0013 c 0,0 -0.0089,-0.04694 -0.01344,-0.0792 -0.0045,-0.03226 -0.01096,-0.08037 -0.01329,-0.114215 -0.0023,-0.03385 -0.0046,-0.08428 -0.0053,-0.116529 -6.87e-4,-0.03225 10e-4,-0.07713 10e-4,-0.07713 l -0.01245,-0.0012 c -0.777517,0.06627 -1.470042,-0.476738 -1.591212,-1.247613 -0.121171,-0.77087 0.371588,-1.500352 1.131937,-1.675816 0.760353,-0.175466 1.522487,0.264644 1.751363,1.010659 0.228875,0.746016 -0.155672,1.537848 -0.883604,1.818984 -0.01099,0.08812 -0.01141,0.136106 -0.0019,0.264291 0.01101,0.103138 0.02008,0.143474 0.02008,0.143474 l 0.122752,-0.04337 c 0.915848,-0.353711 1.404526,-1.359351 1.116566,-2.297954 -0.215968,-0.70395 -0.814807,-1.194359 -1.50433,-1.302361 z"
       id="path49607"
       sodipodi:nodetypes="ssscczzzccsssccccsss" />
    <path
       id="path45107"
       style="color:#000000;fill:#ffff00;fill-rule:evenodd;stroke-width:0.264583;-inkscape-stroke:none"
       d="m 22.200135,31.44018 c -0.03034,-5.29e-4 -0.06085,-3.4e-5 -0.09147,0.0011 -0.489927,0.01709 -0.932508,0.222938 -1.25729,0.546738 -0.324773,0.323802 -0.531786,0.765863 -0.550354,1.255736 -0.03713,0.979747 0.691594,1.82549 1.666049,1.933734 0.974458,0.108244 1.870708,-0.561993 2.049487,-1.526005 0,0 -0.127389,-0.01778 -0.19017,-0.03152 -0.0642,-0.01405 -0.190169,-0.05219 -0.190169,-0.05219 l -0.0041,0.01757 c -0.142098,0.766196 -0.847625,1.289577 -1.622124,1.203542 -0.774496,-0.08603 -1.347779,-0.751432 -1.318265,-1.530138 0.02951,-0.778703 0.651616,-1.399625 1.430404,-1.426787 0.778787,-0.02716 1.443347,0.54868 1.527037,1.323435 0,0 0.137594,0.05309 0.211357,0.0708 0.09764,0.02344 0.188648,0.03469 0.186034,0.03411 0,0 -0.0011,-0.05612 -0.0026,-0.08113 -0.0016,-0.025 -0.0067,-0.06615 -0.0067,-0.06615 -0.102008,-0.944317 -0.8967,-1.660017 -1.837098,-1.672765 z"
       sodipodi:nodetypes="scssscsccssscscscss" />
    <path
       style="color:#000000;fill:#0091ff;stroke-width:0.264583;-inkscape-stroke:none"
       d="m 20.385258,29.930508 c -0.23028,-0.03146 -0.469646,-0.02042 -0.707449,0.03927 -0.951211,0.238816 -1.55953,1.176002 -1.390097,2.141988 0.169432,0.965985 1.066618,1.636535 2.042324,1.537374 0,0 -0.01294,-0.05936 -0.02471,-0.180972 -0.0063,-0.0648 -0.0066,-0.211161 -0.0066,-0.211161 -0.775496,0.07881 -1.490705,-0.445167 -1.625369,-1.212938 -0.134665,-0.767768 0.343648,-1.505175 1.099674,-1.694987 0.756026,-0.189812 1.525953,0.234289 1.769917,0.974617 0.243967,0.740328 -0.124156,1.535604 -0.84491,1.832446 0,0 -0.01188,0.09985 -0.0062,0.214974 0.0063,0.126537 0.0217,0.196887 0.0217,0.196887 0.06276,-0.01937 0.13436,-0.04703 0.13436,-0.04703 0.906833,-0.37348 1.373553,-1.388295 1.066602,-2.319755 -0.230214,-0.698595 -0.838261,-1.17633 -1.529106,-1.270723 z"
       id="path38605"
       sodipodi:nodetypes="scscscssscsccsss" />
  </g>
</svg>
